<svg enable-background="new 0 0 68.9 70.1" height="70.1" viewBox="0 0 68.9 70.1" width="68.9" xmlns="http://www.w3.org/2000/svg"><g transform="translate(898.762 -111.042)"><path d="m-844.7 117.7c-5-2.8-12.7-6.7-18.8-6.7-9.8 0-17.7 1.4-24.1 7.9s-12 18.2-11.3 28.1c.5 4.8 1.4 9.5 2.8 14 2.3 8.4 7.7 12.5 15.4 16.3 4.7 2.3 13 3.8 18.5 3.8 6.5 0 12.1-2.6 17.5-5.4 7.3-3.8 14.7-14.2 14.7-27.4 0-13.7-3.7-24.5-14.7-30.6z" fill="#005640"/><path d="m-842.5 137.8c0-.1-.2-.5-.5-.3 0 0-2.9 2-4.6.6-.4-.3-.4-1.3-.4-2.7s-.2-16.1-.2-16.1v-.2c0-.1 0-.2-.1-.3s-.2-.1-.3-.1h-3.8c-.2 0-.3.1-.3.3v.2s-.1 9.8-.1 13.7-3.5 5.9-7.3 5.9c-2 0-3.3-.8-3.8-2.4h.5c5.3 0 8.5-2.1 8.4-5.5v-.1c0-.1 0-.1 0-.2-.2-2.7-2.7-4.7-6-4.7-3.7-.2-7 2.5-7.5 6.2-.3-.1-.7-.2-1-.3-.6-3.6-3.1-5.9-6.3-5.9-1.4-.1-2.8.4-3.9 1.3l-.1-8.2c0-.1 0-.2-.1-.2-.1-.1-.2-.1-.2-.1h-3.8c-.2 0-.3.1-.3.3l.4 21.9c0 .1.1.3.2.3h.1c1.9 1 4 1.5 6.2 1.5 4.6 0 7.5-2.7 8-7.2.2.1.5.1.7.2.1 2 1.1 3.9 2.7 5.2 1.6 1.2 3.6 1.9 5.6 1.8 3.1-.1 6.1-1.2 8.4-3.3.6 2 2.5 3.3 4.5 3.2 1.8 0 3.5-.5 5-1.4.2-.1.3-.3.2-.5zm-35 .9c-.6 0-1.3-.2-1.8-.5 0-1 0-2.4 0-3.7 0-2.9 1.1-4.5 2.9-4.5 1.6 0 2.5 1.1 2.7 3.2.1 2.3-.1 5.5-3.8 5.5zm13.6-6c.3-1.6 1.5-3.1 3-3.1.7 0 1.5.3 1.6 1.1 0 .5-.1 1.1-1.4 1.6-1 .3-2.1.5-3.2.4z" fill="#fff"/><path d="m-841.3 128.9c-.1-.9-.4-1.7-.9-2.4-.5-.8-1.5-1.2-2.4-1.1-.7.1-1.2.7-1.2 1.5s.5 1.6 1.3 1.8c.7.3 1.2.8 1.5 1.4.4.7.5 1.5.3 2.3v.2h.2c.9-1.1 1.3-2.4 1.2-3.7z" fill="#fff"/><g fill="#91d754"><path d="m-835.8 130.9s-.1-.1-.1-.1c-3-.1-5.6 2-6.1 4.9v.1s.1.1.1.1h.1c5.8.2 6-4.9 6-5 .1.1 0 0 0 0z"/><path d="m-877.5 148.1v-.3h-1.9c-.1 0-.2.1-.2.2v6.5c0 .1.1.1.2.1h1.8c.1 0 .1-.1.1-.2v-2.8c0-.4 0-1.4.8-1.8.4-.1.8-.1 1.1.1.1 0 .2 0 .2-.1 0-.1.5-1.6.5-1.8 0-.1 0-.1-.2-.2-.7-.3-1.7-.2-2.4.3zm-4.5.6c-.3-.3-.7-.6-1.1-.7-.9-.3-1.8-.3-2.6 0-.4.2-.8.4-1.1.7s-.6.7-.7 1.1c-.2.5-.3 1-.3 1.5s.1 1 .3 1.4.4.8.7 1.1.7.6 1.1.7c.4.2.9.3 1.3.3.5 0 .9-.1 1.3-.3s.8-.4 1.1-.7.6-.7.7-1.1c.2-.5.3-.9.3-1.4s-.1-1-.3-1.4c-.2-.5-.4-.9-.7-1.2zm-1.1 3.3c-.1.2-.2.4-.3.5s-.3.2-.4.3c-.2.1-.4.1-.6.1s-.4 0-.5-.1c-.2-.1-.3-.2-.5-.4-.1-.2-.2-.3-.3-.6-.1-.2-.1-.5-.1-.7 0-.5.1-.9.4-1.3.3-.3.6-.4 1-.4.2 0 .4 0 .5.1.2.1.3.2.5.4.1.2.2.3.3.5s.1.4.1.7c0 .4-.1.6-.1.9z"/><path d="m2 .8c-.7 1-1.2 2.3-1.2 3.6h-.9s-.1 0-.1.1.1 1.6.1 1.5c0 0 0 .1.1.1h.6c0 2.1.3 4.1.8 6.1 0 0 .1.1.1.1.5-.1 1-.2 1.7-.3.1 0 .1-.1.1-.1-.6-2-.8-4-.7-5.9h1.4s.1 0 .1-.1.1-1.4.1-1.5 0-.1-.1-.1-1.3 0-1.3 0c0-.8.2-1.7.7-2.3.3-.4 1.3-.4 1.6-.2.1 0 .1 0 .2-.1.1-.3.3-1.1.3-1.2s0-.2-.1-.2c-1.1-.6-2.6-.5-3.5.5z" transform="translate(-893.148 142.939)"/><path d="m-858.8 154c-1.1.6-1.5.2-1.6.1s-.2-.2-.2-.6c.1-5.2.1-7.8.1-8.3 0-.1-.1-.1-.1-.1l-2.3.1c-.1 0-.2 0-.2.1v7.8c-.1 2.3 1.2 3 1.6 3.2.4.1.8.2 1.2.3h1c.3 0 .5-.1.8-.2l.5-.2c-.1-.3-.5-1.6-.8-2.2.1 0 .1 0 0 0z"/><path d="m-852.9 154c-1.1.6-1.5.5-1.7.4-.1-.1-.2-.2-.2-.6.1-5.2 0-6.2 0-6.7 0-.1-.1-.1-.1-.1l-2.3.1c-.1 0-.2 0-.2.1 0 .9.1 4.2 0 6.2-.1 2.3 1.2 3 1.6 3.2l1.2.3h1c.3 0 .5-.1.8-.2l.5-.2c0-.3-.4-1.8-.6-2.5z"/><path d="m-864.2 152.9-.5.1c-.3 0-.3-.4-.3-.5l-.1-4.6c0-.1 0-.1-.1-.1 0 0-2.7-.3-3.1-.3-.5 0-1 .1-1.4.3s-.8.5-1.1.8c-.3.4-.5.8-.7 1.2-.2.5-.2 1-.2 1.5s.1 1 .3 1.5c.2.4.4.8.7 1.2.3.3.7.6 1.1.8s.9.3 1.3.3c.3 0 .5 0 .8-.1.2-.1.5-.2.7-.3.1-.1.2-.1.3-.2.5.6 1.9.4 2.1.4s.2 0 .2-.2v-1.5c.1-.2 0-.2 0-.3zm-3-.4c-.1.1-.2.2-.4.3-.3.2-.7.2-1.1 0-.2-.1-.3-.2-.4-.3-.1-.2-.2-.3-.3-.5s-.1-.5-.1-.7 0-.5.1-.7.2-.4.3-.5.2-.2.4-.3.3-.1.5-.1.4 0 .6.1c.1 0 .2.1.3.1z"/><path d="m-844.7 168.8c.2 0 .3-.1.4-.2.1-.2.8-1.6.8-1.8 0-.1 0-.2-.1-.2l-.6-.1c-.3-.1-.3-.3-.3-.7 0-.1 1.8-9.9 1.9-10.1 0-.1 0-.1-.1-.2-.1 0-2.1-.3-2.3-.3-.1 0-.1 0-.2.2 0 .2-.7 3.6-.7 3.7v.1l-.1-.1c-.5-.3-1-.5-1.6-.6s-1.2 0-1.7.1c-.6.2-1.1.5-1.5.8-.5.4-.9.9-1.2 1.4-.3.6-.6 1.2-.7 1.9s-.1 1.3 0 2c.1.6.3 1.1.6 1.6s.7.9 1.2 1.2 1 .5 1.6.6c.7.1 1.3 0 2-.2.2-.1.4-.2.5-.3h.1v.1c.3 1 2 1.1 2 1.1zm-2.3-3.4c-.2.1-.4.3-.6.3-.1 0-.3.1-.4.1-.4 0-.8-.1-1.1-.3-.2-.1-.4-.3-.5-.6-.1-.2-.2-.5-.3-.8 0-.3 0-.7 0-1 .1-.3.2-.7.3-1s.3-.5.5-.7.4-.3.7-.4.5-.1.8-.1.6.2.8.4c.2.1.3.3.4.5z"/><path d="m-877.6 155.9c-.6-.1-1.2 0-1.7.1-.5.2-1 .4-1.5.8-.4.4-.8.8-1.1 1.4s-.5 1.2-.6 1.8-.1 1.3.1 2c.1.6.4 1.1.7 1.5s.7.8 1.2 1.1 1 .4 1.5.5c.6.1 1.2 0 1.7-.2-.1.6-.1 3.7-3 2.9-1.1-.3-2.4-2.1-2.7-2.8 0-.1-.1-.1-.2 0s-1.5 1.7-1.5 1.7v.2c1 1.8 2.6 3.1 4.6 3.7 2.5.4 4.7-.6 5.3-5.6.4-2.9 1.1-8.3 1.1-8.3s-3.4-.8-3.9-.8zm.6 6.5c-.2.1-.4.2-.6.3-.3.1-.6.1-.9.1-.2 0-.5-.1-.7-.2s-.4-.3-.5-.5c-.2-.2-.3-.5-.3-.8-.1-.3-.1-.7 0-1 0-.3.1-.7.3-1 .1-.2.3-.5.5-.7s.4-.3.6-.3c.2-.1.5-.1.7-.1.3 0 .6.1.9.3.2.1.3.2.4.3zm11.9-.7c-.4-.4-.8-.7-1.3-.9s-1.1-.3-1.6-.3c-.6 0-1.1.1-1.6.3s-.9.5-1.3.9-.7.9-.9 1.4c-.2.6-.3 1.2-.3 1.8s.1 1.2.3 1.7.5 1 .9 1.4.8.7 1.3.9 1.1.3 1.6.3c.6 0 1.1-.1 1.6-.3s.9-.5 1.3-.9.7-.9.9-1.4c.2-.6.3-1.2.3-1.8s-.1-1.2-.3-1.8c-.2-.5-.5-.9-.9-1.3zm-1.2 4c-.1.2-.2.5-.4.7s-.3.3-.6.4c-.2.1-.5.2-.8.1-.2 0-.5-.1-.7-.2s-.4-.3-.6-.5-.3-.4-.4-.7-.1-.6-.1-.9c0-.6.1-1.1.5-1.6.3-.4.8-.6 1.3-.5.2 0 .5.1.7.2s.4.3.6.5.3.4.4.7.1.6.1.9c.1.3.1.6 0 .9zm10.7-4.7c-.4-.4-.8-.7-1.3-.9s-1.1-.3-1.6-.3c-.6 0-1.1.1-1.6.3s-.9.5-1.3.9-.7.9-.9 1.4c-.2.6-.3 1.2-.3 1.8s.1 1.2.3 1.7.5 1 .9 1.4.8.7 1.3.9 1.1.3 1.6.3c.6 0 1.1-.1 1.6-.3s.9-.5 1.3-.9.7-.9.9-1.4c.2-.6.3-1.2.3-1.8s-.1-1.2-.3-1.8c-.3-.5-.6-.9-.9-1.3zm-1.3 4.1c-.1.2-.2.5-.4.7s-.3.3-.6.4c-.2.1-.5.2-.8.1-.2 0-.5-.1-.7-.2s-.4-.3-.6-.5-.3-.4-.4-.7-.1-.6-.1-.9c0-.6.1-1.1.5-1.6.3-.4.8-.6 1.3-.5.2 0 .5.1.7.2s.4.3.6.5.3.4.4.7.1.6.1.9c.2.2.1.6 0 .9z"/><path d="m-848.1 147.9c.3-.1.6-.1.9 0 .1.1.2 0 .2-.1.1-.3.3-1 .3-1.1 0-.2.1-.2-.1-.2-.7-.2-1.4-.2-2.1.1-.2.1-.5.3-.6.5-.2.2-.3.4-.4.7s-.1.6-.1 1c0 0-.4 0-.6 0-.1 0-.1.2-.1.2v1.3s0 .1.1.1h.6l.1 3.6s0 .2.1.2 1.2-.1 1.4-.1.1-.2.1-.2l-.1-3.5s1.1-.1 1.2-.1.1 0 .1-.2c0-.1 0-1.2 0-1.2s0-.1-.1-.1-1.3 0-1.3 0c0-.4.1-.7.4-.9zm6.5.9c-.3-.2-.6-.4-.9-.5-.7-.2-1.5-.2-2.1.1-.3.2-.6.4-.8.6-.2.3-.4.6-.5.9-.1.4-.2.8-.2 1.2s.1.8.2 1.1.3.6.6.9c.3.2.6.4.9.5s.7.2 1.1.1c.4 0 .7-.1 1.1-.3.3-.2.6-.4.8-.6.2-.3.4-.6.5-1s.2-.8.2-1.2-.1-.8-.3-1.1c-.2-.2-.4-.5-.6-.7zm-.9 2.7c0 .1-.1.3-.2.4s-.2.2-.3.3c-.3.1-.6.2-.8.1-.1-.1-.2-.1-.3-.2s-.2-.3-.2-.4c-.1-.2-.1-.3-.1-.5 0-.3.1-.7.2-1 .2-.2.5-.4.7-.4.1 0 .3 0 .4.1s.2.1.3.2.2.2.2.4c.1.2.1.3.1.5.1.1.1.3 0 .5zm6.3-3.5c-.7-.2-1.4-.1-1.9.3v-.2s-1.3.1-1.5.1c-.1 0-.1.1-.1.1s.2 5 .2 5.2.1.2.1.2 1.2-.1 1.4-.1c.1 0 .1-.1.1-.2s-.1-2.4-.1-2.4c0-.2 0-.4.1-.7 0-.1.1-.3.2-.4s.2-.2.3-.2c.3-.1.6-.1.8-.1.1 0 .2 0 .2-.1s.3-1.1.3-1.2c0-.2 0-.3-.1-.3z"/><path d="m-872.8 170c8.8 6.1 16.9.6 18.4-.4.1-.1.3 0 .4.1l1.1 1.5c.1.1.1.3-.1.4-3 2.2-6.6 3.3-10.3 3.3-4-.2-7.3-1.1-10.2-3.7-.1-.1-.1-.3 0-.5.4-.7.1-.3.4-.6-.1-.4.1-.3.3-.1z"/></g></g></svg>