<?xml version="1.0" encoding="utf-8"?>
<!-- Generator: Adobe Illustrator 24.1.0, SVG Export Plug-In . SVG Version: 6.00 Build 0)  -->
<svg version="1.1" id="Layer_1" xmlns="http://www.w3.org/2000/svg" xmlns:xlink="http://www.w3.org/1999/xlink" x="0px" y="0px"
	 viewBox="0 0 240.3416748 76.3662109" style="enable-background:new 0 0 240.3416748 76.3662109;" xml:space="preserve">
<style type="text/css">
	.st0{fill:#000000;}
	@media (prefers-color-scheme: dark) { .st0 {fill:#FFFFFF;} }
	.st1{fill:#437EC4;}
</style>
<path class="st0" d="M26.5900269,25.8612041c1.0180054,3.5350342,0.8380127,8.3880024-1.4539795,12.0300007
	c-3.1820068,5.0160217-9.9420166,4.552002-12.4170532,4.2940063c0,0-2.3410034-0.3569946-4.1949463-0.4079895
	c-1.7660522-0.0469971-5.0360107,0.1040039-5.0360107,0.1040039v-1.4309998c2.25-0.053009,2.4289551-0.2059937,2.4289551-3.7920227
	V5.3832378c0-3.9400024-0.6629639-3.7930298-5.9169922-3.7930298V0.2102032c0,0,5.3439941,0.0500488,8.0350342,0.0500488
	c1.9939575,0,5.039978-0.2010498,5.039978-0.2010498c2.5150146-0.1529541,8.0820313-0.3629761,10.5560303,4.3540039
	c1.3280029,2.4530029,1.414978,7.2090454,0,10.0230103c-1.3270264,2.717041-2.9150391,4-5.0820313,5.3300171
	C21.4660034,20.0202007,25.3550415,21.4562359,26.5900269,25.8612041 M20.6740112,11.5722027
	c0.2650146-2.8139648-0.0469971-6.4439697-2.8269653-8.3409424c-1.677002-1.177002-5.5240479-1.2300415-6.5370483-1.026001
	c-1.0189819,0.2039795-0.8849487,1.8479614-0.8849487,3.1779785v13.9240112c2.0309448,0,5.0779419,0.0979614,6.4889526-0.6650391
	C19.6570435,17.1532574,20.4490356,13.9312115,20.6740112,11.5722027 M10.4250488,36.6582031
	c0,1.4840088-0.0470581,2.2550049,0.8849487,2.8700256c0.9280396,0.6119995,5.6970215,0.4049988,7.06604-0.1029968
	c2.2979736-0.9760132,3.5319824-2.7140198,4.2399902-5.3770142c0.5280151-2.3079853,0.1759644-6.6499653-1.4130249-9.2600117
	c-2.164978-3.4819946-6.4970093-3.1279907-9.1010132-3.1279907h-1.6769409V36.6582031z"/>
<path class="st0" d="M56.9848022,40.6366882c1.9969482-0.0439758,2.1099854-0.2689819,2.1099854-3.2989807V11.1087017
	c0-3.5209961-0.2449951-3.2929688-4.7380371-3.2929688V6.6097393c0,0,4.2360229,0.0439453,6.5859985,0.0439453
	c2.1100464,0,4.1810303-0.0439453,4.1810303-0.0439453V7.815733c-1.9940186,0.0440063-2.1080322,0.2689819-2.1080322,3.2929688
	v23.0670185c0,2.5389709-0.0809937,4.4099731,0.6890259,5.0779724c0.7319946,0.6650085,1.7260132,0.5320129,4.2620239,0.5320129
	h2.151001c1.348999,0,3.1919556,0.2269897,4.072998-1.7319946c0.4609985-0.9819946,1.2649536-3.8339844,1.5739746-5.1699829
	h1.1519775l-2.0009766,9.1719666c-0.3410034-0.0449829-1.1450195-0.1749878-1.5289917-0.1749878
	c0,0-6.4910278-0.0849915-10.6790161-0.0849915c-2.2279663,0-5.7229614,0.0849915-5.7229614,0.0849915V40.6366882z"/>
<path class="st0" d="M100.2015991,4.3897686l-12.375,38.0740051h-1.6890259l-9.5280151-31.8879719
	C75.87854,8.1668072,75.765564,7.815794,73.9975586,7.815794V6.6098003c0,0,2.6890259,0.0440063,4.4150391,0.0440063
	c2.30896,0,6.9449463-0.0440063,6.9449463-0.0440063V7.815794c-2.2659912,0-4.55896-0.1329956-4.9819946,0.6680298
	c-0.3859863,0.7179565-0.2299805,1.2879639,0.6530151,4.2209473l6.835022,23.1640034l7.5609741-23.468996
	c0.651001-2.0449829,0.9960327-2.9819946,0.6149902-3.7859497c-0.30896-0.618042-1.8349609-0.7980347-5.0629883-0.7980347V6.6098003
	c0,0,3.9470215,0.0440063,5.7930298,0.0440063c1.0009766,0,1.2509766-0.5969849,1.8599854-2.2640381H100.2015991z"/>
<path class="st0" d="M132.2910767,40.636322c2.0349731,0,2.1119995-0.7619934,2.1119995-3.6080017V11.1083355
	c0-3.5620117-0.8660278-3.2929688-5.2860107-3.2929688V6.6093121c0,0,4.0200195,0.0440063,7.132019,0.0440063
	c2.7709961,0,9.0299683-0.223999,9.0299683-0.223999c4.7600098-0.1300049,11.7509766,1.1170044,15.2109985,8.1960449
	c2.3790283,4.9429932,2.4960327,13.6269531-0.5800171,19.4199848c-4.2599487,7.9659729-12.289978,8.2379761-17.5939941,8.0099792
	c0,0-3.5279541-0.2600098-5.8779907-0.2600098c-1.7999878,0-4.1469727,0.0859985-4.1469727,0.0859985V40.636322z
	 M138.3270874,34.9793091c0,2.2290039-0.15802,4.052002,1.0349731,4.9390259
	c1.6119995,1.117981,9.6400146,0.5350037,13.2180176-1.9570007c5.065979-3.4700012,5.9499512-9.8869953,5.8359985-14.2499714
	c-0.15802-5.1660156-1.2319946-10.2860107-6.5339966-13.493042c-3.0350342-1.8709717-11.4450073-2.1339722-12.8619995-1.2909546
	c-0.7740479,0.4489746-0.6929932,1.0249634-0.6929932,2.1809692V34.9793091z"/>
<path class="st0" d="M172.463562,23.6082745c2.5629883,0,5.6279907-0.0029907,5.8329468,0.0350342
	c0.9029541,0.1900024,1.1309814,1.2420044,1.3950195,3.9320068l0.1099854,0.9190063h1.032959l-0.6269531-7.6669922h-1.0700684
	c0,0.5199585-0.2719116,1.0130005-0.7119141,1.0130005c-0.8289795,0-2.4370117-0.0140381-5.9619751,0l-0.0180054-0.0020142
	v-8.098999c0-3.4790039-0.1170044-4.0530396,0.6139526-4.723999c0.3040161-0.269043,1.1920166-0.269043,3.7280273-0.269043
	c2.8379517,0,3.8429565,0,4.0700073,0.0480347c1.157959,0.2709961,1.4619141,2.0720215,1.9589844,6.5700073l0.1149902,1.0199585
	h1.1539307c0,0-0.4199219-4.9689941-0.572998-6.3880005c-0.0819092-0.5789795-0.1169434-1.0689697-0.0819092-1.3829956
	c0.0389404-0.4899902,0.8209229-0.8039551,1.3969727-0.8039551V6.6093121c0,0-8.4619751,0.0440063-13.5719604,0.0440063
	c-2.6890259,0-8.0200195-0.0440063-8.0200195-0.0440063v1.2000122c0.1539917,0,4.3690186-0.085022,4.7940063,0.2749634
	c0.6140137,0.4850464,0.5,0.9810181,0.5,3.5150146v25.4279804c0,3.0720215-0.1920166,3.6090088-2.1119995,3.6090088v1.2449951
	c0,0,3.7659912-0.0859985,6.2229614-0.0859985c5.3780518,0,13.7879639,0.0859985,13.7879639,0.0859985l1.3859863-7.1679688
	h-1.0789795c-0.4630127,2.1369629-0.5759277,2.5389709-0.9580078,3.3839722
	c-0.9649658,1.9160156-2.9609375,1.598999-4.1079102,1.6470032h-4.9219971c-2.802002,0-3.2260132,0.0910034-3.8790283-0.6650085
	c-0.4630127-0.493988-0.4229736-1.743988-0.4229736-5.1229858V23.5993023L172.463562,23.6082745z"/>
<path class="st0" d="M224.9926758,23.6082745c2.5579834,0,5.6219482-0.0029907,5.8319092,0.0350342
	c0.9000244,0.1900024,1.1300049,1.2420044,1.3930664,3.9320068l0.1040039,0.9190063h1.0389404l-0.6240234-7.6669922h-1.0679932
	c0,0.5199585-0.282959,1.0130005-0.7159424,1.0130005c-0.8289795,0-2.4370117-0.0140381-5.9599609,0l-0.0220947-0.0020142v-8.098999
	c0-3.4790039-0.1109619-4.0530396,0.6190186-4.723999c0.3039551-0.269043,1.1900635-0.269043,3.7230225-0.269043
	c2.8430176,0,3.842041,0,4.0739746,0.0480347c1.1550293,0.2709961,1.4580078,2.0720215,1.9589844,6.5700073l0.1149902,1.0199585
	h1.1500244c0,0-0.4229736-4.9689941-0.5739746-6.3880005c-0.0770264-0.5789795-0.1130371-1.0689697-0.0770264-1.3829956
	c0.0400391-0.4899902,0.8210449-0.8039551,1.3990479-0.8039551V6.6093121c0,0-8.4689941,0.0440063-13.5780029,0.0440063
	c-2.684082,0-8.0159912-0.0440063-8.0159912-0.0440063v1.2000122c0.1539307,0,4.3699951-0.085022,4.789917,0.2749634
	c0.6149902,0.4850464,0.5020752,0.9810181,0.5020752,3.5150146v25.4279804c0,3.0720215-0.1950684,3.6090088-2.1099854,3.6090088
	v1.2449951c0,0,3.7579346-0.0859985,6.2199707-0.0859985c5.3740234,0,13.7879639,0.0859985,13.7879639,0.0859985l1.387085-7.1679688
	h-1.0810547c-0.4570313,2.1369629-0.5739746,2.5389709-0.9570313,3.3839722
	c-0.9619141,1.9160156-2.9580078,1.598999-4.112915,1.6470032h-4.9150391c-2.8050537,0-3.2280273,0.0910034-3.8820801-0.6650085
	c-0.4539795-0.493988-0.4229736-1.743988-0.4229736-5.1229858V23.5993023L224.9926758,23.6082745z"/>
<path class="st0" d="M111.8400879,23.6082745c2.5579834,0,5.6289673-0.0029907,5.8319702,0.0350342
	c0.9000244,0.1900024,1.1300049,1.2420044,1.3980103,3.9320068l0.1029663,0.9190063h1.0390015l-0.6229858-7.6669922h-1.072998
	c0,0.5199585-0.2750244,1.0130005-0.7160034,1.0130005c-0.8319702,0-2.4320068-0.0140381-5.9599609,0l-0.019043-0.0020142v-8.098999
	c0-3.4790039-0.1109619-4.0530396,0.6160278-4.723999c0.3039551-0.269043,1.1900024-0.269043,3.7269897-0.269043
	c2.8439941,0,3.8430176,0,4.0700073,0.0480347c1.1549683,0.2709961,1.4580078,2.0720215,1.9630127,6.5700073l0.1109619,1.0199585
	h1.1530151c0,0-0.4229736-4.9689941-0.5720215-6.3880005c-0.0809937-0.5789795-0.1159668-1.0689697-0.0809937-1.3829956
	c0.0390015-0.4899902,0.8240356-0.8039551,1.401001-0.8039551V6.6093121c0,0-8.4719849,0.0440063-13.5759888,0.0440063
	c-2.6890259,0-8.0209961-0.0440063-8.0209961-0.0440063v1.2000122c0.1539917,0,4.3699951-0.085022,4.7929688,0.2749634
	c0.6119995,0.4850464,0.4990234,0.9810181,0.4990234,3.5150146v25.4279804c0,3.0720215-0.1950073,3.6090088-2.1099854,3.6090088
	v1.2449951c0,0,3.7609863-0.0859985,6.2249756-0.0859985c5.3760376,0,13.7860107,0.0859985,13.7860107,0.0859985
	l1.3840332-7.1679688h-1.0770264c-0.4609985,2.1369629-0.5780029,2.5389709-0.9619751,3.3839722
	c-0.9560547,1.9160156-2.9530029,1.598999-4.1090088,1.6470032h-4.9150391c-2.8079834,0-3.2229614,0.0910034-3.8779907-0.6650085
	c-0.4609985-0.493988-0.427002-1.743988-0.427002-5.1229858V23.5993023L111.8400879,23.6082745z"/>
<path class="st0" d="M37.6036987,23.6082745c2.5579834,0,5.6279907-0.0029907,5.8319702,0.0350342
	c0.9030151,0.1900024,1.1300049,1.2420044,1.3950195,3.9320068l0.1029663,0.9190063h1.0390015l-0.6170044-7.6669922h-1.0780029
	c0,0.5199585-0.2730103,1.0130005-0.7119751,1.0130005c-0.8309937,0-2.434021-0.0140381-5.9619751,0l-0.0150146-0.0020142v-8.098999
	c0-3.4790039-0.1170044-4.0530396,0.6109619-4.723999c0.3070068-0.269043,1.1920166-0.269043,3.7280273-0.269043
	c2.8410034,0,3.8430176,0,4.0700073,0.0480347c1.1530151,0.2709961,1.4619751,2.0720215,1.9619751,6.5700073l0.1099854,1.0199585
	h1.1550293c0,0-0.4229736-4.9689941-0.5770264-6.3880005c-0.0769653-0.5789795-0.1119995-1.0689697-0.0769653-1.3829956
	c0.0369873-0.4899902,0.8239746-0.8039551,1.3999634-0.8039551V6.6093121c0,0-8.4660034,0.0440063-13.5739746,0.0440063
	c-2.6900024,0-8.0180054-0.0440063-8.0180054-0.0440063v1.2000122c0.151001,0,4.3690186-0.085022,4.789978,0.2749634
	c0.6150513,0.4850464,0.4990234,0.9810181,0.4990234,3.5150146v25.4279804c0,3.0720215-0.1929932,3.6090088-2.1129761,3.6090088
	v1.2449951c0,0,3.7630005-0.0859985,6.2249756-0.0859985c5.3729858,0,13.7869873,0.0859985,13.7869873,0.0859985
	l1.3850098-7.1679688h-1.0759888c-0.4589844,2.1369629-0.5780029,2.5389709-0.9619751,3.3839722
	c-0.9580078,1.9160156-2.9540405,1.598999-4.1090088,1.6470032h-4.9160156c-2.8060303,0-3.223999,0.0910034-3.8770142-0.6650085
	c-0.4630127-0.493988-0.4229736-1.743988-0.4229736-5.1229858V23.5993023L37.6036987,23.6082745z"/>
<path class="st0" d="M199.6436768,26.7413311l-1.381958-0.0440063v10.6409931c0,3.519989,0.7969971,3.2949829,5.2509766,3.2949829
	v1.2480164c0,0-4.7529297-0.0859985-7.1350098-0.0859985c-1.612915,0-4.1469727,0.0859985-4.1469727,0.0859985v-1.2480164
	c1.9959717,0,2.1099854-0.2630005,2.1099854-3.2949829V11.1083355c0-3.5200195-0.7960205-3.2930298-5.2889404-3.2930298V6.6093121
	c0,0,4.7559814,0.0449829,7.0949707,0.0449829c1.8459473,0,4.723999-0.09198,4.723999-0.09198
	c2.9610596,0,7.7630615-0.3959961,10.3360596,4.4130249c1.5358887,2.940979,1.1899414,7.2649536-0.1940918,10.1969604
	c-1.3399658,2.717041-3.6149902,4.0970459-5.9139404,4.8130493l9.0670166,14.724947
	c2.3499756,4.0760193,3.3739014,6.4030151,5.4320068,7.8860168l-0.4620361,0.8899841
	c-5.1860352-2.7639771-5.4090576-2.8049927-9.0550537-8.6809998l-8.6639404-14.1079731
	C200.8377686,26.7413311,200.100708,26.7413311,199.6436768,26.7413311 M208.6337891,15.7872906
	c-0.1540527-2.8079834-0.7700195-5.0309448-3.4171143-6.5909424c-1.5379639-0.9370117-5.151001-1.3810425-6.2619629-0.6270142
	c-0.6539307,0.4459839-0.6929932,1.2919922-0.6929932,4.9890137v11.0929565c2.3010254,0.4850464,5.4549561,0.3959961,7.4100342-1.25
	C208.2097168,21.397337,208.751709,17.8333111,208.6337891,15.7872906"/>
<polygon class="st1" points="69.1316528,54.626709 66.9506226,69.6247253 66.8926392,69.6247253 64.5926514,54.626709 
	61.5216064,54.626709 65.4855957,75.9317322 68.265625,75.9317322 72.0566406,54.626709 "/>
<path class="st1" d="M90.4828491,54.1982117c5.0479736,0,5.5689697,5.5799866,5.5689697,11.0839844
	c0,5.8730164-1.0349731,11.0840149-5.5689697,11.0840149c-5.0790405,0-5.5970459-5.5859985-5.5970459-11.0840149
	C84.8858032,59.4031982,85.9208374,54.1982117,90.4828491,54.1982117 M90.4828491,73.703186
	c2.0679932,0,2.5009766-3.6469727,2.5009766-9.0829773c0-6.4590149-1.0939941-7.7619934-2.5009766-7.7619934
	c-1.519043,0-2.5240479,2.1429749-2.5240479,8.8880005C87.9588013,70.0562134,88.3588257,73.703186,90.4828491,73.703186"/>
<path class="st1" d="M109.9130249,54.6265869h3.3839722c5.56604,0,7.0900269,5.2969971,7.0900269,10.8270264
	c0,4.54599-1.4039917,10.4779968-6.8619995,10.4779968h-3.6119995V54.6265869z M112.8390503,73.4105835
	c3.4979858,0,4.4779663-3.5799866,4.4779663-8.1549988c0-5.2669983-1.5499878-8.1080017-4.4779663-8.1080017V73.4105835z"/>
<polygon class="st1" points="141.9950562,54.626709 137.3740234,64.2657166 137.3220215,64.2657166 137.3220215,54.626709 
	134.3850098,54.626709 134.3850098,75.9317322 137.3220215,75.9317322 137.3220215,65.3057251 137.3740234,65.3057251 
	142.2230225,75.9317322 145.5010376,75.9317322 140.1020508,64.6197205 145.1520386,54.626709 "/>
<path class="st1" d="M162.2848511,54.6265869l-4.4509888,21.3050232h2.7860107l0.8329468-4.401001h4.6200562l0.8349609,4.401001
	h3.0670166l-4.7590332-21.3050232H162.2848511z M163.7498779,59.4325867h0.0549927l1.8379517,9.7250061h-3.7319946
	L163.7498779,59.4325867z"/>
</svg>
