<?xml version="1.0" encoding="UTF-8" standalone="no"?>
<!-- Created with Inkscape (http://www.inkscape.org/) -->

<svg
   xmlns:dc="http://purl.org/dc/elements/1.1/"
   xmlns:cc="http://creativecommons.org/ns#"
   xmlns:rdf="http://www.w3.org/1999/02/22-rdf-syntax-ns#"
   xmlns:svg="http://www.w3.org/2000/svg"
   xmlns="http://www.w3.org/2000/svg"
   xmlns:sodipodi="http://sodipodi.sourceforge.net/DTD/sodipodi-0.dtd"
   xmlns:inkscape="http://www.inkscape.org/namespaces/inkscape"
   width="153.19853"
   height="69.489311"
   viewBox="0 0 40.533779 18.385713"
   version="1.1"
   id="svg19530"
   inkscape:version="0.92.0 r15299"
   sodipodi:docname="biedronka.svg">
  <defs
     id="defs19524">
    <clipPath
       id="clipPath9612"
       clipPathUnits="userSpaceOnUse">
      <path
         inkscape:connector-curvature="0"
         id="path9610"
         d="m 163.735,408.83 h 114.149 v 51.488 H 163.735 Z" />
    </clipPath>
  </defs>
  <sodipodi:namedview
     id="base"
     pagecolor="#ffffff"
     bordercolor="#666666"
     borderopacity="1.0"
     inkscape:pageopacity="0.0"
     inkscape:pageshadow="2"
     inkscape:zoom="5.2694333"
     inkscape:cx="76.099265"
     inkscape:cy="34.244654"
     inkscape:document-units="mm"
     inkscape:current-layer="layer1"
     showgrid="false"
     fit-margin-top="0"
     fit-margin-left="0"
     fit-margin-right="0"
     fit-margin-bottom="0"
     units="px"
     inkscape:window-width="1280"
     inkscape:window-height="744"
     inkscape:window-x="-4"
     inkscape:window-y="-4"
     inkscape:window-maximized="1" />
  <metadata
     id="metadata19527">
    <rdf:RDF>
      <cc:Work
         rdf:about="">
        <dc:format>image/svg+xml</dc:format>
        <dc:type
           rdf:resource="http://purl.org/dc/dcmitype/StillImage" />
        <dc:title></dc:title>
      </cc:Work>
    </rdf:RDF>
  </metadata>
  <g
     inkscape:label="Layer 1"
     inkscape:groupmode="layer"
     id="layer1"
     transform="translate(43.569122,-139.50819)">
    <g
       id="g9606"
       transform="matrix(0.35277777,0,0,-0.35277777,-101.1989,301.98775)">
      <g
         id="g9608"
         clip-path="url(#clipPath9612)">
        <g
           id="g9614"
           transform="translate(186.0249,411.1566)">
          <path
             d="m 0,0 c -7.57,0 -13.729,6.401 -13.729,14.269 0,7.867 6.159,14.268 13.729,14.268 h 78.13 c 7.571,0 13.729,-6.401 13.729,-14.268 C 91.859,6.401 85.701,0 78.13,0 Z"
             style="fill:#f39200;fill-opacity:1;fill-rule:nonzero;stroke:none"
             id="path9616"
             inkscape:connector-curvature="0" />
        </g>
        <g
           id="g9618"
           transform="translate(186.0249,437.4149)">
          <path
             d="m 0,0 c -6.347,0 -11.319,-5.267 -11.319,-11.989 0,-6.724 4.972,-11.99 11.319,-11.99 h 78.13 c 6.347,0 11.319,5.266 11.319,11.99 C 89.449,-5.267 84.477,0 78.13,0 Z"
             style="fill:#ffed00;fill-opacity:1;fill-rule:nonzero;stroke:none"
             id="path9620"
             inkscape:connector-curvature="0" />
        </g>
        <g
           id="g9622"
           transform="translate(203.756,425.7753)">
          <path
             d="m 0,0 h 0.337 c 0.781,0 2.101,-0.041 2.101,1.077 0,1.226 -1.307,1.105 -2.168,1.105 H 0 Z m 0,4.148 h 0.296 c 0.701,0 1.428,0.121 1.428,0.983 0,0.93 -0.822,0.983 -1.535,0.983 L 0,6.114 Z M -2.64,-2.021 V 8.135 h 3.771 c 1.805,0 3.017,-0.701 3.017,-2.64 0,-0.916 -0.296,-1.657 -1.117,-2.074 V 3.394 C 4.485,3.205 5.104,2.222 5.104,0.808 5.104,-1.32 3.286,-2.021 1.428,-2.021 Z"
             style="fill:#e30613;fill-opacity:1;fill-rule:nonzero;stroke:none"
             id="path9624"
             inkscape:connector-curvature="0" />
        </g>
        <path
           d="m 212.361,423.727 h -2.451 v 6.909 h 2.451 z m 0.149,9.166 c 0,-0.754 -0.62,-1.373 -1.374,-1.373 -0.754,0 -1.374,0.619 -1.374,1.373 0,0.754 0.62,1.374 1.374,1.374 0.754,0 1.374,-0.62 1.374,-1.374"
           style="fill:#e30613;fill-opacity:1;fill-rule:nonzero;stroke:none"
           id="path9626"
           inkscape:connector-curvature="0" />
        <g
           id="g9628"
           transform="translate(218.5294,428.2133)">
          <path
             d="M 0,0 C -0.121,0.66 -0.727,1.091 -1.387,1.091 -2.101,1.091 -2.693,0.713 -2.842,0 Z m 2.276,-1.414 h -5.158 c 0,-0.997 0.525,-1.536 1.535,-1.536 0.525,0 0.903,0.175 1.172,0.633 h 2.357 c -0.189,-0.808 -0.674,-1.4 -1.307,-1.791 -0.632,-0.391 -1.414,-0.579 -2.209,-0.579 -2.289,0 -3.999,1.293 -3.999,3.677 0,2.303 1.575,3.69 3.825,3.69 2.397,0 3.784,-1.482 3.784,-3.839 z"
             style="fill:#e30613;fill-opacity:1;fill-rule:nonzero;stroke:none"
             id="path9630"
             inkscape:connector-curvature="0" />
        </g>
        <g
           id="g9632"
           transform="translate(223.7816,427.2028)">
          <path
             d="m 0,0 c 0,-0.875 0.579,-1.548 1.576,-1.548 0.996,0 1.575,0.673 1.575,1.548 0,0.849 -0.579,1.562 -1.575,1.562 C 0.579,1.562 0,0.849 0,0 M 3.071,-2.68 H 3.043 C 2.612,-3.367 1.764,-3.677 0.956,-3.677 c -2.047,0 -3.488,1.711 -3.488,3.691 0,1.979 1.414,3.676 3.461,3.676 0.795,0 1.63,-0.296 2.142,-0.902 V 6.701 H 5.522 V -3.448 H 3.071 Z"
             style="fill:#e30613;fill-opacity:1;fill-rule:nonzero;stroke:none"
             id="path9634"
             inkscape:connector-curvature="0" />
        </g>
        <g
           id="g9636"
           transform="translate(233.02,429.5327)">
          <path
             d="m 0,0 h 0.027 c 0.471,0.849 1.28,1.226 2.235,1.226 H 2.734 V -1.131 C 2.397,-0.943 2.074,-0.902 1.697,-0.902 0.337,-0.902 0,-1.805 0,-2.99 v -2.788 h -2.451 v 6.91 H 0 Z"
             style="fill:#e30613;fill-opacity:1;fill-rule:nonzero;stroke:none"
             id="path9638"
             inkscape:connector-curvature="0" />
        </g>
        <g
           id="g9640"
           transform="translate(238.474,427.2028)">
          <path
             d="m 0,0 c 0,-0.875 0.579,-1.548 1.576,-1.548 0.996,0 1.575,0.673 1.575,1.548 0,0.849 -0.579,1.562 -1.575,1.562 C 0.579,1.562 0,0.849 0,0 m 5.737,0 c 0,-2.343 -1.939,-3.677 -4.161,-3.677 -2.209,0 -4.162,1.32 -4.162,3.677 0,2.357 1.94,3.69 4.162,3.69 2.222,0 4.161,-1.333 4.161,-3.69"
             style="fill:#e30613;fill-opacity:1;fill-rule:nonzero;stroke:none"
             id="path9642"
             inkscape:connector-curvature="0" />
        </g>
        <g
           id="g9644"
           transform="translate(247.4967,429.7752)">
          <path
             d="m 0,0 h 0.027 c 0.566,0.835 1.253,1.118 2.209,1.118 1.858,0 2.599,-1.172 2.599,-2.869 V -6.02 H 2.384 v 3.367 c 0,0.66 0.108,1.818 -1.104,1.818 C 0.283,-0.835 0,-1.576 0,-2.438 V -6.02 H -2.45 V 0.889 H 0 Z"
             style="fill:#e30613;fill-opacity:1;fill-rule:nonzero;stroke:none"
             id="path9646"
             inkscape:connector-curvature="0" />
        </g>
        <g
           id="g9648"
           transform="translate(256.1296,428.1725)">
          <path
             d="M 0,0 2.546,2.492 H 5.899 L 2.438,-0.7 6.114,-4.418 H 2.68 L 0,-1.603 V -4.418 H -2.451 V 5.687 H 0 Z"
             style="fill:#e30613;fill-opacity:1;fill-rule:nonzero;stroke:none"
             id="path9650"
             inkscape:connector-curvature="0" />
        </g>
        <g
           id="g9652"
           transform="translate(264.7082,427.2028)">
          <path
             d="m 0,0 c 0,-0.875 0.579,-1.548 1.576,-1.548 0.996,0 1.575,0.673 1.575,1.548 0,0.849 -0.579,1.562 -1.575,1.562 C 0.579,1.562 0,0.849 0,0 M 5.522,-3.448 H 3.07 V -2.68 H 3.044 c -0.432,-0.687 -1.28,-0.997 -2.088,-0.997 -2.047,0 -3.488,1.711 -3.488,3.691 0,1.979 1.414,3.676 3.461,3.676 0.795,0 1.63,-0.296 2.141,-0.902 v 0.673 h 2.452 z"
             style="fill:#e30613;fill-opacity:1;fill-rule:nonzero;stroke:none"
             id="path9654"
             inkscape:connector-curvature="0" />
        </g>
        <g
           id="g9656"
           transform="translate(204.5168,420.9831)">
          <path
             d="m 0,0 c -0.276,0.307 -0.695,0.491 -1.12,0.491 -0.952,0 -1.498,-0.798 -1.498,-1.595 0,-0.779 0.567,-1.559 1.491,-1.559 0.425,0 0.851,0.203 1.127,0.491 v -1.073 c -0.371,-0.16 -0.742,-0.276 -1.154,-0.276 -1.431,0 -2.49,1.122 -2.49,2.399 0,1.312 1.019,2.472 2.51,2.472 0.399,0 0.789,-0.099 1.134,-0.271 z"
             style="fill:#000000;fill-opacity:1;fill-rule:nonzero;stroke:none"
             id="path9658"
             inkscape:connector-curvature="0" />
        </g>
        <g
           id="g9660"
           transform="translate(205.9718,419.0872)">
          <path
             d="m 0,0 c 0,-0.405 0.297,-0.841 0.783,-0.841 0.486,0 0.783,0.436 0.783,0.841 0,0.417 -0.297,0.846 -0.783,0.846 C 0.297,0.846 0,0.417 0,0 m 2.524,0 c 0,-0.932 -0.702,-1.601 -1.741,-1.601 -1.039,0 -1.741,0.669 -1.741,1.601 0,0.938 0.708,1.607 1.741,1.607 1.032,0 1.741,-0.669 1.741,-1.607"
             style="fill:#000000;fill-opacity:1;fill-rule:nonzero;stroke:none"
             id="path9662"
             inkscape:connector-curvature="0" />
        </g>
        <g
           id="g9664"
           transform="translate(211.4302,419.0934)">
          <path
             d="m 0,0 c 0,0.405 -0.297,0.84 -0.783,0.84 -0.486,0 -0.783,-0.435 -0.783,-0.84 0,-0.405 0.297,-0.847 0.783,-0.847 C -0.297,-0.847 0,-0.405 0,0 m -0.095,-1.227 h -0.013 c -0.196,-0.245 -0.547,-0.38 -0.891,-0.38 -0.972,0 -1.525,0.803 -1.525,1.62 0,0.797 0.56,1.588 1.512,1.588 0.344,0 0.695,-0.135 0.904,-0.374 h 0.013 V 3.166 H 0.85 v -4.675 h -0.945 z"
             style="fill:#000000;fill-opacity:1;fill-rule:nonzero;stroke:none"
             id="path9666"
             inkscape:connector-curvature="0" />
        </g>
        <g
           id="g9668"
           transform="translate(215.8949,418.3087)">
          <path
             d="m 0,0 v -0.724 h -3.145 l 1.694,2.288 h -1.43 V 2.288 H 0.108 L -1.572,0 Z"
             style="fill:#000000;fill-opacity:1;fill-rule:nonzero;stroke:none"
             id="path9670"
             inkscape:connector-curvature="0" />
        </g>
        <g
           id="g9672"
           transform="translate(220.3315,419.486)">
          <path
             d="M 0,0 C -0.048,0.307 -0.263,0.608 -0.628,0.608 -1.006,0.608 -1.215,0.313 -1.262,0 Z m -1.289,-0.533 c 0,-0.381 0.162,-0.81 0.654,-0.81 0.311,0 0.507,0.171 0.635,0.41 l 0.871,-0.128 c -0.23,-0.602 -0.811,-0.938 -1.506,-0.938 -1.025,0 -1.653,0.662 -1.653,1.576 0,0.914 0.533,1.632 1.606,1.632 1.087,0 1.573,-0.73 1.573,-1.639 v -0.103 z"
             style="fill:#000000;fill-opacity:1;fill-rule:nonzero;stroke:none"
             id="path9674"
             inkscape:connector-curvature="0" />
        </g>
        <g
           id="g9676"
           transform="translate(222.7769,420.3205)">
          <path
             d="m 0,0 h 0.013 c 0.196,0.27 0.527,0.374 0.864,0.374 0.891,0 1.148,-0.57 1.148,-1.27 v -1.84 H 1.08 v 1.595 c 0,0.362 0.02,0.828 -0.513,0.828 C 0.007,-0.313 0,-0.883 0,-1.245 V -2.736 H -0.945 V 0.276 H 0 Z"
             style="fill:#000000;fill-opacity:1;fill-rule:nonzero;stroke:none"
             id="path9678"
             inkscape:connector-curvature="0" />
        </g>
        <g
           id="g9680"
           transform="translate(226.5413,420.3205)">
          <path
             d="m 0,0 h 0.014 c 0.195,0.27 0.526,0.374 0.863,0.374 0.891,0 1.148,-0.57 1.148,-1.27 v -1.84 H 1.079 v 1.595 c 0,0.362 0.021,0.828 -0.512,0.828 C 0.007,-0.313 0,-0.883 0,-1.245 V -2.736 H -0.945 V 0.276 H 0 Z"
             style="fill:#000000;fill-opacity:1;fill-rule:nonzero;stroke:none"
             id="path9682"
             inkscape:connector-curvature="0" />
        </g>
        <g
           id="g9684"
           transform="translate(233.2106,419.486)">
          <path
             d="M 0,0 C -0.047,0.307 -0.263,0.608 -0.628,0.608 -1.005,0.608 -1.214,0.313 -1.262,0 Z m -1.289,-0.533 c 0,-0.381 0.162,-0.81 0.655,-0.81 0.31,0 0.506,0.171 0.634,0.41 l 0.871,-0.128 c -0.23,-0.602 -0.81,-0.938 -1.505,-0.938 -1.026,0 -1.653,0.662 -1.653,1.576 0,0.914 0.532,1.632 1.606,1.632 1.086,0 1.571,-0.73 1.571,-1.639 v -0.103 z"
             style="fill:#000000;fill-opacity:1;fill-rule:nonzero;stroke:none"
             id="path9686"
             inkscape:connector-curvature="0" />
        </g>
        <g
           id="g9688"
           transform="translate(237.9754,420.3205)">
          <path
             d="m 0,0 h 0.013 c 0.196,0.27 0.527,0.374 0.864,0.374 0.891,0 1.147,-0.57 1.147,-1.27 v -1.84 H 1.079 v 1.595 c 0,0.362 0.021,0.828 -0.512,0.828 C 0.007,-0.313 0,-0.883 0,-1.245 V -2.736 H -0.945 V 0.276 H 0 Z"
             style="fill:#000000;fill-opacity:1;fill-rule:nonzero;stroke:none"
             id="path9690"
             inkscape:connector-curvature="0" />
        </g>
        <g
           id="g9692"
           transform="translate(244.2287,419.8848)">
          <path
             d="m 0,0 c -0.135,0.117 -0.311,0.209 -0.5,0.209 -0.155,0 -0.31,-0.111 -0.31,-0.258 0,-0.221 0.344,-0.282 0.681,-0.417 0.344,-0.135 0.682,-0.344 0.682,-0.865 0,-0.669 -0.594,-1.067 -1.289,-1.067 -0.445,0 -0.877,0.184 -1.167,0.502 l 0.432,0.509 c 0.182,-0.183 0.425,-0.349 0.701,-0.349 0.21,0 0.378,0.129 0.378,0.325 0,0.263 -0.33,0.325 -0.661,0.454 -0.331,0.129 -0.661,0.307 -0.661,0.792 0,0.564 0.431,0.975 1.053,0.975 0.35,0 0.795,-0.098 1.066,-0.313 z"
             style="fill:#000000;fill-opacity:1;fill-rule:nonzero;stroke:none"
             id="path9694"
             inkscape:connector-curvature="0" />
        </g>
        <g
           id="g9696"
           transform="translate(246.3431,419.4921)">
          <path
             d="M 0,0 H 0.014 L 1.006,1.105 H 2.234 L 0.837,-0.221 2.342,-1.908 H 1.1 L 0.014,-0.626 H 0 v -1.282 h -0.945 v 4.69 H 0 Z"
             style="fill:#000000;fill-opacity:1;fill-rule:nonzero;stroke:none"
             id="path9698"
             inkscape:connector-curvature="0" />
        </g>
        <g
           id="g9700"
           transform="translate(252.9792,419.486)">
          <path
             d="M 0,0 C -0.048,0.307 -0.263,0.608 -0.628,0.608 -1.006,0.608 -1.215,0.313 -1.262,0 Z m -1.289,-0.533 c 0,-0.381 0.162,-0.81 0.654,-0.81 0.311,0 0.507,0.171 0.635,0.41 l 0.87,-0.128 c -0.229,-0.602 -0.81,-0.938 -1.505,-0.938 -1.025,0 -1.653,0.662 -1.653,1.576 0,0.914 0.533,1.632 1.606,1.632 1.087,0 1.573,-0.73 1.573,-1.639 v -0.103 z"
             style="fill:#000000;fill-opacity:1;fill-rule:nonzero;stroke:none"
             id="path9702"
             inkscape:connector-curvature="0" />
        </g>
        <g
           id="g9704"
           transform="translate(259.0524,419.6763)">
          <path
             d="m 0,0 c -0.202,0.185 -0.405,0.294 -0.695,0.294 -0.533,0 -0.836,-0.454 -0.836,-0.895 0,-0.473 0.33,-0.865 0.87,-0.865 0.256,0 0.492,0.116 0.661,0.288 v -0.828 c -0.256,-0.129 -0.526,-0.184 -0.816,-0.184 -0.979,0 -1.674,0.73 -1.674,1.595 0,0.896 0.722,1.613 1.721,1.613 0.263,0 0.54,-0.061 0.769,-0.19 z"
             style="fill:#000000;fill-opacity:1;fill-rule:nonzero;stroke:none"
             id="path9706"
             inkscape:connector-curvature="0" />
        </g>
        <g
           id="g9708"
           transform="translate(261.8275,419.486)">
          <path
             d="M 0,0 C -0.047,0.307 -0.263,0.608 -0.627,0.608 -1.005,0.608 -1.214,0.313 -1.262,0 Z m -1.289,-0.533 c 0,-0.381 0.162,-0.81 0.655,-0.81 0.31,0 0.506,0.171 0.634,0.41 l 0.871,-0.128 c -0.23,-0.602 -0.81,-0.938 -1.505,-0.938 -1.026,0 -1.653,0.662 -1.653,1.576 0,0.914 0.532,1.632 1.606,1.632 1.086,0 1.572,-0.73 1.572,-1.639 v -0.103 z"
             style="fill:#000000;fill-opacity:1;fill-rule:nonzero;stroke:none"
             id="path9710"
             inkscape:connector-curvature="0" />
        </g>
        <g
           id="g9712"
           transform="translate(264.2734,420.3205)">
          <path
             d="m 0,0 h 0.013 c 0.196,0.27 0.527,0.374 0.864,0.374 0.891,0 1.147,-0.57 1.147,-1.27 v -1.84 H 1.08 v 1.595 c 0,0.362 0.02,0.828 -0.513,0.828 C 0.006,-0.313 0,-0.883 0,-1.245 V -2.736 H -0.945 V 0.276 H 0 Z"
             style="fill:#000000;fill-opacity:1;fill-rule:nonzero;stroke:none"
             id="path9714"
             inkscape:connector-curvature="0" />
        </g>
        <g
           id="g9716"
           transform="translate(266.5437,420.5969)">
          <path
             d="M 0,0 H 1.073 L 1.927,-1.581 2.713,0 H 3.765 L 1.557,-4.139 H 0.574 l 0.834,1.598 z"
             style="fill:#000000;fill-opacity:1;fill-rule:nonzero;stroke:none"
             id="path9718"
             inkscape:connector-curvature="0" />
        </g>
        <path
           d="m 217.439,417.584 h -0.945 v 3.013 h 0.945 z"
           style="fill:#000000;fill-opacity:1;fill-rule:nonzero;stroke:none"
           id="path9720"
           inkscape:connector-curvature="0" />
        <g
           id="g9722"
           transform="translate(217.5411,421.8092)">
          <path
             d="m 0,0 c 0,-0.315 -0.255,-0.569 -0.569,-0.569 -0.314,0 -0.569,0.254 -0.569,0.569 0,0.314 0.255,0.569 0.569,0.569 C -0.255,0.569 0,0.314 0,0"
             style="fill:#000000;fill-opacity:1;fill-rule:nonzero;stroke:none"
             id="path9724"
             inkscape:connector-curvature="0" />
        </g>
        <path
           d="m 230.318,417.584 h -0.944 v 3.013 h 0.944 z"
           style="fill:#000000;fill-opacity:1;fill-rule:nonzero;stroke:none"
           id="path9726"
           inkscape:connector-curvature="0" />
        <g
           id="g9728"
           transform="translate(230.4174,421.8092)">
          <path
             d="m 0,0 c 0,-0.315 -0.255,-0.569 -0.569,-0.569 -0.314,0 -0.569,0.254 -0.569,0.569 0,0.314 0.255,0.569 0.569,0.569 C -0.255,0.569 0,0.314 0,0"
             style="fill:#000000;fill-opacity:1;fill-rule:nonzero;stroke:none"
             id="path9730"
             inkscape:connector-curvature="0" />
        </g>
        <path
           d="m 241.752,417.584 h -0.945 v 3.013 h 0.945 z"
           style="fill:#000000;fill-opacity:1;fill-rule:nonzero;stroke:none"
           id="path9732"
           inkscape:connector-curvature="0" />
        <g
           id="g9734"
           transform="translate(241.8605,421.8092)">
          <path
             d="m 0,0 c 0,-0.315 -0.255,-0.569 -0.569,-0.569 -0.314,0 -0.569,0.254 -0.569,0.569 0,0.314 0.255,0.569 0.569,0.569 C -0.255,0.569 0,0.314 0,0"
             style="fill:#000000;fill-opacity:1;fill-rule:nonzero;stroke:none"
             id="path9736"
             inkscape:connector-curvature="0" />
        </g>
        <path
           d="m 250.087,417.584 h -0.945 v 3.013 h 0.945 z"
           style="fill:#000000;fill-opacity:1;fill-rule:nonzero;stroke:none"
           id="path9738"
           inkscape:connector-curvature="0" />
        <g
           id="g9740"
           transform="translate(250.1913,421.8092)">
          <path
             d="m 0,0 c 0,-0.315 -0.255,-0.569 -0.569,-0.569 -0.314,0 -0.569,0.254 -0.569,0.569 0,0.314 0.255,0.569 0.569,0.569 C -0.255,0.569 0,0.314 0,0"
             style="fill:#000000;fill-opacity:1;fill-rule:nonzero;stroke:none"
             id="path9742"
             inkscape:connector-curvature="0" />
        </g>
        <g
           id="g9744"
           transform="translate(193.589,435.4139)">
          <path
             d="m 0,0 c -2.048,2.713 -4.932,4.763 -8.149,5.805 l 0.041,0.031 -1.101,0.276 c -1.319,0.331 -2.68,0.499 -4.048,0.499 -9.152,0 -16.597,-7.446 -16.597,-16.598 0,-4.513 1.781,-8.735 5.015,-11.886 l 0.706,-0.689 0.216,0.963 c 0.142,0.638 0.356,1.549 0.637,2.637 0.488,-0.453 1.008,-0.871 1.557,-1.252 -0.014,-1.724 0.116,-3.085 0.231,-3.933 l 0.037,-0.276 0.244,-0.134 c 2.426,-1.326 5.176,-2.027 7.954,-2.027 9.152,0 16.597,7.446 16.597,16.597 C 3.34,-6.349 2.185,-2.895 0,0"
             style="fill:#000000;fill-opacity:1;fill-rule:nonzero;stroke:none"
             id="path9746"
             inkscape:connector-curvature="0" />
        </g>
        <g
           id="g9748"
           transform="translate(168.5619,415.3927)">
          <path
             d="m 0,0 c -1.193,1.393 -2.117,2.964 -2.745,4.669 -0.631,1.709 -0.951,3.514 -0.951,5.365 0,4.131 1.609,8.015 4.53,10.937 2.921,2.921 6.806,4.529 10.936,4.529 0.734,0 1.474,-0.052 2.199,-0.155 L 14.382,25.286 14.07,25.009 C 11.031,22.31 5.451,16.343 2.232,6.705 1.358,4.09 0.719,1.659 0.335,0.08 L 0.246,-0.287 Z"
             style="fill:#e30613;fill-opacity:1;fill-rule:nonzero;stroke:none"
             id="path9750"
             inkscape:connector-curvature="0" />
        </g>
        <g
           id="g9752"
           transform="translate(180.332,409.9605)">
          <path
             d="M 0,0 C -2.45,0 -4.891,0.589 -7.059,1.702 L -7.151,1.75 -7.164,1.853 c -0.25,2.209 -0.56,8.044 1.964,14.504 2.89,7.398 7.871,12.087 9.878,13.76 l 0.083,0.068 0.102,-0.033 c 2.952,-0.979 5.612,-2.889 7.491,-5.38 2.036,-2.698 3.112,-5.915 3.112,-9.305 0,-4.131 -1.608,-8.016 -4.53,-10.937 C 8.016,1.609 4.131,0 0,0"
             style="fill:#e30613;fill-opacity:1;fill-rule:nonzero;stroke:none"
             id="path9754"
             inkscape:connector-curvature="0" />
        </g>
        <g
           id="g9756"
           transform="translate(166.3079,422.4978)">
          <path
             d="m 0,0 c 0,8.451 6.069,15.483 14.087,16.977 l -0.455,0.734 c 0,0 -8.273,-0.628 -12.262,-7.313 C -0.732,6.874 -0.572,2.883 0,-0.003 Z"
             style="fill:#ffffff;fill-opacity:1;fill-rule:nonzero;stroke:none"
             id="path9758"
             inkscape:connector-curvature="0" />
        </g>
        <g
           id="g9760"
           transform="translate(177.6763,412.6755)">
          <path
             d="m 0,0 c -1.592,0 -3.14,0.186 -4.624,0.537 0.031,-0.558 0.075,-1.03 0.116,-1.4 l 0.012,-0.102 0.092,-0.047 c 2.169,-1.114 4.61,-1.703 7.06,-1.703 4.131,0 8.015,1.609 10.936,4.53 2.567,2.567 4.12,5.877 4.459,9.444 C 14.781,4.591 7.927,0 0,0"
             style="fill:#9c1006;fill-opacity:1;fill-rule:nonzero;stroke:none"
             id="path9762"
             inkscape:connector-curvature="0" />
        </g>
        <g
           id="g9764"
           transform="translate(192.6863,434.733)">
          <path
             d="M 0,0 C -1.88,2.49 -4.54,4.4 -7.491,5.379 L -7.593,5.413 -7.676,5.344 c -0.726,-0.605 -1.842,-1.607 -3.106,-2.986 1.783,-3.002 5.059,-5.019 8.798,-5.019 1.163,0 2.281,0.195 3.324,0.555 C 0.954,-1.376 0.507,-0.672 0,0"
             style="fill:#c00d0e;fill-opacity:1;fill-rule:nonzero;stroke:none"
             id="path9766"
             inkscape:connector-curvature="0" />
        </g>
        <g
           id="g9768"
           transform="translate(184.878,425.9257)">
          <path
             d="m 0,0 c 0,-1.98 -1.605,-3.586 -3.585,-3.586 -1.981,0 -3.586,1.606 -3.586,3.586 0,1.981 1.605,3.586 3.586,3.586 C -1.605,3.586 0,1.981 0,0"
             style="fill:#000000;fill-opacity:1;fill-rule:nonzero;stroke:none"
             id="path9770"
             inkscape:connector-curvature="0" />
        </g>
        <g
           id="g9772"
           transform="translate(186.2062,415.4313)">
          <path
             d="m 0,0 c 0,-1.504 -1.605,-2.724 -3.585,-2.724 -1.981,0 -3.586,1.22 -3.586,2.724 0,1.503 1.605,2.723 3.586,2.723 C -1.605,2.723 0,1.503 0,0"
             style="fill:#000000;fill-opacity:1;fill-rule:nonzero;stroke:none"
             id="path9774"
             inkscape:connector-curvature="0" />
        </g>
        <g
           id="g9776"
           transform="translate(194.231,423.7556)">
          <path
             d="m 0,0 c 0.794,-0.38 0.793,-2.035 -0.003,-3.695 -0.795,-1.66 -2.084,-2.699 -2.878,-2.318 -0.795,0.381 -0.793,2.036 0.003,3.695 C -2.083,-0.657 -0.794,0.381 0,0"
             style="fill:#000000;fill-opacity:1;fill-rule:nonzero;stroke:none"
             id="path9778"
             inkscape:connector-curvature="0" />
        </g>
        <g
           id="g9780"
           transform="translate(173.0811,430.3501)">
          <path
             d="m 0,0 c -1.235,-1.446 -3.137,-1.848 -4.248,-0.899 -1.111,0.948 -1.01,2.889 0.226,4.335 1.234,1.446 3.137,1.849 4.247,0.9 C 1.336,3.388 1.235,1.446 0,0"
             style="fill:#000000;fill-opacity:1;fill-rule:nonzero;stroke:none"
             id="path9782"
             inkscape:connector-curvature="0" />
        </g>
        <g
           id="g9784"
           transform="translate(174.4538,437.2497)">
          <path
             d="M 0,0 C -1.295,-0.549 -2.531,-0.555 -2.761,-0.013 -2.99,0.529 -2.127,1.413 -0.833,1.961 0.462,2.51 1.699,2.516 1.928,1.974 2.158,1.432 1.295,0.549 0,0"
             style="fill:#000000;fill-opacity:1;fill-rule:nonzero;stroke:none"
             id="path9786"
             inkscape:connector-curvature="0" />
        </g>
        <g
           id="g9788"
           transform="translate(167.1701,424.3344)">
          <path
             d="m 0,0 c 0.09,-1.687 -0.306,-3.08 -0.884,-3.11 -0.577,-0.032 -1.118,1.311 -1.208,2.999 -0.09,1.687 0.306,3.079 0.883,3.109 C -0.63,3.03 -0.09,1.688 0,0"
             style="fill:#000000;fill-opacity:1;fill-rule:nonzero;stroke:none"
             id="path9790"
             inkscape:connector-curvature="0" />
        </g>
        <g
           id="g9792"
           transform="translate(192.6508,431.4556)">
          <path
             d="m 0,0 c 0.311,-1.335 -0.227,-2.602 -1.203,-2.831 -0.976,-0.228 -2.02,0.67 -2.331,2.006 -0.312,1.335 0.226,2.603 1.202,2.83 C -1.356,2.234 -0.311,1.336 0,0"
             style="fill:#000000;fill-opacity:1;fill-rule:nonzero;stroke:none"
             id="path9794"
             inkscape:connector-curvature="0" />
        </g>
        <g
           id="g9796"
           transform="translate(189.4454,455.5844)">
          <path
             d="m 0,0 c -0.702,0 -1.388,-0.07 -2.052,-0.198 0.091,0.603 0.338,1.391 0.937,2.279 0.696,1.03 1.927,1.389 2.357,1.486 C 1.255,3.502 1.274,3.438 1.303,3.375 1.506,2.939 2.024,2.75 2.459,2.953 2.896,3.156 3.085,3.674 2.881,4.11 2.679,4.545 2.161,4.734 1.724,4.531 1.502,4.428 1.346,4.243 1.271,4.029 0.915,4.001 -0.686,3.78 -2.097,2.023 -2.759,1.199 -3.037,0.26 -3.149,-0.47 c -1.599,-0.489 -3.037,-1.344 -4.226,-2.461 -0.33,0.477 -0.787,1.063 -1.384,1.672 -1.033,1.051 -2.142,1.468 -2.672,1.617 10e-4,0.045 10e-4,0.091 -0.007,0.137 -0.072,0.476 -0.515,0.803 -0.991,0.731 -0.475,-0.072 -0.801,-0.516 -0.73,-0.991 0.071,-0.475 0.515,-0.803 0.991,-0.73 0.224,0.034 0.414,0.153 0.546,0.317 0.389,-0.169 1.2,-0.622 2.17,-1.73 0.586,-0.67 1.001,-1.32 1.285,-1.846 -1.63,-1.89 -2.62,-4.348 -2.62,-7.034 0,-5.949 4.838,-10.788 10.787,-10.788 5.949,0 10.789,4.839 10.789,10.788 C 10.789,-4.84 5.949,0 0,0"
             style="fill:#000000;fill-opacity:1;fill-rule:nonzero;stroke:none"
             id="path9798"
             inkscape:connector-curvature="0" />
        </g>
        <g
           id="g9800"
           transform="translate(199.0434,444.7856)">
          <path
             d="m 0,0 c 0,-5.311 -4.305,-9.616 -9.616,-9.616 -5.311,0 -9.615,4.305 -9.615,9.616 0,5.31 4.304,9.615 9.615,9.615 C -4.305,9.615 0,5.31 0,0"
             style="fill:#ffffff;fill-opacity:1;fill-rule:nonzero;stroke:none"
             id="path9802"
             inkscape:connector-curvature="0" />
        </g>
        <g
           id="g9804"
           transform="translate(195.9754,442.3919)">
          <path
             d="m 0,0 c 0.139,-0.54 -0.301,-1.12 -0.982,-1.296 -0.682,-0.175 -1.347,0.121 -1.486,0.662 -0.139,0.539 0.301,1.12 0.982,1.294 C -0.804,0.836 -0.139,0.54 0,0"
             style="fill:#000000;fill-opacity:1;fill-rule:nonzero;stroke:none"
             id="path9806"
             inkscape:connector-curvature="0" />
        </g>
        <g
           id="g9808"
           transform="translate(195.77,442.403)">
          <path
             d="m 0,0 c 0.096,-0.375 -0.265,-0.791 -0.808,-0.931 -0.542,-0.139 -1.06,0.051 -1.156,0.426 -0.096,0.374 0.265,0.791 0.808,0.93 C -0.614,0.565 -0.097,0.375 0,0"
             style="fill:#e30613;fill-opacity:1;fill-rule:nonzero;stroke:none"
             id="path9810"
             inkscape:connector-curvature="0" />
        </g>
        <g
           id="g9812"
           transform="translate(194.8552,442.439)">
          <path
             d="m 0,0 c 0.038,-0.147 -0.088,-0.307 -0.278,-0.357 -0.193,-0.049 -0.379,0.032 -0.417,0.178 -0.038,0.148 0.087,0.308 0.279,0.357 C -0.224,0.227 -0.038,0.148 0,0"
             style="fill:#ffffff;fill-opacity:1;fill-rule:nonzero;stroke:none"
             id="path9814"
             inkscape:connector-curvature="0" />
        </g>
        <g
           id="g9816"
           transform="translate(183.6309,441.0846)">
          <path
             d="m 0,0 c 0.194,0.236 0.361,0.334 0.361,0.334 0,0 0.86,-4.208 4.727,-4.871 5.729,-0.981 6.923,3.889 6.923,3.889 l 0.663,0.551 c 0,0 -3.462,-1.278 -6.463,-1.192 -3.002,0.086 -5.289,2.03 -5.289,2.03 0,0 0.115,0.091 0.375,0.191 0.259,0.1 0.672,0.151 0.672,0.151 0,0 -1.09,0.107 -1.731,-0.299 -0.641,-0.406 -0.598,-1.325 -0.598,-1.325 0,0 0.165,0.305 0.36,0.541"
             style="fill:#000000;fill-opacity:1;fill-rule:nonzero;stroke:none"
             id="path9818"
             inkscape:connector-curvature="0" />
        </g>
        <g
           id="g9820"
           transform="translate(185.6127,439.3096)">
          <path
             d="m 0,0 c 0,0 1.741,0.077 2.254,-0.617 0.514,-0.694 0.645,-0.957 0.645,-0.957 0,0 -0.235,0.624 -0.214,0.624 0.02,0 0.922,0.006 1.297,-0.43 0.374,-0.438 0.506,-1.027 0.506,-1.027 0,0 -1.671,-0.139 -2.837,0.576 C 0.364,-1.042 0,0 0,0"
             style="fill:#e30613;fill-opacity:1;fill-rule:nonzero;stroke:none"
             id="path9822"
             inkscape:connector-curvature="0" />
        </g>
        <g
           id="g9824"
           transform="translate(189.2839,446.149)">
          <path
             d="M 0,0 C -0.495,1.445 -1.398,2.445 -2.017,2.234 -2.135,2.193 -2.233,2.112 -2.313,1.998 c 0.24,-0.388 0.601,-0.96 0.601,-0.96 l -0.84,0.07 c -0.026,-0.53 0.073,-1.19 0.308,-1.876 0.495,-1.444 1.398,-2.445 2.017,-2.233 C 0.393,-2.789 0.494,-1.445 0,0"
             style="fill:#000000;fill-opacity:1;fill-rule:nonzero;stroke:none"
             id="path9826"
             inkscape:connector-curvature="0" />
        </g>
        <g
           id="g9828"
           transform="translate(195.7106,448.0179)">
          <path
             d="M 0,0 C -0.569,1.272 -1.384,2.146 -1.819,1.951 -1.89,1.919 -1.945,1.858 -1.988,1.777 -1.754,1.397 -1.324,0.715 -1.324,0.715 l -0.716,0.06 c 0.072,-0.436 0.228,-0.95 0.465,-1.48 0.571,-1.272 1.385,-2.146 1.821,-1.95 C 0.681,-2.461 0.57,-1.272 0,0"
             style="fill:#000000;fill-opacity:1;fill-rule:nonzero;stroke:none"
             id="path9830"
             inkscape:connector-curvature="0" />
        </g>
      </g>
    </g>
  </g>
</svg>
