<?xml version="1.0" encoding="UTF-8"?>
<!-- Generator: Adobe Illustrator 24.2.3, SVG Export Plug-In . SVG Version: 6.00 Build 0)  -->
<svg version="1.1" id="Layer_1" xmlns="http://www.w3.org/2000/svg" xmlns:xlink="http://www.w3.org/1999/xlink" x="0px" y="0px" viewBox="0 0 490 109" style="enable-background:new 0 0 490 109;" xml:space="preserve">
<style type="text/css">
	.st0{fill:#1D1D1B;}
	.st1{fill:#00A3A5;}
</style>
<g>
	<path class="st0" d="M32.5,81.7C10.9,81.7,1,68.3,1,42.9C1,18.5,11.1,3.1,33.6,3.1c8.1,0,13.7,1.2,19,3.6l-0.2,21.4   c-5.4-3.4-9.1-5.3-14.5-5.3c-7.8,0-14.1,6.5-14.2,18.8c-0.1,12.7,2.3,19.2,8.3,19.2c3,0,5.2-1.2,5.4-5.2v-4.6h-6L31,34.7h28.2v25.2   C57.9,77.1,43.6,81.7,32.5,81.7L32.5,81.7z"/>
	<polygon class="st0" points="99.7,80.4 99.8,50.7 88.5,50.7 88.3,80.4 66.7,80.4 66.7,4.3 88.3,4.3 88.3,32.2 99.7,32.2 99.7,4.3    122,4.3 122,80.4 99.7,80.4  "/>
	<polygon class="st0" points="129.4,80.4 129.4,4.3 170.7,4.3 170.7,22.9 153.1,22.9 153.1,32.5 170.8,32.5 170.8,50.9 153.1,50.9    153.1,62.2 170.8,62.2 170.8,80.4 129.4,80.4  "/>
	<polygon class="st0" points="178.3,80.4 178.3,4.3 200.8,4.3 200.8,61.5 218.2,61.5 218.2,80.4 178.3,80.4  "/>
	<path class="st0" d="M222.7,80.5l14.9-76.2h32.5l15.1,76.2h-22.9l-1.8-12h-13.3l-3.4,12H222.7L222.7,80.5z M249.6,50h8.4l-4.4-22.4   L249.6,50L249.6,50z"/>
	<polygon class="st0" points="343,80.4 342.9,47.1 335.1,80.4 319.7,80.4 312.4,47.1 311.7,80.4 289.7,80.4 289.8,4.3 320.2,4.3    327.7,38.9 334.9,4.3 365.4,4.3 365.2,80.4 343,80.4  "/>
	<path class="st0" d="M399.4,80.6c-19.7,0-30.4-13.5-30.4-38.6c0-24.6,12.7-40.7,31.4-40.7c7.4,0,11.3,1.1,15.9,3.4l0.1,21.2   c-4.1-2.6-6.8-4.2-10.9-4.2c-6.4,0-12.6,5.5-12.9,20.1c-0.2,9.9,3.2,17.2,11.6,17.2c2.8,0,9.2-1.2,12.4-5.5l0.9,22.7   C411.8,78.6,406.1,80.6,399.4,80.6L399.4,80.6z"/>
	<path class="st0" d="M454.3,80.4c-19.6,0-33-17.6-33.2-38.8C420.8,17.1,435.5,1,455.1,1c19.4,0,32.6,16.6,32.9,40   C488.3,63.2,473.7,80.4,454.3,80.4L454.3,80.4z M454,22.8c-3.1,0-10.5,3.2-10.4,18.7c0.1,14.4,8.2,16.8,10.7,16.7   c2.5-0.1,9.5-2.8,9.5-17.2C463.8,26.4,456.5,22.8,454,22.8L454,22.8z"/>
	<path class="st1" d="M445.6,107.6c-1,0-1.8-0.2-2.6-0.5c-0.7-0.4-1.3-0.8-1.8-1.4c-0.5-0.6-0.8-1.3-1.1-2c-0.2-0.8-0.4-1.6-0.4-2.4   c0-0.9,0.1-1.7,0.4-2.4c0.2-0.8,0.6-1.5,1.1-2.1c0.5-0.6,1.1-1.1,1.8-1.4c0.7-0.4,1.6-0.5,2.6-0.5c1,0,1.8,0.2,2.5,0.5   c0.7,0.4,1.3,0.8,1.8,1.4c0.5,0.6,0.8,1.3,1.1,2.1c0.2,0.8,0.4,1.6,0.4,2.4c0,0.9-0.1,1.7-0.4,2.4c-0.2,0.8-0.6,1.5-1.1,2   c-0.5,0.6-1.1,1.1-1.8,1.4C447.4,107.4,446.5,107.6,445.6,107.6 M440.9,101.2L440.9,101.2c0,0.7,0.1,1.3,0.3,2   c0.2,0.7,0.5,1.2,0.8,1.7c0.4,0.5,0.9,0.9,1.4,1.2c0.6,0.3,1.3,0.5,2.1,0.5c0.8,0,1.5-0.2,2.1-0.5c0.6-0.3,1.1-0.7,1.4-1.2   c0.4-0.5,0.7-1.1,0.8-1.7c0.2-0.7,0.3-1.3,0.3-2l0,0l0,0c0-0.7-0.1-1.3-0.3-2c-0.2-0.6-0.5-1.2-0.8-1.7c-0.4-0.5-0.9-0.9-1.4-1.2   c-0.6-0.3-1.3-0.5-2.1-0.5c-0.8,0-1.5,0.2-2.1,0.5c-0.6,0.3-1.1,0.7-1.4,1.2c-0.4,0.5-0.7,1.1-0.8,1.7   C441,99.8,440.9,100.5,440.9,101.2L440.9,101.2 M369.4,107.6c-0.5,0-1-0.1-1.5-0.2c-0.5-0.2-0.9-0.4-1.2-0.7   c-0.3-0.3-0.6-0.6-0.8-1.1c-0.2-0.4-0.3-0.9-0.3-1.5c0-0.4,0.1-0.8,0.3-1.2c0.2-0.4,0.4-0.7,0.7-1c0.3-0.3,0.6-0.6,1-0.8   c0.4-0.2,0.7-0.5,1.1-0.6l0,0l0,0c-0.2-0.2-0.3-0.4-0.5-0.7c-0.2-0.2-0.3-0.5-0.5-0.7c-0.1-0.2-0.3-0.5-0.4-0.8   c-0.1-0.3-0.1-0.5-0.1-0.8c0-0.4,0.1-0.7,0.2-1c0.1-0.3,0.3-0.6,0.6-0.8c0.2-0.2,0.5-0.4,0.9-0.5c0.3-0.1,0.7-0.2,1.1-0.2   c0.4,0,0.7,0.1,1.1,0.2c0.3,0.1,0.6,0.3,0.9,0.5c0.2,0.2,0.4,0.5,0.6,0.8c0.1,0.3,0.2,0.6,0.2,1c0,0.4-0.1,0.7-0.2,1   c-0.1,0.3-0.3,0.6-0.5,0.8c-0.2,0.3-0.5,0.5-0.8,0.7s-0.6,0.4-0.9,0.6l0,0l0,0l2.7,3.3c0.2-0.3,0.2-0.6,0.3-0.9   c0-0.3,0.1-0.7,0.1-1.2h1.1c0,0.3,0,0.8-0.1,1.3c-0.1,0.5-0.3,1.1-0.6,1.6l0,0l0,0l2.1,2.5h-1.4l-1.3-1.6c-0.4,0.6-1,1-1.6,1.3   C370.8,107.4,370.1,107.6,369.4,107.6 M366.8,104.3L366.8,104.3c0,0.4,0.1,0.7,0.2,1c0.1,0.3,0.3,0.6,0.6,0.8   c0.2,0.2,0.5,0.4,0.9,0.5c0.3,0.1,0.7,0.2,1,0.2c0.6,0,1.2-0.2,1.7-0.5c0.5-0.3,0.9-0.8,1.3-1.3l0,0l0,0l-3.1-3.7   c-0.3,0.2-0.6,0.3-0.9,0.5c-0.3,0.2-0.6,0.4-0.8,0.7c-0.2,0.3-0.4,0.5-0.6,0.8C366.8,103.6,366.8,103.9,366.8,104.3L366.8,104.3    M368.3,97.5L368.3,97.5c0,0.2,0,0.4,0.1,0.7c0.1,0.2,0.2,0.4,0.3,0.7c0.1,0.2,0.3,0.4,0.4,0.6c0.2,0.2,0.3,0.4,0.4,0.5   c0.2-0.1,0.4-0.3,0.7-0.4c0.2-0.2,0.4-0.3,0.6-0.5c0.2-0.2,0.3-0.4,0.4-0.7c0.1-0.2,0.2-0.5,0.2-0.8l0,0l0,0c0-0.5-0.2-0.9-0.5-1.2   c-0.3-0.3-0.7-0.4-1.2-0.4c-0.4,0-0.8,0.1-1.2,0.4C368.4,96.6,368.3,97,368.3,97.5L368.3,97.5 M339.4,107.6c-1,0-1.8-0.2-2.6-0.5   c-0.7-0.4-1.3-0.8-1.8-1.4c-0.5-0.6-0.8-1.3-1.1-2c-0.2-0.8-0.4-1.6-0.4-2.4c0-0.9,0.1-1.7,0.4-2.4c0.2-0.8,0.6-1.5,1.1-2.1   c0.5-0.6,1.1-1.1,1.8-1.4c0.7-0.4,1.6-0.5,2.6-0.5c1,0,1.8,0.2,2.5,0.5c0.7,0.4,1.3,0.8,1.8,1.4c0.5,0.6,0.8,1.3,1.1,2.1   c0.2,0.8,0.4,1.6,0.4,2.4c0,0.9-0.1,1.7-0.4,2.4c-0.2,0.8-0.6,1.5-1.1,2c-0.5,0.6-1.1,1.1-1.8,1.4   C341.3,107.4,340.4,107.6,339.4,107.6 M334.8,101.2L334.8,101.2c0,0.7,0.1,1.3,0.3,2c0.2,0.7,0.5,1.2,0.8,1.7   c0.4,0.5,0.9,0.9,1.4,1.2c0.6,0.3,1.3,0.5,2.1,0.5c0.8,0,1.5-0.2,2.1-0.5c0.6-0.3,1.1-0.7,1.4-1.2c0.4-0.5,0.7-1.1,0.8-1.7   c0.2-0.7,0.3-1.3,0.3-2l0,0l0,0c0-0.7-0.1-1.3-0.3-2c-0.2-0.6-0.5-1.2-0.8-1.7c-0.4-0.5-0.9-0.9-1.4-1.2c-0.6-0.3-1.3-0.5-2.1-0.5   c-0.8,0-1.5,0.2-2.1,0.5c-0.6,0.3-1.1,0.7-1.4,1.2c-0.4,0.5-0.7,1.1-0.8,1.7C334.9,99.8,334.8,100.5,334.8,101.2L334.8,101.2    M316.7,107.6c-0.7,0-1.4-0.1-2-0.3c-0.6-0.2-1.2-0.4-1.6-0.8c-0.4-0.3-0.8-0.8-1-1.3c-0.2-0.5-0.3-1-0.3-1.7c0-0.1,0-0.2,0-0.3   h1.2c0,0,0,0.1,0,0.1c0,0.6,0.1,1.1,0.3,1.5c0.2,0.4,0.5,0.8,0.9,1c0.4,0.3,0.8,0.4,1.3,0.5c0.5,0.1,1,0.2,1.6,0.2   c0.3,0,0.7,0,1.1-0.1c0.4-0.1,0.7-0.2,1.1-0.4c0.3-0.2,0.6-0.5,0.8-0.8c0.2-0.3,0.3-0.7,0.3-1.2l0,0l0,0c0-0.3-0.1-0.6-0.2-0.9   c-0.2-0.3-0.4-0.5-0.6-0.6c-0.2-0.2-0.5-0.3-0.8-0.4c-0.3-0.1-0.6-0.2-0.9-0.3l-2.8-0.7c-0.4-0.1-0.7-0.2-1-0.3   c-0.3-0.1-0.6-0.3-0.9-0.6c-0.3-0.2-0.5-0.5-0.6-0.8c-0.2-0.3-0.2-0.7-0.2-1.2c0-0.3,0.1-0.7,0.2-1.1c0.1-0.4,0.3-0.8,0.6-1.1   c0.3-0.4,0.8-0.7,1.3-0.9c0.6-0.2,1.3-0.4,2.1-0.4c0.6,0,1.2,0.1,1.7,0.2c0.6,0.2,1,0.4,1.5,0.7c0.4,0.3,0.7,0.7,1,1.2   c0.2,0.5,0.4,1,0.4,1.7h-1.2c0-0.5-0.1-0.9-0.3-1.2c-0.2-0.4-0.4-0.6-0.7-0.9s-0.7-0.4-1.1-0.5c-0.4-0.1-0.8-0.2-1.3-0.2   c-0.4,0-0.8,0-1.2,0.1c-0.4,0.1-0.7,0.2-1,0.4c-0.3,0.2-0.5,0.4-0.7,0.8c-0.2,0.3-0.3,0.7-0.3,1.2l0,0l0,0c0,0.3,0,0.5,0.1,0.8   c0.1,0.2,0.2,0.4,0.4,0.5c0.2,0.2,0.4,0.3,0.6,0.4c0.2,0.1,0.5,0.2,0.7,0.2l3,0.7c0.4,0.1,0.9,0.3,1.2,0.4c0.4,0.2,0.7,0.4,1,0.6   c0.3,0.2,0.5,0.6,0.7,0.9c0.2,0.4,0.3,0.8,0.3,1.3c0,0.1,0,0.3,0,0.6c0,0.2-0.1,0.5-0.2,0.7s-0.3,0.5-0.5,0.8   c-0.2,0.3-0.5,0.5-0.8,0.7c-0.4,0.2-0.8,0.4-1.3,0.5C318,107.5,317.4,107.6,316.7,107.6 M216.8,107.6c-0.7,0-1.4-0.1-2-0.3   c-0.6-0.2-1.2-0.4-1.6-0.8c-0.4-0.3-0.8-0.8-1-1.3c-0.2-0.5-0.3-1-0.3-1.7c0-0.1,0-0.2,0-0.3h1.2c0,0,0,0.1,0,0.1   c0,0.6,0.1,1.1,0.3,1.5c0.2,0.4,0.5,0.8,0.9,1c0.4,0.3,0.8,0.4,1.3,0.5c0.5,0.1,1,0.2,1.6,0.2c0.3,0,0.7,0,1.1-0.1   c0.4-0.1,0.7-0.2,1.1-0.4c0.3-0.2,0.6-0.5,0.8-0.8c0.2-0.3,0.3-0.7,0.3-1.2l0,0l0,0c0-0.3-0.1-0.6-0.2-0.9   c-0.2-0.3-0.4-0.5-0.6-0.6c-0.2-0.2-0.5-0.3-0.8-0.4c-0.3-0.1-0.6-0.2-0.9-0.3l-2.8-0.7c-0.4-0.1-0.7-0.2-1-0.3   c-0.3-0.1-0.6-0.3-0.9-0.6c-0.3-0.2-0.5-0.5-0.6-0.8c-0.2-0.3-0.2-0.7-0.2-1.2c0-0.3,0.1-0.7,0.2-1.1c0.1-0.4,0.3-0.8,0.6-1.1   c0.3-0.4,0.8-0.7,1.3-0.9c0.6-0.2,1.3-0.4,2.1-0.4c0.6,0,1.2,0.1,1.7,0.2c0.6,0.2,1,0.4,1.5,0.7c0.4,0.3,0.7,0.7,1,1.2   c0.2,0.5,0.4,1,0.4,1.7H220c0-0.5-0.1-0.9-0.3-1.2c-0.2-0.4-0.4-0.6-0.7-0.9c-0.3-0.2-0.7-0.4-1.1-0.5c-0.4-0.1-0.8-0.2-1.3-0.2   c-0.4,0-0.8,0-1.2,0.1c-0.4,0.1-0.7,0.2-1,0.4c-0.3,0.2-0.5,0.4-0.7,0.8c-0.2,0.3-0.3,0.7-0.3,1.2l0,0l0,0c0,0.3,0,0.5,0.1,0.8   c0.1,0.2,0.2,0.4,0.4,0.5c0.2,0.2,0.4,0.3,0.6,0.4c0.2,0.1,0.5,0.2,0.7,0.2l3,0.7c0.4,0.1,0.9,0.3,1.2,0.4c0.4,0.2,0.7,0.4,1,0.6   c0.3,0.2,0.5,0.6,0.7,0.9c0.2,0.4,0.3,0.8,0.3,1.3c0,0.1,0,0.3,0,0.6c0,0.2-0.1,0.5-0.2,0.7c-0.1,0.3-0.3,0.5-0.5,0.8   c-0.2,0.3-0.5,0.5-0.8,0.7c-0.4,0.2-0.8,0.4-1.3,0.5C218.2,107.5,217.6,107.6,216.8,107.6 M99.3,107.6c-1,0-1.8-0.2-2.6-0.5   c-0.7-0.4-1.3-0.8-1.8-1.4c-0.5-0.6-0.8-1.3-1.1-2c-0.2-0.8-0.4-1.6-0.4-2.4c0-0.9,0.1-1.7,0.4-2.4c0.2-0.8,0.6-1.5,1.1-2.1   c0.5-0.6,1.1-1.1,1.8-1.4c0.7-0.4,1.6-0.5,2.6-0.5s1.8,0.2,2.5,0.5c0.7,0.4,1.3,0.8,1.8,1.4c0.5,0.6,0.8,1.3,1.1,2.1   c0.2,0.8,0.4,1.6,0.4,2.4c0,0.9-0.1,1.7-0.4,2.4c-0.2,0.8-0.6,1.5-1.1,2c-0.5,0.6-1.1,1.1-1.8,1.4   C101.2,107.4,100.3,107.6,99.3,107.6 M94.7,101.2L94.7,101.2c0,0.7,0.1,1.3,0.3,2c0.2,0.7,0.5,1.2,0.8,1.7c0.4,0.5,0.9,0.9,1.4,1.2   c0.6,0.3,1.3,0.5,2.1,0.5c0.8,0,1.5-0.2,2.1-0.5s1.1-0.7,1.4-1.2c0.4-0.5,0.7-1.1,0.8-1.7c0.2-0.7,0.3-1.3,0.3-2l0,0l0,0   c0-0.7-0.1-1.3-0.3-2c-0.2-0.6-0.5-1.2-0.8-1.7c-0.4-0.5-0.9-0.9-1.4-1.2c-0.6-0.3-1.3-0.5-2.1-0.5c-0.8,0-1.5,0.2-2.1,0.5   c-0.6,0.3-1.1,0.7-1.4,1.2c-0.4,0.5-0.7,1.1-0.8,1.7C94.8,99.8,94.7,100.5,94.7,101.2L94.7,101.2 M486.9,107.4h-1.3   c-0.1-0.1-0.1-0.3-0.2-0.4c0-0.2-0.1-0.3-0.1-0.5c0-0.2,0-0.4,0-0.5c0-0.2,0-0.3,0-0.4c0-0.4-0.1-0.9-0.1-1.3   c-0.1-0.4-0.2-0.8-0.3-1.2c-0.2-0.3-0.4-0.6-0.7-0.8c-0.3-0.2-0.7-0.3-1.1-0.3c-0.1,0-0.1,0-0.2,0h-4.5v5.5h-1.2V95h5.7   c0.5,0,1,0.1,1.4,0.2c0.5,0.1,0.9,0.3,1.2,0.6c0.3,0.3,0.6,0.6,0.8,1c0.2,0.4,0.3,0.9,0.3,1.4c0,0.8-0.2,1.5-0.6,2   c-0.4,0.6-1,0.9-1.8,1.1v0l0,0c0.4,0.1,0.7,0.2,1,0.3c0.3,0.2,0.5,0.4,0.7,0.6c0.2,0.2,0.3,0.5,0.4,0.8c0.1,0.3,0.1,0.7,0.1,1   c0,0.2,0,0.5,0,0.8c0,0.3,0,0.6,0.1,0.9c0,0.3,0.1,0.6,0.2,0.9C486.7,107,486.8,107.2,486.9,107.4 M478.4,100.9L478.4,100.9h4.4   c0.4,0,0.7-0.1,1-0.2c0.3-0.1,0.6-0.3,0.9-0.5c0.2-0.2,0.4-0.5,0.6-0.8c0.1-0.3,0.2-0.6,0.2-1l0,0l0,0c0-0.8-0.2-1.4-0.7-1.8   c-0.4-0.4-1.1-0.7-2-0.7h-4.4V100.9 M474.7,107.4H466V95h8.5v1h-7.4v4.5h6.9v1h-6.9v4.9h7.4V107.4 M455.5,107.4h-1.2V95h5.5   c0.6,0,1.1,0.1,1.5,0.2c0.4,0.2,0.8,0.4,1.2,0.7c0.3,0.3,0.6,0.7,0.7,1.1c0.2,0.4,0.3,0.9,0.3,1.5c0,0.6-0.1,1-0.3,1.5   c-0.2,0.4-0.4,0.8-0.7,1.1c-0.3,0.3-0.7,0.5-1.2,0.7c-0.4,0.2-1,0.2-1.5,0.2h-4.3V107.4 M455.5,101.1L455.5,101.1h4   c0.8,0,1.5-0.2,2-0.6c0.5-0.4,0.8-1,0.8-1.9l0,0l0,0c0-0.9-0.3-1.5-0.8-1.9c-0.5-0.4-1.2-0.6-2-0.6h-4V101.1 M438.7,107.4h-8.1V95   h1.2v11.4h6.9V107.4 M428.1,107.4h-8.6V95h8.5v1h-7.4v4.5h6.9v1h-6.9v4.9h7.4V107.4 M412.6,107.4h-1.4L406.7,95h1.2l4,11.1h0   l4-11.1h1.2L412.6,107.4 M404.9,107.4h-8.6V95h8.5v1h-7.4v4.5h6.9v1h-6.9v4.9h7.4V107.4 M387.6,107.4h-4.3V95h4.3   c1.9,0,3.3,0.6,4.2,1.6c1,1,1.4,2.5,1.4,4.6c0,2.1-0.5,3.6-1.4,4.6C390.9,106.8,389.5,107.3,387.6,107.4 M384.5,106.4L384.5,106.4   h2.5c0.9,0,1.7-0.1,2.3-0.3c0.6-0.2,1.2-0.5,1.6-0.9c0.4-0.4,0.7-1,0.9-1.6c0.2-0.7,0.3-1.4,0.3-2.4l0,0l0,0c0-0.9-0.1-1.7-0.3-2.4   c-0.2-0.7-0.5-1.2-0.9-1.6c-0.4-0.4-0.9-0.7-1.6-0.9c-0.6-0.2-1.4-0.3-2.3-0.3h-2.5V106.4 M357.9,107.4h-1.3   c-0.1-0.1-0.1-0.3-0.2-0.4c0-0.2-0.1-0.3-0.1-0.5c0-0.2,0-0.4,0-0.5c0-0.2,0-0.3,0-0.4c0-0.4-0.1-0.9-0.1-1.3   c-0.1-0.4-0.2-0.8-0.3-1.2c-0.2-0.3-0.4-0.6-0.7-0.8c-0.3-0.2-0.7-0.3-1.1-0.3c-0.1,0-0.1,0-0.2,0h-4.5v5.5h-1.2V95h5.7   c0.5,0,1,0.1,1.4,0.2c0.5,0.1,0.9,0.3,1.2,0.6c0.3,0.3,0.6,0.6,0.8,1c0.2,0.4,0.3,0.9,0.3,1.4c0,0.8-0.2,1.5-0.6,2   c-0.4,0.6-1,0.9-1.8,1.1v0l0,0c0.4,0.1,0.7,0.2,1,0.3c0.3,0.2,0.5,0.4,0.6,0.6c0.2,0.2,0.3,0.5,0.4,0.8c0.1,0.3,0.1,0.7,0.1,1   c0,0.2,0,0.5,0,0.8c0,0.3,0,0.6,0.1,0.9c0,0.3,0.1,0.6,0.2,0.9C357.7,107,357.8,107.2,357.9,107.4 M349.3,100.9L349.3,100.9h4.4   c0.4,0,0.7-0.1,1-0.2c0.3-0.1,0.6-0.3,0.8-0.5c0.2-0.2,0.4-0.5,0.6-0.8c0.1-0.3,0.2-0.6,0.2-1l0,0l0,0c0-0.8-0.2-1.4-0.7-1.8   c-0.4-0.4-1.1-0.7-2-0.7h-4.4V100.9 M328.2,107.4h-1.2V96h-4.3v-1h9.8v1h-4.3V107.4 M309.9,107.4h-8.6V95h8.5v1h-7.4v4.5h6.9v1   h-6.9v4.9h7.4V107.4 M294.5,107.4h-1.4L288.5,95h1.2l4,11.1h0l4-11.1h1.2L294.5,107.4 M286.3,107.4H285l-7.2-10.5h0v10.5h-1.2V95   h1.3l7.2,10.5h0V95h1.2V107.4 M273,107.4h-1.2V95h1.2V107.4 M263.6,107.4h-8.6V95h8.5v1h-7.4v4.5h6.9v1h-6.9v4.9h7.4V107.4    M248.4,107.4h-1.2V96h-4.3v-1h9.8v1h-4.3V107.4 M243.4,107.4h-1.3l-1.5-3.8H235l-1.5,3.8h-1.2l5-12.4h1.3L243.4,107.4    M235.3,102.5L235.3,102.5h4.9l-2.4-6.3L235.3,102.5 M228.4,107.4h-1.2V96h-4.3v-1h9.8v1h-4.3V107.4 M210.1,107.4h-8.6V95h8.5v1   h-7.4v4.5h6.9v1h-6.9v4.9h7.4V107.4 M193.8,107.4h-8.1V95h1.2v11.4h6.9V107.4 M183.4,107.4h-1.3l-1.5-3.8H175l-1.5,3.8h-1.2l5-12.4   h1.3L183.4,107.4 M175.4,102.5L175.4,102.5h4.9l-2.4-6.3L175.4,102.5 M170.5,107.4h-8.6V95h8.5v1H163v4.5h6.9v1H163v4.9h7.4V107.4    M159,107.4h-1.3c-0.1-0.1-0.1-0.3-0.2-0.4c0-0.2-0.1-0.3-0.1-0.5c0-0.2,0-0.4,0-0.5c0-0.2,0-0.3,0-0.4c0-0.4-0.1-0.9-0.1-1.3   c-0.1-0.4-0.2-0.8-0.3-1.2c-0.2-0.3-0.4-0.6-0.7-0.8c-0.3-0.2-0.7-0.3-1.1-0.3c-0.1,0-0.1,0-0.2,0h-4.5v5.5h-1.2V95h5.7   c0.5,0,1,0.1,1.4,0.2c0.5,0.1,0.9,0.3,1.2,0.6c0.3,0.3,0.6,0.6,0.8,1c0.2,0.4,0.3,0.9,0.3,1.4c0,0.8-0.2,1.5-0.6,2   c-0.4,0.6-1,0.9-1.8,1.1v0l0,0c0.4,0.1,0.7,0.2,1,0.3c0.3,0.2,0.5,0.4,0.6,0.6c0.2,0.2,0.3,0.5,0.4,0.8c0.1,0.3,0.1,0.7,0.1,1   c0,0.2,0,0.5,0,0.8c0,0.3,0,0.6,0.1,0.9c0,0.3,0.1,0.6,0.2,0.9C158.7,107,158.8,107.2,159,107.4 M150.4,100.9L150.4,100.9h4.4   c0.4,0,0.7-0.1,1-0.2c0.3-0.1,0.6-0.3,0.8-0.5c0.2-0.2,0.4-0.5,0.6-0.8c0.1-0.3,0.2-0.6,0.2-1l0,0l0,0c0-0.8-0.2-1.4-0.7-1.8   c-0.4-0.4-1.1-0.7-2-0.7h-4.4V100.9 M141.5,107.4h-8.1V95h1.2v11.4h6.9V107.4 M131.2,107.4h-1.3l-1.5-3.8h-5.6l-1.5,3.8H120l5-12.4   h1.3L131.2,107.4 M123.1,102.5L123.1,102.5h4.9l-2.4-6.3L123.1,102.5 M117.8,107.4h-1.3l-7.2-10.5h0v10.5h-1.2V95h1.3l7.2,10.5h0   V95h1.2V107.4 M90.5,107.4h-1.2V95h1.2V107.4 M82.7,107.4h-1.2V96h-4.3v-1H87v1h-4.3V107.4 M77.7,107.4h-1.3l-1.5-3.8h-5.6   l-1.5,3.8h-1.2l5-12.4h1.3L77.7,107.4 M69.7,102.5L69.7,102.5h4.9l-2.4-6.3L69.7,102.5 M64.3,107.4H63l-7.2-10.5h0v10.5h-1.2V95   h1.3l7.2,10.5h0V95h1.2V107.4 M51.8,107.4h-1.3c-0.1-0.1-0.1-0.3-0.2-0.4c0-0.2-0.1-0.3-0.1-0.5c0-0.2,0-0.4,0-0.5   c0-0.2,0-0.3,0-0.4c0-0.4-0.1-0.9-0.1-1.3c-0.1-0.4-0.2-0.8-0.3-1.2c-0.2-0.3-0.4-0.6-0.7-0.8c-0.3-0.2-0.7-0.3-1.1-0.3   c-0.1,0-0.1,0-0.2,0h-4.5v5.5H42V95h5.7c0.5,0,1,0.1,1.4,0.2c0.5,0.1,0.9,0.3,1.2,0.6c0.3,0.3,0.6,0.6,0.8,1   c0.2,0.4,0.3,0.9,0.3,1.4c0,0.8-0.2,1.5-0.6,2c-0.4,0.6-1,0.9-1.8,1.1v0l0,0c0.4,0.1,0.7,0.2,1,0.3c0.3,0.2,0.5,0.4,0.6,0.6   c0.2,0.2,0.3,0.5,0.4,0.8c0.1,0.3,0.1,0.7,0.1,1c0,0.2,0,0.5,0,0.8c0,0.3,0,0.6,0.1,0.9c0,0.3,0.1,0.6,0.2,0.9   C51.5,107,51.6,107.2,51.8,107.4 M43.2,100.9L43.2,100.9h4.4c0.4,0,0.7-0.1,1-0.2c0.3-0.1,0.6-0.3,0.8-0.5c0.2-0.2,0.4-0.5,0.6-0.8   c0.1-0.3,0.2-0.6,0.2-1l0,0l0,0c0-0.8-0.2-1.4-0.7-1.8c-0.4-0.4-1.1-0.7-2-0.7h-4.4V100.9 M39.5,107.4h-8.6V95h8.5v1H32v4.5h6.9v1   H32v4.9h7.4V107.4 M24.3,107.4h-1.2V96h-4.3v-1h9.8v1h-4.3V107.4 M16.5,107.4h-1.3L8,96.9h0v10.5H6.8V95h1.3l7.2,10.5h0V95h1.2   V107.4 M3.3,107.4H2.1V95h1.2V107.4"/>
</g>
<script xmlns=""/><link xmlns=""/></svg>