<svg version="1.1" id="Layer_1" xmlns="http://www.w3.org/2000/svg" xmlns:xlink="http://www.w3.org/1999/xlink" x="0px" y="0px"
	 width="100%" viewBox="0 0 1338 325" enable-background="new 0 0 1338 325" xml:space="preserve">
<path fill="#FEFFFF" opacity="1.000000" stroke="none" 
	d="
M954.000000,326.000000 
	C636.000061,326.000000 318.500061,326.000000 1.000085,326.000000 
	C1.000057,217.666718 1.000057,109.333435 1.000028,1.000114 
	C446.999878,1.000076 892.999756,1.000076 1338.999756,1.000038 
	C1338.999756,109.333221 1338.999756,217.666443 1338.999878,325.999817 
	C1210.833374,326.000000 1082.666626,326.000000 954.000000,326.000000 
M208.973801,86.564468 
	C208.771896,86.615273 208.569977,86.666069 208.368073,86.716873 
	C208.552185,86.839279 208.736298,86.961693 208.734283,87.853378 
	C209.408173,90.386253 210.082062,92.919121 210.778030,95.535004 
	C203.857925,100.324593 197.112106,104.993553 190.260849,109.735489 
	C192.813934,112.288475 194.800827,114.275291 196.897385,116.371773 
	C195.032639,119.765961 193.234116,123.039635 191.302368,126.555771 
	C195.851059,129.244431 200.104416,131.533905 204.068466,134.246216 
	C205.176727,135.004517 206.260483,137.235077 205.942337,138.406494 
	C203.996292,145.572159 201.643646,152.627411 199.346161,159.976334 
	C186.795456,156.728455 174.633820,153.581253 162.028137,150.319153 
	C164.595169,142.255508 166.840332,134.640427 169.481003,127.165054 
	C170.655136,123.841255 170.051331,122.093803 166.832306,120.527878 
	C162.053070,118.202972 157.385849,115.572899 152.943207,112.657784 
	C150.066544,110.770210 148.131027,110.985817 145.539505,113.189987 
	C138.987411,118.762779 132.162445,124.014732 126.422112,128.613800 
	C116.945358,119.663582 107.929062,111.148232 98.742271,102.471855 
	C106.722183,96.018005 114.447289,89.770233 122.241272,83.466759 
	C119.434464,78.220917 116.517784,73.533577 114.366592,68.517914 
	C112.501907,64.170265 110.382019,62.670135 105.383064,63.819790 
	C96.888664,65.773323 88.160004,66.708244 79.512444,68.073967 
	C77.926849,90.502113 76.485176,112.250763 74.758881,133.976807 
	C74.471375,137.595154 75.499878,139.669296 78.369087,141.784805 
	C101.420372,158.780838 124.374969,175.908661 147.272110,193.112015 
	C149.310440,194.643463 151.222031,196.749146 152.357468,199.007874 
	C157.808533,209.851700 162.984299,220.834198 168.234039,231.778854 
	C171.557816,238.708282 174.839859,245.657700 178.442505,253.232941 
	C143.354309,253.232941 109.238914,253.232941 74.888634,253.232941 
	C74.888634,257.575378 74.888634,261.582855 74.888634,265.476044 
	C173.742004,265.476044 272.126007,265.476044 370.444611,265.476044 
	C370.444611,261.205200 370.444611,257.315369 370.444611,253.057037 
	C334.785645,253.057037 299.529266,253.057037 263.772217,253.057037 
	C264.427216,251.371033 264.812500,250.146469 265.361755,249.000473 
	C273.192932,232.660751 280.953552,216.285797 288.986389,200.045532 
	C290.311188,197.367218 292.472626,194.764587 294.890869,193.017639 
	C318.509308,175.955582 342.213196,159.009888 366.036865,142.235733 
	C369.561005,139.754395 371.113586,137.481430 370.346649,132.935852 
	C369.327271,126.894310 369.433228,120.666382 368.992188,114.523079 
	C367.885834,99.113274 366.743774,83.706032 365.598846,68.063057 
	C355.519287,66.434616 345.683502,64.799408 335.822571,63.333054 
	C334.959015,63.204639 333.473938,63.929993 333.050995,64.689507 
	C329.601318,70.884438 326.335754,77.181900 322.981842,83.509178 
	C331.036041,90.029938 338.721863,96.252449 346.511566,102.559059 
	C337.242432,111.585732 328.450256,120.147942 319.308807,129.050278 
	C312.835876,123.856583 305.924042,118.425438 299.160583,112.815361 
	C297.080963,111.090393 295.423645,110.709892 292.997253,112.217491 
	C288.197479,115.199753 283.303802,118.077553 278.236420,120.565666 
	C274.936707,122.185852 274.610321,123.980843 275.772491,127.251312 
	C278.427643,134.722855 280.644958,142.350006 283.173706,150.335968 
	C270.643066,153.563034 258.525696,156.683670 246.098648,159.884064 
	C244.294083,153.220154 242.592346,146.981049 240.916199,140.735077 
	C238.804092,132.864471 238.503479,132.334808 245.467712,128.244843 
	C252.242691,124.266052 254.773773,119.404907 252.249542,111.979218 
	C252.197144,111.825081 252.171936,111.644585 252.194046,111.484695 
	C253.206726,104.163506 249.315247,101.046776 242.759125,98.981422 
	C231.384949,95.398232 220.264435,91.009933 208.973801,86.564468 
M1011.777466,202.275772 
	C1016.172485,190.857758 1020.567444,179.439743 1024.962402,168.021729 
	C1025.348999,168.134460 1025.735474,168.247192 1026.122070,168.359940 
	C1026.122070,193.447556 1026.122070,218.535187 1026.122070,243.748352 
	C1034.532471,243.748352 1042.612671,243.748352 1050.894775,243.748352 
	C1050.894775,209.777817 1050.894775,176.060013 1050.894775,141.847748 
	C1038.854614,141.847748 1027.071655,141.768631 1015.293579,141.973480 
	C1014.149597,141.993362 1012.521667,143.546112 1011.994446,144.765976 
	C1009.161072,151.321884 1006.602966,157.996780 1003.953674,164.632172 
	C998.240234,178.941879 992.528992,193.252518 986.588928,208.133957 
	C985.808105,206.268372 985.278564,205.059219 984.792358,203.832886 
	C977.134827,184.520950 969.523987,165.190186 961.753174,145.923950 
	C961.116333,144.345032 959.426880,142.064117 958.178894,142.033203 
	C946.240662,141.737503 934.292175,141.856476 922.099243,141.856476 
	C922.099243,176.078003 922.099243,209.795578 922.099243,243.637146 
	C930.540771,243.637146 938.747925,243.637146 947.239868,243.637146 
	C947.239868,218.232666 947.239868,193.190201 947.239868,168.147751 
	C947.512634,168.081726 947.785339,168.015686 948.058105,167.949661 
	C957.435974,193.253067 966.813843,218.556473 976.244019,244.001038 
	C981.652222,244.001038 986.817993,243.791611 991.955872,244.079132 
	C995.067932,244.253265 996.202209,242.949524 997.207825,240.236557 
	C1001.828430,227.770691 1006.690674,215.394394 1011.777466,202.275772 
M504.584869,244.075165 
	C510.624542,242.264130 516.645691,240.387695 522.711487,238.668747 
	C525.909668,237.762436 527.006958,236.042328 526.952332,232.566544 
	C526.719299,217.743591 526.860840,202.914856 526.843506,188.088272 
	C526.841614,186.505600 526.694580,184.923080 526.623413,183.510178 
	C511.404419,183.510178 496.826202,183.510178 482.243042,183.510178 
	C482.243042,190.481689 482.243042,197.085587 482.243042,204.338989 
	C489.008820,204.338989 495.548431,204.338989 502.412872,204.338989 
	C502.412872,209.136688 502.725067,213.320145 502.260040,217.415329 
	C502.072540,219.066711 500.512665,221.324799 499.015564,221.940353 
	C489.738861,225.754623 480.060333,226.715134 470.145294,224.941925 
	C456.335846,222.472244 446.102264,212.386612 443.846283,199.001007 
	C441.367676,184.294495 447.139709,171.472336 459.425446,164.624176 
	C467.775604,159.969757 476.946960,158.674332 486.044647,160.584274 
	C493.308624,162.109222 500.182281,165.493286 508.023163,168.340469 
	C512.596558,163.532104 518.082825,157.763931 524.016235,151.525620 
	C520.845703,149.646774 517.529785,147.046646 513.773193,145.560608 
	C492.353973,137.087524 470.592041,136.119247 449.063812,144.720688 
	C427.824310,153.206772 416.587097,170.992676 416.838837,193.950760 
	C417.078979,215.857880 429.204987,233.236633 450.154938,241.491348 
	C467.693237,248.401794 485.669067,247.438828 504.584869,244.075165 
M884.030273,239.589127 
	C885.422119,241.056793 886.764343,243.736099 888.213806,243.795425 
	C897.595032,244.179352 906.999695,243.992142 917.243225,243.992142 
	C907.364502,229.338348 898.010498,215.462814 888.859375,201.888260 
	C893.842163,199.329056 899.078430,197.626617 903.073059,194.391251 
	C912.638916,186.643829 914.460693,175.977982 911.839966,164.515381 
	C909.208740,153.007111 900.845154,147.033005 890.085754,144.161835 
	C885.304016,142.885849 880.262634,142.067368 875.324097,141.989105 
	C858.717346,141.725967 842.103882,141.889053 825.387390,141.889053 
	C825.387390,176.160828 825.387390,210.003845 825.387390,243.743042 
	C833.884766,243.743042 841.990906,243.743042 850.607056,243.743042 
	C850.607056,230.240875 850.607056,216.985977 850.607056,203.842545 
	C861.233459,201.815002 862.125183,202.214996 866.982239,210.525650 
	C872.522461,220.005112 878.099304,229.463120 884.030273,239.589127 
M1264.953369,222.546585 
	C1254.206909,211.180756 1243.460571,199.814926 1232.425171,188.143417 
	C1247.952271,173.648453 1264.501221,158.199631 1282.012329,141.852570 
	C1270.413574,141.852570 1260.296509,141.779114 1250.183472,141.945892 
	C1248.925049,141.966629 1247.486694,143.047043 1246.472412,143.999329 
	C1237.855591,152.089279 1229.329224,160.275360 1220.751953,168.407532 
	C1215.649292,173.245407 1210.503662,178.038177 1204.332031,183.832779 
	C1204.332031,168.922302 1204.332031,155.525375 1204.332031,142.088547 
	C1195.669800,142.088547 1187.573242,142.088547 1179.400146,142.088547 
	C1179.400146,176.180954 1179.400146,210.024628 1179.400146,243.727478 
	C1187.908569,243.727478 1196.013062,243.727478 1204.694092,243.727478 
	C1204.694092,228.110519 1204.694092,212.756638 1204.694092,196.364655 
	C1206.692505,198.242554 1207.907715,199.290970 1209.017090,200.441528 
	C1219.071655,210.869492 1229.907837,220.676254 1238.910889,231.946426 
	C1246.953247,242.014038 1256.127197,245.761780 1268.516968,244.127167 
	C1274.114868,243.388596 1279.891113,244.001938 1286.069214,244.001938 
	C1278.761108,236.573380 1272.107300,229.809860 1264.953369,222.546585 
M807.160278,185.709412 
	C807.593140,182.633591 806.658447,181.199692 803.158264,181.338928 
	C796.505127,181.603561 789.834106,181.418915 783.170471,181.419525 
	C774.896729,181.420288 766.622925,181.419708 758.126465,181.419708 
	C758.126465,174.923965 758.126465,169.017990 758.126465,162.591461 
	C775.471680,162.591461 792.549133,162.591461 809.734131,162.591461 
	C809.734131,155.377670 809.734131,148.692627 809.734131,142.177475 
	C783.727966,142.177475 758.147766,142.177475 732.479248,142.177475 
	C732.479248,176.231110 732.479248,209.946793 732.479248,243.762939 
	C759.387756,243.762939 785.967896,243.762939 812.622681,243.762939 
	C812.622681,236.818588 812.622681,230.119629 812.622681,222.897552 
	C794.190918,222.897552 776.134216,222.897552 758.144409,222.897552 
	C758.144409,215.925980 758.144409,209.492081 758.144409,202.553299 
	C774.513184,202.553299 790.595642,202.553299 807.159729,202.553299 
	C807.159729,196.920364 807.159729,191.793671 807.160278,185.709412 
M604.077698,220.693268 
	C595.751038,226.727356 586.802551,227.548965 577.725403,222.982697 
	C568.840271,218.513092 565.953003,210.636261 566.086731,200.989120 
	C566.333740,183.164612 566.156067,165.334213 566.155212,147.506271 
	C566.155151,145.739838 566.155212,143.973404 566.155212,142.133179 
	C557.427551,142.133179 549.354309,142.133179 541.079102,142.133179 
	C541.079102,165.540634 540.362732,188.688461 541.360718,211.762146 
	C541.916260,224.603928 549.562927,234.310394 561.184387,240.477951 
	C571.244568,245.816971 582.084717,247.065323 593.168823,246.525772 
	C618.767456,245.279694 638.638855,231.491669 637.675537,200.132996 
	C637.138672,182.654770 637.577820,165.146530 637.577087,147.651825 
	C637.577026,145.860825 637.577087,144.069824 637.577087,142.169189 
	C628.781372,142.169189 620.557373,142.169189 611.998901,142.169189 
	C611.998901,162.463882 611.939270,182.430252 612.031128,202.395905 
	C612.063599,209.447403 609.994385,215.471237 604.077698,220.693268 
M1144.020996,180.409592 
	C1140.079956,172.341385 1135.123169,164.595200 1132.439209,156.128494 
	C1128.543213,143.839050 1121.190918,139.657700 1108.874756,141.658203 
	C1105.417358,142.219757 1103.340210,142.763123 1101.718018,146.159851 
	C1089.750000,171.217453 1077.536621,196.157761 1065.421631,221.145279 
	C1061.827637,228.557938 1058.301636,236.003555 1054.473389,244.000320 
	C1063.625488,244.000320 1071.934814,244.106873 1080.235229,243.882446 
	C1081.443359,243.849777 1083.128540,242.489105 1083.704712,241.309235 
	C1086.257202,236.081741 1088.603882,230.743530 1090.776489,225.345337 
	C1091.713623,223.016968 1092.914795,222.070465 1095.515869,222.098907 
	C1107.844360,222.233688 1120.178223,222.028412 1132.501953,222.305588 
	C1134.275269,222.345474 1136.752441,223.940811 1137.616333,225.520477 
	C1140.401367,230.613556 1142.499634,236.077606 1145.068237,241.297577 
	C1145.617920,242.415146 1147.014038,243.854263 1148.050049,243.878647 
	C1156.795410,244.084503 1165.547729,243.996078 1175.072266,243.996078 
	C1164.577271,222.547409 1154.437988,201.825745 1144.020996,180.409592 
M678.852600,156.505157 
	C678.852600,151.736343 678.852600,146.967529 678.852600,142.108398 
	C670.100464,142.108398 662.014954,142.108398 653.682922,142.108398 
	C653.682922,176.100815 653.682922,209.822144 653.682922,243.653381 
	C677.804138,243.653381 701.659851,243.653381 725.527466,243.653381 
	C725.527466,236.727966 725.527466,230.158310 725.527466,222.992462 
	C709.844727,222.992462 694.472046,222.992462 678.852539,222.992462 
	C678.852539,200.761047 678.852539,179.132446 678.852600,156.505157 
M592.154053,122.615120 
	C592.901794,124.951180 593.185547,127.593994 594.487732,129.563507 
	C597.857788,134.660675 602.917114,136.207016 608.843567,135.134232 
	C614.469177,134.115906 618.314575,130.605759 619.456238,125.322662 
	C620.476379,120.602264 618.908142,116.706512 615.051575,113.988167 
	C605.142517,107.003746 593.215515,112.815285 592.154053,122.615120 
M568.659241,135.019073 
	C571.281372,134.991348 574.004333,135.413986 576.507202,134.853607 
	C584.872620,132.980560 588.819458,123.046860 583.993347,116.535835 
	C580.723938,112.124985 573.847534,109.862724 568.352966,111.390213 
	C562.948608,112.892616 559.059387,117.277397 558.783936,122.178711 
	C558.453674,128.056122 561.158203,131.820740 568.659241,135.019073 
z"/>
<path fill="#02AEEF" opacity="1.000000" stroke="none" 
	d="
M209.037537,86.959267 
	C220.264435,91.009933 231.384949,95.398232 242.759125,98.981422 
	C249.315247,101.046776 253.206726,104.163506 252.194046,111.484695 
	C252.171936,111.644585 252.197144,111.825081 252.249542,111.979218 
	C254.773773,119.404907 252.242691,124.266052 245.467712,128.244843 
	C238.503479,132.334808 238.804092,132.864471 240.916199,140.735077 
	C242.592346,146.981049 244.294083,153.220154 246.098648,159.884064 
	C258.525696,156.683670 270.643066,153.563034 283.173706,150.335968 
	C280.644958,142.350006 278.427643,134.722855 275.772491,127.251312 
	C274.610321,123.980843 274.936707,122.185852 278.236420,120.565666 
	C283.303802,118.077553 288.197479,115.199753 292.997253,112.217491 
	C295.423645,110.709892 297.080963,111.090393 299.160583,112.815361 
	C305.924042,118.425438 312.835876,123.856583 319.308807,129.050278 
	C328.450256,120.147942 337.242432,111.585732 346.511566,102.559059 
	C338.721863,96.252449 331.036041,90.029938 322.981842,83.509178 
	C326.335754,77.181900 329.601318,70.884438 333.050995,64.689507 
	C333.473938,63.929993 334.959015,63.204639 335.822571,63.333054 
	C345.683502,64.799408 355.519287,66.434616 365.598846,68.063057 
	C366.743774,83.706032 367.885834,99.113274 368.992188,114.523079 
	C369.433228,120.666382 369.327271,126.894310 370.346649,132.935852 
	C371.113586,137.481430 369.561005,139.754395 366.036865,142.235733 
	C342.213196,159.009888 318.509308,175.955582 294.890869,193.017639 
	C292.472626,194.764587 290.311188,197.367218 288.986389,200.045532 
	C280.953552,216.285797 273.192932,232.660751 265.361755,249.000473 
	C264.812500,250.146469 264.427216,251.371033 263.772217,253.057037 
	C299.529266,253.057037 334.785645,253.057037 370.444611,253.057037 
	C370.444611,257.315369 370.444611,261.205200 370.444611,265.476044 
	C272.126007,265.476044 173.742004,265.476044 74.888634,265.476044 
	C74.888634,261.582855 74.888634,257.575378 74.888634,253.232941 
	C109.238914,253.232941 143.354309,253.232941 178.442505,253.232941 
	C174.839859,245.657700 171.557816,238.708282 168.234039,231.778854 
	C162.984299,220.834198 157.808533,209.851700 152.357468,199.007874 
	C151.222031,196.749146 149.310440,194.643463 147.272110,193.112015 
	C124.374969,175.908661 101.420372,158.780838 78.369087,141.784805 
	C75.499878,139.669296 74.471375,137.595154 74.758881,133.976807 
	C76.485176,112.250763 77.926849,90.502113 79.512444,68.073967 
	C88.160004,66.708244 96.888664,65.773323 105.383064,63.819790 
	C110.382019,62.670135 112.501907,64.170265 114.366592,68.517914 
	C116.517784,73.533577 119.434464,78.220917 122.241272,83.466759 
	C114.447289,89.770233 106.722183,96.018005 98.742271,102.471855 
	C107.929062,111.148232 116.945358,119.663582 126.422112,128.613800 
	C132.162445,124.014732 138.987411,118.762779 145.539505,113.189987 
	C148.131027,110.985817 150.066544,110.770210 152.943207,112.657784 
	C157.385849,115.572899 162.053070,118.202972 166.832306,120.527878 
	C170.051331,122.093803 170.655136,123.841255 169.481003,127.165054 
	C166.840332,134.640427 164.595169,142.255508 162.028137,150.319153 
	C174.633820,153.581253 186.795456,156.728455 199.346161,159.976334 
	C201.643646,152.627411 203.996292,145.572159 205.942337,138.406494 
	C206.260483,137.235077 205.176727,135.004517 204.068466,134.246216 
	C200.104416,131.533905 195.851059,129.244431 191.302368,126.555771 
	C193.234116,123.039635 195.032639,119.765961 196.897385,116.371773 
	C194.800827,114.275291 192.813934,112.288475 190.260849,109.735489 
	C197.112106,104.993553 203.857925,100.324593 210.778030,95.535004 
	C210.082062,92.919121 209.408173,90.386253 208.856567,87.437469 
	C208.978851,87.021568 209.037537,86.959267 209.037537,86.959267 
z"/>
<path fill="#01AEEF" opacity="1.000000" stroke="none" 
	d="
M1011.621826,202.630859 
	C1006.690674,215.394394 1001.828430,227.770691 997.207825,240.236557 
	C996.202209,242.949524 995.067932,244.253265 991.955872,244.079132 
	C986.817993,243.791611 981.652222,244.001038 976.244019,244.001038 
	C966.813843,218.556473 957.435974,193.253067 948.058105,167.949661 
	C947.785339,168.015686 947.512634,168.081726 947.239868,168.147751 
	C947.239868,193.190201 947.239868,218.232666 947.239868,243.637146 
	C938.747925,243.637146 930.540771,243.637146 922.099243,243.637146 
	C922.099243,209.795578 922.099243,176.078003 922.099243,141.856476 
	C934.292175,141.856476 946.240662,141.737503 958.178894,142.033203 
	C959.426880,142.064117 961.116333,144.345032 961.753174,145.923950 
	C969.523987,165.190186 977.134827,184.520950 984.792358,203.832886 
	C985.278564,205.059219 985.808105,206.268372 986.588928,208.133957 
	C992.528992,193.252518 998.240234,178.941879 1003.953674,164.632172 
	C1006.602966,157.996780 1009.161072,151.321884 1011.994446,144.765976 
	C1012.521667,143.546112 1014.149597,141.993362 1015.293579,141.973480 
	C1027.071655,141.768631 1038.854614,141.847748 1050.894775,141.847748 
	C1050.894775,176.060013 1050.894775,209.777817 1050.894775,243.748352 
	C1042.612671,243.748352 1034.532471,243.748352 1026.122070,243.748352 
	C1026.122070,218.535187 1026.122070,193.447556 1026.122070,168.359940 
	C1025.735474,168.247192 1025.348999,168.134460 1024.962402,168.021729 
	C1020.567444,179.439743 1016.172485,190.857758 1011.621826,202.630859 
z"/>
<path fill="#03AEEF" opacity="1.000000" stroke="none" 
	d="
M504.163147,244.141815 
	C485.669067,247.438828 467.693237,248.401794 450.154938,241.491348 
	C429.204987,233.236633 417.078979,215.857880 416.838837,193.950760 
	C416.587097,170.992676 427.824310,153.206772 449.063812,144.720688 
	C470.592041,136.119247 492.353973,137.087524 513.773193,145.560608 
	C517.529785,147.046646 520.845703,149.646774 524.016235,151.525620 
	C518.082825,157.763931 512.596558,163.532104 508.023163,168.340469 
	C500.182281,165.493286 493.308624,162.109222 486.044647,160.584274 
	C476.946960,158.674332 467.775604,159.969757 459.425446,164.624176 
	C447.139709,171.472336 441.367676,184.294495 443.846283,199.001007 
	C446.102264,212.386612 456.335846,222.472244 470.145294,224.941925 
	C480.060333,226.715134 489.738861,225.754623 499.015564,221.940353 
	C500.512665,221.324799 502.072540,219.066711 502.260040,217.415329 
	C502.725067,213.320145 502.412872,209.136688 502.412872,204.338989 
	C495.548431,204.338989 489.008820,204.338989 482.243042,204.338989 
	C482.243042,197.085587 482.243042,190.481689 482.243042,183.510178 
	C496.826202,183.510178 511.404419,183.510178 526.623413,183.510178 
	C526.694580,184.923080 526.841614,186.505600 526.843506,188.088272 
	C526.860840,202.914856 526.719299,217.743591 526.952332,232.566544 
	C527.006958,236.042328 525.909668,237.762436 522.711487,238.668747 
	C516.645691,240.387695 510.624542,242.264130 504.163147,244.141815 
z"/>
<path fill="#02AEEF" opacity="1.000000" stroke="none" 
	d="
M883.845215,239.259781 
	C878.099304,229.463120 872.522461,220.005112 866.982239,210.525650 
	C862.125183,202.214996 861.233459,201.815002 850.607056,203.842545 
	C850.607056,216.985977 850.607056,230.240875 850.607056,243.743042 
	C841.990906,243.743042 833.884766,243.743042 825.387390,243.743042 
	C825.387390,210.003845 825.387390,176.160828 825.387390,141.889053 
	C842.103882,141.889053 858.717346,141.725967 875.324097,141.989105 
	C880.262634,142.067368 885.304016,142.885849 890.085754,144.161835 
	C900.845154,147.033005 909.208740,153.007111 911.839966,164.515381 
	C914.460693,175.977982 912.638916,186.643829 903.073059,194.391251 
	C899.078430,197.626617 893.842163,199.329056 888.859375,201.888260 
	C898.010498,215.462814 907.364502,229.338348 917.243225,243.992142 
	C906.999695,243.992142 897.595032,244.179352 888.213806,243.795425 
	C886.764343,243.736099 885.422119,241.056793 883.845215,239.259781 
M860.532471,184.006302 
	C865.835754,183.758926 871.220398,184.003525 876.422119,183.142395 
	C883.266296,182.009308 886.007385,178.703354 886.154175,173.105026 
	C886.310852,167.128784 883.666199,163.063538 876.945374,162.096085 
	C868.353943,160.859329 859.575195,160.924377 850.752808,160.421310 
	C850.752808,168.930481 850.752808,176.330399 850.752808,184.006287 
	C853.914795,184.006287 856.733459,184.006287 860.532471,184.006302 
z"/>
<path fill="#02AEEF" opacity="1.000000" stroke="none" 
	d="
M1265.203369,222.796478 
	C1272.107300,229.809860 1278.761108,236.573380 1286.069214,244.001938 
	C1279.891113,244.001938 1274.114868,243.388596 1268.516968,244.127167 
	C1256.127197,245.761780 1246.953247,242.014038 1238.910889,231.946426 
	C1229.907837,220.676254 1219.071655,210.869492 1209.017090,200.441528 
	C1207.907715,199.290970 1206.692505,198.242554 1204.694092,196.364655 
	C1204.694092,212.756638 1204.694092,228.110519 1204.694092,243.727478 
	C1196.013062,243.727478 1187.908569,243.727478 1179.400146,243.727478 
	C1179.400146,210.024628 1179.400146,176.180954 1179.400146,142.088547 
	C1187.573242,142.088547 1195.669800,142.088547 1204.332031,142.088547 
	C1204.332031,155.525375 1204.332031,168.922302 1204.332031,183.832779 
	C1210.503662,178.038177 1215.649292,173.245407 1220.751953,168.407532 
	C1229.329224,160.275360 1237.855591,152.089279 1246.472412,143.999329 
	C1247.486694,143.047043 1248.925049,141.966629 1250.183472,141.945892 
	C1260.296509,141.779114 1270.413574,141.852570 1282.012329,141.852570 
	C1264.501221,158.199631 1247.952271,173.648453 1232.425171,188.143417 
	C1243.460571,199.814926 1254.206909,211.180756 1265.203369,222.796478 
z"/>
<path fill="#02AEEF" opacity="1.000000" stroke="none" 
	d="
M807.160034,186.188187 
	C807.159729,191.793671 807.159729,196.920364 807.159729,202.553299 
	C790.595642,202.553299 774.513184,202.553299 758.144409,202.553299 
	C758.144409,209.492081 758.144409,215.925980 758.144409,222.897552 
	C776.134216,222.897552 794.190918,222.897552 812.622681,222.897552 
	C812.622681,230.119629 812.622681,236.818588 812.622681,243.762939 
	C785.967896,243.762939 759.387756,243.762939 732.479248,243.762939 
	C732.479248,209.946793 732.479248,176.231110 732.479248,142.177475 
	C758.147766,142.177475 783.727966,142.177475 809.734131,142.177475 
	C809.734131,148.692627 809.734131,155.377670 809.734131,162.591461 
	C792.549133,162.591461 775.471680,162.591461 758.126465,162.591461 
	C758.126465,169.017990 758.126465,174.923965 758.126465,181.419708 
	C766.622925,181.419708 774.896729,181.420288 783.170471,181.419525 
	C789.834106,181.418915 796.505127,181.603561 803.158264,181.338928 
	C806.658447,181.199692 807.593140,182.633591 807.160034,186.188187 
z"/>
<path fill="#01AEEF" opacity="1.000000" stroke="none" 
	d="
M604.345398,220.442307 
	C609.994385,215.471237 612.063599,209.447403 612.031128,202.395905 
	C611.939270,182.430252 611.998901,162.463882 611.998901,142.169189 
	C620.557373,142.169189 628.781372,142.169189 637.577087,142.169189 
	C637.577087,144.069824 637.577026,145.860825 637.577087,147.651825 
	C637.577820,165.146530 637.138672,182.654770 637.675537,200.132996 
	C638.638855,231.491669 618.767456,245.279694 593.168823,246.525772 
	C582.084717,247.065323 571.244568,245.816971 561.184387,240.477951 
	C549.562927,234.310394 541.916260,224.603928 541.360718,211.762146 
	C540.362732,188.688461 541.079102,165.540634 541.079102,142.133179 
	C549.354309,142.133179 557.427551,142.133179 566.155212,142.133179 
	C566.155212,143.973404 566.155151,145.739838 566.155212,147.506271 
	C566.156067,165.334213 566.333740,183.164612 566.086731,200.989120 
	C565.953003,210.636261 568.840271,218.513092 577.725403,222.982697 
	C586.802551,227.548965 595.751038,226.727356 604.345398,220.442307 
z"/>
<path fill="#02AEEF" opacity="1.000000" stroke="none" 
	d="
M1144.159912,180.756836 
	C1154.437988,201.825745 1164.577271,222.547409 1175.072266,243.996078 
	C1165.547729,243.996078 1156.795410,244.084503 1148.050049,243.878647 
	C1147.014038,243.854263 1145.617920,242.415146 1145.068237,241.297577 
	C1142.499634,236.077606 1140.401367,230.613556 1137.616333,225.520477 
	C1136.752441,223.940811 1134.275269,222.345474 1132.501953,222.305588 
	C1120.178223,222.028412 1107.844360,222.233688 1095.515869,222.098907 
	C1092.914795,222.070465 1091.713623,223.016968 1090.776489,225.345337 
	C1088.603882,230.743530 1086.257202,236.081741 1083.704712,241.309235 
	C1083.128540,242.489105 1081.443359,243.849777 1080.235229,243.882446 
	C1071.934814,244.106873 1063.625488,244.000320 1054.473389,244.000320 
	C1058.301636,236.003555 1061.827637,228.557938 1065.421631,221.145279 
	C1077.536621,196.157761 1089.750000,171.217453 1101.718018,146.159851 
	C1103.340210,142.763123 1105.417358,142.219757 1108.874756,141.658203 
	C1121.190918,139.657700 1128.543213,143.839050 1132.439209,156.128494 
	C1135.123169,164.595200 1140.079956,172.341385 1144.159912,180.756836 
M1105.855347,190.307022 
	C1104.085205,194.348480 1102.314941,198.389923 1100.330811,202.920013 
	C1109.686401,202.920013 1118.225220,202.920013 1127.503052,202.920013 
	C1122.933594,192.631866 1118.573853,182.815842 1113.835327,172.147156 
	C1110.921143,178.698639 1108.500977,184.139603 1105.855347,190.307022 
z"/>
<path fill="#03AEEF" opacity="1.000000" stroke="none" 
	d="
M678.852539,157.004501 
	C678.852539,179.132446 678.852539,200.761047 678.852539,222.992462 
	C694.472046,222.992462 709.844727,222.992462 725.527466,222.992462 
	C725.527466,230.158310 725.527466,236.727966 725.527466,243.653381 
	C701.659851,243.653381 677.804138,243.653381 653.682922,243.653381 
	C653.682922,209.822144 653.682922,176.100815 653.682922,142.108398 
	C662.014954,142.108398 670.100464,142.108398 678.852600,142.108398 
	C678.852600,146.967529 678.852600,151.736343 678.852539,157.004501 
z"/>
<path fill="#05AFEF" opacity="1.000000" stroke="none" 
	d="
M592.176514,122.224709 
	C593.215515,112.815285 605.142517,107.003746 615.051575,113.988167 
	C618.908142,116.706512 620.476379,120.602264 619.456238,125.322662 
	C618.314575,130.605759 614.469177,134.115906 608.843567,135.134232 
	C602.917114,136.207016 597.857788,134.660675 594.487732,129.563507 
	C593.185547,127.593994 592.901794,124.951180 592.176514,122.224709 
z"/>
<path fill="#04AFEF" opacity="1.000000" stroke="none" 
	d="
M568.279663,134.943512 
	C561.158203,131.820740 558.453674,128.056122 558.783936,122.178711 
	C559.059387,117.277397 562.948608,112.892616 568.352966,111.390213 
	C573.847534,109.862724 580.723938,112.124985 583.993347,116.535835 
	C588.819458,123.046860 584.872620,132.980560 576.507202,134.853607 
	C574.004333,135.413986 571.281372,134.991348 568.279663,134.943512 
z"/>
<path fill="#02AEEF" opacity="1.000000" stroke="none" 
	d="
M208.949631,87.052834 
	C208.736298,86.961693 208.552185,86.839279 208.368073,86.716873 
	C208.569977,86.666069 208.771896,86.615273 209.005676,86.761871 
	C209.037537,86.959267 208.978851,87.021568 208.949631,87.052834 
z"/>
<path fill="#FAFDFE" opacity="1.000000" stroke="none" 
	d="
M860.042358,184.006287 
	C856.733459,184.006287 853.914795,184.006287 850.752808,184.006287 
	C850.752808,176.330399 850.752808,168.930481 850.752808,160.421310 
	C859.575195,160.924377 868.353943,160.859329 876.945374,162.096085 
	C883.666199,163.063538 886.310852,167.128784 886.154175,173.105026 
	C886.007385,178.703354 883.266296,182.009308 876.422119,183.142395 
	C871.220398,184.003525 865.835754,183.758926 860.042358,184.006287 
z"/>
<path fill="#FAFDFE" opacity="1.000000" stroke="none" 
	d="
M1105.968018,189.943787 
	C1108.500977,184.139603 1110.921143,178.698639 1113.835327,172.147156 
	C1118.573853,182.815842 1122.933594,192.631866 1127.503052,202.920013 
	C1118.225220,202.920013 1109.686401,202.920013 1100.330811,202.920013 
	C1102.314941,198.389923 1104.085205,194.348480 1105.968018,189.943787 
z"/>
</svg>