<?xml version="1.0" encoding="UTF-8"?>
<svg xmlns="http://www.w3.org/2000/svg" id="Ebene_1" version="1.1" viewBox="0 0 1632.7559055 816.3779528"><defs><style> .st0 { fill: #8591a5; } .st1 { fill: #1e569f; } .st2 { fill: #fff; } </style></defs><g><polygon points="908.0079519 442.2047537 937.8069521 442.2047537 937.8069521 386.187438 996.7129362 386.187438 996.7129362 442.2047537 1026.5129129 442.2047537 1026.5129129 306.1417616 996.7129362 306.1417616 996.7129362 360.9281943 937.8069521 360.9281943 937.8069521 306.1417616 908.0079519 306.1417616 908.0079519 442.2047537"/><polygon points="1080.7017356 442.2047537 1110.4987217 442.2047537 1110.4987217 331.2965869 1151.1166876 331.2965869 1151.1166876 306.1417616 1040.0857228 306.1417616 1040.0857228 331.2965869 1080.7017356 331.2965869 1080.7017356 442.2047537"/><polygon points="1214.8540989 442.2047537 1317.7220417 442.2047537 1317.7220417 417.0519352 1244.6530991 417.0519352 1244.6530991 386.187438 1306.9240721 386.187438 1306.9240721 360.9281943 1244.6530991 360.9281943 1244.6530991 331.2965869 1316.2031214 331.2965869 1316.2031214 306.1417616 1214.8540989 306.1417616 1214.8540989 442.2047537"/><polygon points="1333.2592838 306.1417616 1333.2592838 442.2047537 1363.058223 442.2047537 1363.058223 386.187438 1416.4021974 386.187438 1416.4021974 360.9261874 1363.058223 360.9261874 1363.058223 331.2965869 1428.5433061 331.2965869 1428.5433061 306.1417616 1333.2592838 306.1417616"/><polygon points="476.2204724 442.2047537 505.9834619 442.2047537 505.9834619 386.187438 564.8934437 386.187438 564.8934437 442.2047537 594.6904298 442.2047537 594.6904298 306.1417616 564.8934437 306.1417616 564.8934437 360.9281943 505.9834619 360.9281943 505.9834619 306.1417616 476.2204724 306.1417616 476.2204724 442.2047537"/><path d="M676.5021337,301.0199819c-39.2035988,0-71.0976299,32.5379796-71.0976299,72.5324778,0,39.9954747,31.8940312,72.5344309,71.0976299,72.5344309,39.2026222,0,71.0961651-32.5389561,71.0961651-72.5344309,0-39.9944982-31.8935429-72.5324778-71.0961651-72.5324778ZM718.880536,373.5524597c0,24.5536307-19.0107351,44.5296396-42.3784023,44.5296396-23.3681554,0-42.3798671-19.9760089-42.3798671-44.5296396s19.0117117-44.5296396,42.3798671-44.5296396c23.3676671,0,42.3784023,19.9760089,42.3784023,44.5296396Z"/><path d="M865.4889858,388.4757507l-.0576172.1708979c-5.8925759,17.6063878-21.4814374,29.4354507-38.7910013,29.4354507-22.7372963,0-41.2358246-19.9760089-41.2358246-44.5296396s18.4985283-44.5296396,41.2358246-44.5296396c14.9872991,0,28.8212784,8.8305375,36.1025257,23.0453348l.0693359.13623h30.6874886l-.0976562-.3222646c-4.3623031-14.4174333-13.2353467-27.3690512-24.9833892-36.4696074-12.1542924-9.4159848-26.6015526-14.3925311-41.7783048-14.3925311-38.5717631,0-69.9526108,32.5379796-69.9526108,72.5324778,0,39.9954747,31.3808477,72.5344309,69.9526108,72.5344309,16.078119,0,31.7880742-5.82127,44.2363117-16.391548,12.273433-10.4218409,20.8505782-24.9530434,24.1533114-40.9188116l.0615234-.3007803h-29.6025281Z"/><rect x="1164.770605" y="306.1417616" width="29.796986" height="136.0629921"/><g><rect class="st1" x="204.1380902" y="238.1102655" width="204.0959117" height="204.0943341"/><g><polygon class="st2" points="336.8005371 377.5119321 275.5715332 377.5119321 275.5715332 367.3080136 216.383606 367.3080136 216.383606 408.1268613 395.9885254 408.1268613 395.9885254 367.3080136 336.8005371 367.3080136 336.8005371 377.5119321"/><polygon class="st2" points="306.1865234 319.4036557 336.8005371 356.1394956 395.9885254 356.1394956 306.1865234 252.0538632 216.383606 356.1394956 275.5715332 356.1394956 306.1865234 319.4036557"/></g><rect class="st1" x="204.0944882" y="204.0945175" width="1224.5669291" height="8.5038785"/><rect class="st1" x="204.0944882" y="467.7165647" width="1224.5669291" height="8.5038785"/></g></g><path class="st0" d="M476.1602363,536.9690399h33.6313477c18.6962891,0,25.7983398,11.9208984,25.7983398,24.1591797s-7.1020508,24.1591797-25.7983398,24.1591797h-17.2333984v27.0078125h-16.3979492v-75.3261719ZM492.5581855,572.4163055h12.7421875c7.5205078,0,14.4135742-1.6875,14.4135742-11.2880859s-6.8930664-11.2880859-14.4135742-11.2880859h-12.7421875v22.5761719Z"/><path class="st0" d="M628.1270332,536.9690399h16.3979492v61.4003906h36.347168v13.9257812h-52.7451172v-75.3261719Z"/><path class="st0" d="M701.7598457,587.2922821c0,10.0224609,7.7290039,13.9257812,16.5024414,13.9257812,5.7446289,0,14.5180664-1.6884766,14.5180664-9.3896484,0-8.2285156-11.2802734-9.3896484-22.1425781-12.4492188-11.0717773-2.7421875-22.2470703-7.4902344-22.2470703-21.4160156,0-15.5078125,14.4135742-22.7880859,27.8867188-22.7880859,15.5625,0,29.8720703,6.8574219,29.8720703,24.265625h-15.8759766c-.5224609-8.9677734-6.7890625-11.3945312-14.7270508-11.3945312-5.222168,0-11.2802734,2.2158203-11.2802734,8.5458984,0,5.8017578,3.5512695,6.6464844,22.2470703,11.3935547,5.5356445,1.265625,22.1425781,4.9589844,22.1425781,21.9443359,0,13.8203125-10.6533203,24.1591797-31.0205078,24.1591797-16.5024414,0-32.0649414-8.2294922-31.7514648-26.796875h15.8759766Z"/><path class="st0" d="M758.8892402,536.9690399h16.3979492v31.2275391l29.140625-31.2275391h20.4711914l-29.1406351,29.7509766,31.9609476,45.5751953h-20.5761719l-22.4560547-33.8652344-9.3999023,9.6005859v24.2646484h-16.3979492v-75.3261719Z"/><path class="st0" d="M859.2749824,536.9690399h16.8154297l27.8876953,75.3261719h-17.0253906l-5.6396484-16.7744141h-27.8876953l-5.8486328,16.7744141h-16.6064453l28.3046875-75.3261719ZM857.7085762,583.1780243h19.3222656l-9.4003906-27.6416016h-.2089844l-9.7128906,27.6416016Z"/><path class="st0" d="M579.8662836,534.703463c-21.6025097,0-39.1772003,17.9295799-39.1772003,39.9679658,0,22.038924,17.5746906,39.9690421,39.1772003,39.9690421,21.6019716,0,39.1763931-17.930118,39.1763931-39.9690421,0-22.0383859-17.5744215-39.9679658-39.1763931-39.9679658ZM579.8662836,599.2088383c-12.8766445,0-23.3527411-11.0074889-23.3527411-24.5374096s10.4760966-24.5374096,23.3527411-24.5374096c12.8763754,0,23.3519339,11.0074889,23.3519339,24.5374096s-10.4755585,24.5374096-23.3519339,24.5374096Z"/><script xmlns=""/><link xmlns=""/></svg>