<svg xmlns="http://www.w3.org/2000/svg" width="181" height="64" viewBox="0 0 181 64" fill="none">
              <path d="M15.4742 28.1598V26.7006C15.7292 26.7006 16.188 26.675 16.7234 26.5982C17.5392 26.5214 17.947 26.3422 17.947 26.0094C17.947 25.8302 17.7941 25.523 17.4627 25.1134L10.4776 16.7166L8.89704 18.1246V24.1918C8.89704 25.9838 9.15197 26.4702 10.7835 26.5982L11.9052 26.7006V28.1598H0.458874V26.7006L1.58056 26.5982C2.9062 26.4446 3.28859 26.1886 3.28859 24.1918V7.24465C3.28859 5.35025 3.13563 4.68465 1.58056 4.53105L0.458874 4.42865V2.94385H11.9052V4.42865L10.7835 4.53105C9.12648 4.71025 8.89704 5.09425 8.89704 7.24465V15.3086L17.0803 6.83505C17.5646 6.34865 17.7941 5.91345 17.7941 5.58065C17.7941 4.99185 17.3862 4.65905 16.1625 4.53105L14.9389 4.42865V2.94385H25.3655V4.42865C23.5555 4.58225 22.3318 5.17105 21.1082 6.39985L14.327 13.1582L24.1418 25.0878C24.6262 25.6766 25.2635 26.2142 26.0028 26.547L26.8951 26.9566V28.1854H15.4997L15.4742 28.1598Z" fill="#292622"/>
              <path d="M54.9628 28.2878C53.0763 28.2878 51.5468 28.1854 50.8584 27.955C47.8503 26.9054 44.4852 20.659 43.1596 17.843H40.7122V24.1918C40.7122 25.9838 40.9672 26.4702 42.5987 26.5982L43.7204 26.7006V28.1598H32.2741V26.7006L33.3958 26.5982C34.8489 26.4446 35.1038 26.0862 35.1038 24.1918V7.24465C35.1038 5.32465 34.8744 4.68465 33.3958 4.53105L32.2741 4.42865V2.94385H36.098C38.6473 2.94385 40.6103 2.58545 43.389 2.58545C51.4193 2.58545 53.4587 6.63025 53.4587 9.75345C53.4587 12.5694 51.3173 15.2062 48.3856 16.1534C50.1956 19.9166 52.0821 22.8862 54.1215 24.8574C55.2687 25.9326 56.9768 26.5726 58.7358 26.7262V28.1854C57.971 28.2622 56.5944 28.2878 54.9628 28.2878ZM43.0321 4.55665C41.8849 4.55665 41.0946 4.58225 40.7377 4.71025V15.8206H42.4713C45.5304 15.8206 47.6208 13.5166 47.6208 10.0862C47.6208 7.03985 45.9128 4.55665 43.0321 4.55665Z" fill="#292622"/>
              <path d="M75.7396 28.7486C68.3721 28.7486 62.7127 24.5758 62.7127 15.8462C62.7127 7.96138 67.6328 2.53418 76.173 2.53418C83.6424 2.53418 89.0214 7.14218 89.0214 15.5134C89.0214 23.2446 83.8718 28.7486 75.7396 28.7486ZM75.5866 4.53098C70.59 4.53098 68.6015 9.80458 68.6015 14.6686C68.6015 19.2766 70.1821 26.8286 76.3004 26.8286C81.399 26.8286 83.158 21.1454 83.158 16.6398C83.158 12.1342 81.603 4.53098 75.6121 4.53098H75.5866Z" fill="#292622"/>
              <path d="M104.649 28.7231C103.654 28.7231 101.768 28.4159 98.9127 27.8783L98.1989 28.4671H96.8222L95.7006 21.4527L97.2811 21.1199L98.6577 23.1166C100.238 25.4462 102.099 26.6495 104.139 26.6495C106.994 26.6495 108.702 25.0623 108.702 22.5279C108.702 21.2991 108.116 20.2239 106.892 19.3022C106.178 18.7902 104.827 18.0478 102.788 17.0238C99.7539 15.5391 96.4144 13.5679 96.4144 9.59985C96.4144 5.63185 99.9579 2.58545 104.776 2.58545C106.484 2.58545 108.141 2.84145 109.773 3.40465L110.69 2.76465H111.838L112.577 9.08785L111.098 9.39505L109.977 7.42385C108.931 5.55505 107.351 4.63345 105.158 4.63345C102.839 4.63345 101.385 5.93905 101.385 7.98705C101.385 8.98545 101.972 9.90705 103.195 10.7774C103.705 11.1615 105.056 11.8526 107.198 12.9278C110.971 14.7966 113.775 16.5374 113.775 20.8127C113.775 25.8559 109.62 28.7743 104.598 28.7743L104.649 28.7231Z" fill="#292622"/>
              <path d="M146.992 4.60785C145.769 4.86385 145.182 5.83665 145.182 7.50065V28.1598H141.741L125.629 8.83185V23.7822C125.629 25.3438 126.343 26.2654 127.694 26.5214L128.612 26.7006V28.1598H119.995V26.7006L120.99 26.4702C122.137 26.2142 122.723 25.2926 122.723 23.6798V7.42385C122.723 5.88785 122.29 5.01745 121.423 4.71025L120.582 4.40305V2.94385H127.975L142.251 20.275V7.55185C142.251 5.91345 141.613 4.94065 140.364 4.65905L139.446 4.42865V2.94385H147.808V4.42865L146.967 4.60785H146.992Z" fill="#292622"/>
              <path d="M167.361 28.7486C159.994 28.7486 154.334 24.5758 154.334 15.8462C154.334 7.96138 159.255 2.53418 167.795 2.53418C175.264 2.53418 180.643 7.14218 180.643 15.5134C180.643 23.2446 175.494 28.7486 167.361 28.7486ZM167.234 4.53098C162.237 4.53098 160.249 9.80458 160.249 14.6686C160.249 19.2766 161.829 26.8286 167.948 26.8286C173.046 26.8286 174.805 21.1454 174.805 16.6398C174.805 12.1342 173.25 4.53098 167.259 4.53098H167.234Z" fill="#292622"/>
              <path d="M65.6699 59.2385V47.1809C65.6699 45.5425 65.7208 44.0321 65.8228 42.6753H64.5227C62.5342 44.2881 60.6732 45.5681 58.9142 46.5153V47.6673L61.8459 46.8993V59.2385C61.8459 59.9297 61.489 60.3393 60.8517 60.4417L59.7555 60.6465V61.6449H67.8113V60.5953L66.6896 60.4417C66.0268 60.3649 65.6954 59.9553 65.6954 59.1873L65.6699 59.2385Z" fill="#292622"/>
              <path d="M80.7872 42.573C76.9377 42.573 74.5159 45.6194 74.5159 49.0498C74.5159 52.4802 76.7083 54.733 79.589 54.733C80.4303 54.733 81.297 54.5282 82.1893 54.1186L81.9854 52.9154C81.6285 53.1202 81.2715 53.2226 80.8637 53.2226C79.3596 53.2226 78.6203 51.5586 78.6203 48.1538C78.6203 45.5426 79.3341 43.9042 80.8127 43.9042C82.3932 43.9042 83.1835 45.645 83.1835 49.101C83.1835 52.301 82.6737 54.861 81.6539 56.7298C80.6342 58.5986 78.9262 60.0834 76.5299 61.2098L77.0142 62.1826C79.9969 61.645 82.4697 60.1858 84.4582 57.8562C86.3956 55.5778 87.3389 52.9922 87.3389 50.1506C87.3389 45.901 84.8661 42.5474 80.8127 42.5474L80.7872 42.573Z" fill="#292622"/>
              <path d="M101.105 58.7776H96.0065C98.2244 56.6784 99.9834 54.912 101.284 53.4528C102.89 51.6608 103.705 49.8432 103.705 48.0256C103.705 44.8768 101.105 42.5728 98.0714 42.5728C95.2162 42.5728 92.9728 44.3904 92.0551 47.1296L93.3042 47.6416C93.9925 45.8496 95.0887 44.9536 96.5673 44.9536C98.3008 44.9536 99.652 46.5664 99.652 48.6912C99.652 51.6608 98.1479 54.3744 94.4769 57.9584L92.0296 60.3648V61.6704H103.374C103.986 59.0336 104.343 57.5488 104.445 57.1904H103.323C102.864 58.2656 102.15 58.7776 101.156 58.7776H101.105Z" fill="#292622"/>
              <path d="M116.681 51.149V51.021C118.874 49.9714 119.995 48.4866 119.995 46.5922C119.995 43.9042 117.293 42.5474 115.024 42.5474C111.608 42.5474 109.977 44.749 109.518 45.7474L110.359 46.3618C111.353 45.2866 112.195 44.749 113.418 44.749C115.05 44.749 116.044 46.5154 116.044 47.9234C116.044 49.7154 115.126 50.8674 112.602 51.917L112.857 53.069C113.265 52.9154 113.622 52.8642 113.979 52.8642C115.84 52.8642 117.064 54.6562 117.064 56.653C117.064 59.1874 115.789 60.4674 113.291 60.4674C111.94 60.4674 110.843 60.0066 110.002 59.085L109.161 60.237C110.486 61.5426 112.118 62.1826 114.055 62.1826C118.236 62.1826 121.245 59.6482 121.245 55.9618C121.245 53.1202 119.231 51.3282 116.707 51.1234L116.681 51.149Z" fill="#292622"/>
            </svg>