<svg version="1.1" id="Layer_1" xmlns="http://www.w3.org/2000/svg" xmlns:xlink="http://www.w3.org/1999/xlink" x="0px" y="0px" viewBox="0 0 213.6 72" style="enable-background:new 0 0 213.6 72;" xml:space="preserve">
 <style type="text/css">
  .st0{fill:#FFFFFF;}
 </style>
 <metadata>
  
   
   
   
   
  
 </metadata>
 <g>
  <path class="st0" d="M0,41.7h22.2c3.3,0,4.4-1,4.4-3.9c0-2,0-3.5,0-4.7c-1.2,0.7-2.2,0.9-3.8,0.9H11V0.6l-11,0&#xA;&#x9;&#x9;C0.5,1.5,0.9,2.6,0.9,4v34.3C0.9,39.9,0.5,40.8,0,41.7L0,41.7z M34.7,0.6c0.6,1.1,0.9,2.1,0.9,3.4v33.8c0,2.8,1.1,3.9,4,3.9&#xA;&#x9;&#x9;c2.3,0,5.5,0,7,0c-0.6-1-0.9-2.2-0.9-3.3V0.6H34.7z M57.8,0.7c0.6,1.2,0.9,2.1,0.9,3.4v33.8c0,2.8,1.1,3.9,3.9,3.9c2.4,0,5.5,0,7,0&#xA;&#x9;&#x9;c-0.6-1-0.9-2.2-0.9-3.3V27.5h7.7c9.9,0,14.5-7.4,14.5-14.2c0-7.8-5.4-12.7-14.1-12.7L57.8,0.7L57.8,0.7L57.8,0.7z M75.9,19.7h-7.5&#xA;&#x9;&#x9;V8.5h7.5c1.5,0,4.8,0.5,4.8,5.4C80.8,17.5,78.9,19.7,75.9,19.7L75.9,19.7z M98,8.4h8.1v29.3c0,2.8,1.1,3.9,4,3.9c2.5,0,5.6,0,7,0&#xA;&#x9;&#x9;c-0.6-1-0.8-2.2-0.8-3.3V8.4h8c3.1,0,3.8-2,3.8-3.6V0.2c-1.2,0.4-2.4,0.5-3.4,0.5H94.8v8.6C95.8,8.7,96.9,8.4,98,8.4L98,8.4z&#xA;&#x9;&#x9; M188.6,19.1c0,0,0.3,0.3,14.9,16.9c3.7,4.2,6.7,6.1,10.2,6.5V0.7h-10.2c0.5,0.9,0.9,1.9,0.9,3.3v17.8c0,0-0.7-0.8-13.9-15.7&#xA;&#x9;&#x9;c-2-2.2-4.1-5.4-7.9-5.4h-4.2c0.6,1,0.9,1.8,0.9,3.7v37.3h10.2c-0.6-1-0.9-2.1-0.9-3.3V19.1L188.6,19.1z M150.9,0&#xA;&#x9;&#x9;c-12,0-20.4,8.7-20.4,21.2c0,12.5,8.4,21.2,20.4,21.2c12,0,20.3-8.7,20.3-21.2c0-6-2-11.4-5.7-15.2C161.9,2.1,156.7,0,150.9,0&#xA;&#x9;&#x9;L150.9,0z M151,33.6c-6.1,0-9.8-4.8-9.8-12.5s3.8-12.3,9.8-12.3c6.1,0,9.6,4.8,9.6,12.3C160.6,28.7,156.8,33.6,151,33.6L151,33.6z&#xA;&#x9;&#x9; M38.4,49.8c2.5-0.3,5.1-0.6,7.6-0.7h0.5c0.2,0,0.4,0,0.5,0c0.2,0,0.3-0.1,0.4-0.2c0.1-0.1,0.2-0.2,0.2-0.4&#xA;&#x9;&#x9;c-0.1-0.3-0.3-0.4-0.6-0.4c-0.3,0-0.7,0-1,0c-2.5,0-5,0.2-7.4,0.5c-2.4,0.3-4.7,0.5-6.9,0.7c0.1-0.2,0.2-0.3,0.4-0.5&#xA;&#x9;&#x9;c0.2-0.1,0.2-0.4,0.2-0.6c-0.3-0.3-0.6-0.5-0.9-0.5c-0.3,0-0.6,0.1-0.9,0.3c-0.3,0.2-0.6,0.5-0.8,0.8c-0.3,0.3-0.5,0.6-0.6,0.8&#xA;&#x9;&#x9;c-1.6,0.1-3.1,0.3-4.6,0.5c-1.5,0.2-3,0.4-4.6,0.6c-1.5,0.2-3.1,0.3-4.6,0.5c-1.6,0.1-3.2,0.2-4.8,0.3c-0.1-0.2-0.1-0.3-0.1-0.5&#xA;&#x9;&#x9;c0-0.2-0.2-0.2-0.4-0.2c-0.5,0-0.9,0.2-1.1,0.4c-0.2,0.2-0.3,0.5-0.3,0.8c0,0.3,0.2,0.5,0.5,0.7c0.3,0.2,0.7,0.3,1.2,0.3&#xA;&#x9;&#x9;c1.7,0,3.3-0.1,4.8-0.2c1.5-0.1,3-0.3,4.5-0.5c1.5-0.2,2.9-0.4,4.4-0.6c1.5-0.2,3-0.4,4.5-0.5c-1.5,2.9-2.9,5.9-4.2,8.9&#xA;&#x9;&#x9;c-1.4,3.2-2.4,6.4-3.2,9.8c-0.1,0.2-0.1,0.5-0.1,0.7c0,0.3,0,0.6,0,0.8c0,0.2,0.1,0.4,0.3,0.6c0.2,0.1,0.4,0.2,0.8,0.1&#xA;&#x9;&#x9;c0.3-0.1,0.4-0.3,0.4-0.5c0-0.3,0-0.5,0.1-0.8c0.1-0.9,0.4-1.8,0.8-2.7c0.4-0.9,0.7-1.8,1.1-2.6c1-2.6,2.1-5.2,3.2-7.7&#xA;&#x9;&#x9;c1-2.5,2.4-4.8,3.9-7C33.4,50.4,35.9,50.1,38.4,49.8L38.4,49.8z M38.4,49.8">
  </path>
  <path class="st0" d="M59.6,61c-0.4-0.2-0.7-0.5-1.1-0.7c-0.3-0.2-0.6-0.5-0.7-0.9c0.1-0.3,0.2-0.6,0.4-0.8c0.2-0.2,0.4-0.5,0.7-0.7&#xA;&#x9;&#x9;c0.2-0.2,0.5-0.4,0.7-0.7c0.2-0.2,0.4-0.5,0.5-0.9l0,0l0,0c-0.1-0.2-0.3-0.3-0.6-0.3h0c-0.1,0-0.1,0-0.2,0c0,0,0,0-0.1,0l0,0l0,0&#xA;&#x9;&#x9;c-0.8,0.6-1.5,1.1-2.2,1.8c-0.7,0.6-1.4,1.2-2.1,1.9c-0.7,0.6-1.4,1.3-2.1,1.9c-0.7,0.6-1.5,1.2-2.2,1.7c-0.6,0.4-1.1,0.7-1.7,1&#xA;&#x9;&#x9;c-0.6,0.3-1.3,0.5-2.1,0.5c0,0-0.1,0-0.2,0c-0.3-0.2-0.5-0.5-0.6-0.9c0-0.4,0-0.9,0.1-1.3c0.1-0.5,0.2-1,0.3-1.5&#xA;&#x9;&#x9;c0.1-0.5,0.2-0.9,0.2-1.4v0c-0.1-0.2-0.2-0.3-0.5-0.3c-0.1,0-0.2,0-0.4,0c0-0.3-0.1-0.5-0.3-0.7c-0.2-0.2-0.4-0.3-0.8-0.4&#xA;&#x9;&#x9;c-0.6,0-1.1,0-1.4,0.2l-1,0.5c-1,0.7-1.9,1.6-2.6,2.5c-0.2,0.3-0.5,0.6-0.7,0.9c-0.2,0.3-0.4,0.5-0.5,0.8l0,0&#xA;&#x9;&#x9;c-0.2,0.2-0.3,0.3-0.5,0.4c-0.5,0.4-1,0.7-1.6,1.1c-0.6,0.4-1.3,0.6-1.9,0.7c-0.5,0.1-1,0.1-1.5,0.1c-0.4-0.1-0.8-0.2-1-0.4&#xA;&#x9;&#x9;c-0.3-0.2-0.4-0.5-0.5-0.8c-0.1-0.3,0-0.7,0.1-1.1c0.6-0.2,1.2-0.5,1.8-0.8c0.6-0.3,1.2-0.6,1.7-1c0.5-0.4,0.9-0.8,1.3-1.3&#xA;&#x9;&#x9;c0.4-0.5,0.6-1.1,0.8-1.7v0c-0.1-0.3-0.2-0.6-0.5-0.8c-0.3-0.2-0.7-0.3-1.2-0.2c-0.6,0-1.1,0.2-1.6,0.5c-0.5,0.3-0.9,0.7-1.3,1&#xA;&#x9;&#x9;c-0.4,0.4-0.7,0.8-1.1,1.2c-0.3,0.4-0.6,0.8-0.8,1.1c-0.3,0.1-0.5,0.2-0.7,0.3c-0.2,0.1-0.4,0.3-0.5,0.6c0,0.1,0,0.2,0,0.3&#xA;&#x9;&#x9;c0,0.1,0.1,0.2,0.1,0.2c0.1,0.1,0.1,0.1,0.2,0.2c0,0,0,0.1,0,0.2c0,0.1,0,0.2,0,0.3c-0.1,0.1-0.1,0.2-0.1,0.3&#xA;&#x9;&#x9;c-0.1,0.9,0.3,1.7,1.1,2.3c0.6,0.4,1.3,0.7,2,0.7c0.1,0,0.2,0,0.3,0c0.6,0,1.3-0.1,1.9-0.3c0.7-0.2,1.4-0.5,2.1-0.9&#xA;&#x9;&#x9;c0.3-0.2,0.7-0.4,0.9-0.6c0,0.2,0,0.4,0.1,0.6l0,0c0.3,0.4,0.7,0.5,1.1,0.5c0.4,0,0.8-0.2,1.2-0.4c0.4-0.2,0.8-0.5,1.2-0.8&#xA;&#x9;&#x9;c0.4-0.3,0.6-0.5,0.9-0.7c0.4-0.4,0.9-0.8,1.3-1.2c0.4-0.3,0.7-0.7,1-0.9c-0.1,0.3-0.1,0.7-0.1,1c0,0.5,0,0.9,0.1,1.2&#xA;&#x9;&#x9;c0.1,0.4,0.3,0.7,0.6,0.9c0.3,0.3,0.8,0.4,1.4,0.4c0.6-0.1,1.2-0.2,1.7-0.4c0.5-0.2,1-0.4,1.5-0.7c0.5-0.2,0.9-0.5,1.3-0.8&#xA;&#x9;&#x9;c0.4-0.3,0.8-0.6,1.2-0.9c0.7-0.6,1.5-1.2,2.2-1.9c0.6-0.6,1.2-1.1,1.9-1.6c0,0.3,0,0.5,0.1,0.7c0.1,0.3,0.3,0.5,0.5,0.7&#xA;&#x9;&#x9;c0.2,0.2,0.5,0.4,0.8,0.6c0.3,0.2,0.6,0.4,0.8,0.5c0.2,0.2,0.5,0.4,0.6,0.6c0.2,0.2,0.3,0.4,0.3,0.7c0,0.2,0,0.5-0.2,0.7&#xA;&#x9;&#x9;c-0.1,0.2-0.3,0.4-0.5,0.6c-0.2,0.2-0.4,0.4-0.7,0.5c-0.3,0.2-0.5,0.3-0.7,0.5c-0.2,0.1-0.5,0.3-0.7,0.5c-0.5,0.3-1.1,0.5-1.7,0.7&#xA;&#x9;&#x9;c-0.3,0.1-0.7,0.1-1,0.1c-0.1-0.1-0.1-0.3-0.1-0.4c0-0.2,0.1-0.3,0.1-0.5c0.1-0.2,0.2-0.3,0.3-0.5c0.1-0.2,0.2-0.3,0.4-0.4&#xA;&#x9;&#x9;c0.3-0.3,0.5-0.6,0.8-0.9c0.3-0.3,0.6-0.5,0.8-0.8c0.1-0.1,0.2-0.2,0.3-0.2c0.1-0.1,0.3-0.2,0.4-0.3c0.1-0.1,0.2-0.2,0.2-0.3&#xA;&#x9;&#x9;c0-0.1,0-0.3-0.1-0.4l0,0l0,0c-0.2-0.1-0.4-0.1-0.6-0.1c-0.2,0-0.3,0.1-0.4,0.2c-0.1,0.1-0.2,0.2-0.4,0.3c-0.1,0.1-0.2,0.2-0.3,0.2&#xA;&#x9;&#x9;l0,0c-0.2,0.2-0.4,0.4-0.6,0.5c-0.2,0.2-0.4,0.3-0.6,0.5c-0.4,0.4-0.9,0.8-1.2,1.3c-0.4,0.5-0.6,1.1-0.7,1.8v0l0,0&#xA;&#x9;&#x9;c0,0.1,0.1,0.1,0.1,0.2c0,0.1,0,0.1,0,0.2v0l0,0c0.2,0.3,0.4,0.5,0.8,0.6c0.3,0.2,0.7,0.2,1.2,0.2c0.9,0,1.7-0.2,2.5-0.5&#xA;&#x9;&#x9;c0.4-0.2,0.7-0.3,1-0.5c0.3-0.2,0.6-0.4,0.9-0.6c0.6-0.4,1.1-0.9,1.6-1.4c0.5-0.5,0.7-1.1,0.7-1.8c0-0.5-0.2-0.9-0.5-1.2&#xA;&#x9;&#x9;C60.3,61.5,59.9,61.2,59.6,61L59.6,61z M32.5,60.9c0.2-0.3,0.4-0.6,0.6-0.9c0.2-0.3,0.5-0.6,0.8-0.9c0.3-0.3,0.6-0.5,0.9-0.6&#xA;&#x9;&#x9;c0.2-0.1,0.3-0.1,0.5-0.2c0.2,0,0.3,0,0.5,0c0,0.4-0.1,0.7-0.3,1c-0.3,0.4-0.6,0.7-1,0.9c-0.4,0.3-0.8,0.5-1.3,0.8l-1,0.5&#xA;&#x9;&#x9;C32.3,61.3,32.4,61.1,32.5,60.9L32.5,60.9z M42.1,62.6c-0.7,0.6-1.4,1.1-2.2,1.6c0.4-0.9,1-1.7,1.6-2.4c0.7-0.8,1.5-1.5,2.5-2h0&#xA;&#x9;&#x9;c0.1,0.1,0.1,0.2,0.1,0.4c0,0.2,0.1,0.3,0.1,0.5C43.5,61.2,42.8,61.9,42.1,62.6L42.1,62.6z M78.2,67c-0.2,0-0.4,0-0.5,0&#xA;&#x9;&#x9;c-0.3-0.2-0.5-0.6-0.6-0.9c-0.1-0.4-0.1-0.8-0.1-1.2c0-0.8,0.2-1.7,0.4-2.5c0.2-0.8,0.5-1.6,0.7-2.3c0-0.1,0.1-0.2,0.1-0.3&#xA;&#x9;&#x9;c0.1-0.1,0.1-0.3,0.1-0.4c0-0.1,0-0.3-0.1-0.4c-0.1-0.1-0.2-0.2-0.5-0.3h0c-0.3,0-0.6,0.2-0.8,0.3c-0.2,0.2-0.4,0.3-0.5,0.5&#xA;&#x9;&#x9;l-0.2,0.3c0.1-0.3,0.2-0.6,0.3-0.9c0-0.3,0-0.6-0.1-0.9c-0.1-0.3-0.4-0.5-0.7-0.6c-0.1,0-0.3,0-0.4,0h-0.5l0,0l-0.1,0&#xA;&#x9;&#x9;c0,0,0,0-0.1,0l0,0l0,0c-0.8,0.4-1.4,0.8-1.9,1.4c-0.5,0.6-0.9,1.2-1.4,1.9c-0.4,0.6-0.8,1.2-1.1,1.8c-0.3,0.6-0.5,1.4-0.6,2.1v0&#xA;&#x9;&#x9;l0,0c0.1,0.3,0.2,0.5,0.4,0.8l0,0l0,0c0.1,0,0.2,0.1,0.2,0.1c0.1,0.1,0.2,0.1,0.3,0.1h0c0.5,0,0.9-0.1,1.3-0.3&#xA;&#x9;&#x9;c0.4-0.1,0.7-0.3,1-0.5c0.3-0.2,0.6-0.4,0.8-0.7c0.3-0.2,0.5-0.5,0.7-0.7c0.5-0.5,0.9-1,1.3-1.5c0.3-0.4,0.7-0.8,1-1.1&#xA;&#x9;&#x9;c-0.1,0.5-0.3,1-0.4,1.6c-0.2,0.7-0.3,1.4-0.3,2.1c-0.1,0.6,0,1.3,0.2,1.9c0.2,0.6,0.6,1,1.2,1.3l0,0c0.3,0,0.5,0,0.8,0&#xA;&#x9;&#x9;c0.4,0,0.5-0.3,0.5-0.4l0,0l0,0C78.7,67,78.5,66.9,78.2,67L78.2,67z M74.5,59.9c-0.1,0.4-0.3,0.7-0.4,1c-0.2,0.3-0.3,0.7-0.5,1&#xA;&#x9;&#x9;c-0.2,0.3-0.3,0.7-0.4,1c-0.3,0.3-0.6,0.5-0.8,0.7c-0.2,0.2-0.5,0.4-0.9,0.5c0.3-1.1,0.8-2,1.3-2.9c0.6-0.8,1.2-1.6,1.9-2.3&#xA;&#x9;&#x9;C74.7,59.3,74.6,59.6,74.5,59.9L74.5,59.9z M74.5,59.9">
  </path>
  <path class="st0" d="M103.5,51.6c-0.2,0-0.4,0.1-0.6,0.3c-0.2,0.2-0.3,0.4-0.5,0.6c-0.1,0.2-0.2,0.5-0.4,0.7&#xA;&#x9;&#x9;c-0.1,0.2-0.2,0.4-0.2,0.5c-0.1,0.2-0.2,0.4-0.2,0.5c0,0.1-0.1,0.3-0.1,0.4c0,0.1-0.1,0.2-0.1,0.3c-0.1,0.1-0.1,0.3-0.2,0.4&#xA;&#x9;&#x9;c-0.4,0.8-0.8,1.6-1.3,2.3c-0.4,0.6-0.8,1.1-1.2,1.7c0.1-0.5,0-1-0.2-1.3c-0.3-0.5-0.7-0.8-1.4-1h-0.8c-0.7,0.2-1.4,0.5-2,0.9&#xA;&#x9;&#x9;c-0.6,0.4-1.2,0.9-1.7,1.5c-0.5,0.6-1,1.2-1.3,1.8c-0.4,0.6-0.7,1.3-1,1.9c-0.2,0.3-0.3,0.7-0.5,1.2c-0.1,0.3-0.2,0.6-0.2,0.9&#xA;&#x9;&#x9;c-0.2,0.1-0.4,0.2-0.6,0.3c-0.2,0.1-0.5,0.1-0.8,0.1c-0.2,0-0.4-0.1-0.6-0.3c-0.2-0.2-0.3-0.4-0.3-0.7c-0.1-0.3-0.1-0.6-0.1-0.8&#xA;&#x9;&#x9;c0-0.3,0-0.6,0-0.9c0-0.7,0.1-1.4,0.3-2c0.2-0.6,0.3-1.2,0.3-1.8c0-0.3-0.2-0.6-0.4-0.8c-0.2-0.2-0.6-0.3-1.1-0.2&#xA;&#x9;&#x9;c-0.4,0.1-0.8,0.3-1.2,0.6c-0.4,0.3-0.7,0.6-1.1,1c-0.3,0.3-0.6,0.7-0.9,1c-0.2,0.2-0.3,0.3-0.5,0.5c0.1-0.1,0.2-0.3,0.3-0.4&#xA;&#x9;&#x9;c0.2-0.3,0.4-0.6,0.6-0.9c0.2-0.3,0.2-0.6,0.2-0.9c0-0.3-0.3-0.5-0.9-0.6h-0.1c-0.2,0.1-0.4,0.1-0.6,0.3c-0.1,0.1-0.3,0.3-0.3,0.4&#xA;&#x9;&#x9;c-0.1,0.2-0.2,0.3-0.2,0.5c-0.1,0.2-0.1,0.3-0.2,0.5c-0.2,0.3-0.4,0.6-0.6,0.9c-0.2,0.3-0.3,0.6-0.5,0.9c-0.3,0.6-0.7,1.2-1.1,1.7&#xA;&#x9;&#x9;c-0.4,0.6-0.7,1.3-0.9,1.9l0,0l0,0c0.1,0.1,0.2,0.2,0.3,0.3c0.1,0.1,0.3,0.2,0.6,0.2c0.3,0,0.5-0.1,0.7-0.2&#xA;&#x9;&#x9;c0.2-0.1,0.4-0.2,0.5-0.4c0.1-0.1,0.3-0.3,0.4-0.5c0.1-0.1,0.3-0.3,0.4-0.4c0.3-0.3,0.6-0.6,0.8-0.9c0.3-0.3,0.5-0.6,0.8-0.9&#xA;&#x9;&#x9;c0.2-0.3,0.5-0.6,0.8-0.9c0.3-0.3,0.6-0.6,0.8-0.9c0.2-0.1,0.3-0.3,0.5-0.4c0.1-0.2,0.3-0.3,0.5-0.5c0.1-0.1,0.3-0.3,0.4-0.4&#xA;&#x9;&#x9;c0.1-0.1,0.2-0.1,0.3-0.2l-0.2,1.5c-0.1,0.6-0.1,1.2-0.2,1.8c0,0.5,0,1.1,0.1,1.6c0.1,0.5,0.3,0.9,0.6,1.3c0.2,0.2,0.4,0.4,0.7,0.5&#xA;&#x9;&#x9;c0.3,0.1,0.6,0.2,0.9,0.2c0.1,0,0.2,0,0.3,0c0.3-0.1,0.6-0.2,0.9-0.3c0,0.3,0.1,0.5,0.3,0.8c0.2,0.3,0.6,0.5,1.2,0.5&#xA;&#x9;&#x9;c0.2,0,0.5,0,0.6,0c0.2,0,0.4-0.1,0.5-0.2c0.1-0.1,0.3-0.2,0.5-0.2c0.2-0.1,0.3-0.2,0.5-0.2c0.8-0.5,1.6-1.1,2.2-1.8&#xA;&#x9;&#x9;c0.7-0.6,1.3-1.3,1.9-2.1c0.6-0.7,1.2-1.5,1.7-2.2c0.4-0.6,0.8-1.2,1.3-1.9c-0.1,0.5-0.2,1-0.3,1.5c-0.1,0.7-0.3,1.5-0.4,2.2&#xA;&#x9;&#x9;c-0.1,0.7-0.2,1.5-0.2,2.2c-0.1,0.7-0.1,1.4,0,2.1c0,0.2,0,0.4,0,0.6c0,0.2,0,0.4,0.1,0.6c0,0.2,0.1,0.4,0.3,0.6&#xA;&#x9;&#x9;c0.1,0.2,0.3,0.3,0.6,0.4l0,0l0,0c0.4-0.1,0.7-0.4,0.7-0.9c0-0.1-0.1-0.2-0.2-0.2c-0.1,0-0.3,0-0.4,0c-0.1-2.7,0.2-5.2,0.8-7.6&#xA;&#x9;&#x9;c0.6-2.4,1.4-4.7,2.4-6.9c0-0.1,0.1-0.2,0.2-0.4c0.1-0.2,0.2-0.4,0.2-0.6c0.1-0.2,0.1-0.4,0-0.6C104,51.7,103.8,51.6,103.5,51.6&#xA;&#x9;&#x9;L103.5,51.6z M96.7,60.2c-0.1,0.3-0.2,0.5-0.3,0.8c-0.1,0.3-0.2,0.5-0.2,0.8c-0.1,0.2-0.1,0.5-0.1,0.7c-0.4,0.4-0.7,0.7-1.1,1.1&#xA;&#x9;&#x9;c-0.4,0.4-0.8,0.7-1.2,1.1c-0.4,0.3-0.8,0.7-1.3,0.9c-0.4,0.3-0.9,0.5-1.5,0.7c0-0.3,0-0.6,0-0.9c0.1-0.4,0.2-0.7,0.3-1.1&#xA;&#x9;&#x9;c0.1-0.4,0.3-0.8,0.6-1.2c0.2-0.4,0.5-0.8,0.7-1.2c0.2-0.3,0.4-0.7,0.7-1c0.3-0.4,0.6-0.7,0.9-1c0.3-0.3,0.6-0.6,1-0.8&#xA;&#x9;&#x9;c0.3-0.2,0.7-0.4,1-0.5h0c0.1,0,0.1,0,0.2,0.1c0.1,0,0.1,0.1,0.2,0.2c0,0.1,0.1,0.2,0.1,0.3c0,0.1,0,0.2,0,0.3&#xA;&#x9;&#x9;C96.9,59.7,96.8,60,96.7,60.2L96.7,60.2z M126.4,67.9c-0.2-0.1-0.4-0.2-0.6-0.3c-0.3-0.1-0.5-0.1-0.8-0.1c-0.3,0-0.6,0-0.8-0.1&#xA;&#x9;&#x9;c-0.7,0-1.4,0-2.1,0c-1.4,0.1-2.9,0.2-4.3,0.4c-0.7,0.1-1.3,0.2-1.9,0.2c0.9-2.1,2-4.2,3.2-6.1c1.3-1.9,2.6-3.7,4-5.5&#xA;&#x9;&#x9;c0.1,0,0.3,0,0.4,0c0.2,0,0.3,0,0.5-0.1c0.4-0.4,0.7-0.7,0.9-1.1c0.2-0.4,0.5-0.7,0.8-1.1c0.3-0.3,0.6-0.7,0.9-1.1&#xA;&#x9;&#x9;c0.3-0.4,0.5-0.8,0.6-1.3c-0.1-0.1-0.1-0.1-0.1-0.2c-0.1-0.1-0.3-0.2-0.5-0.3c-0.2-0.1-0.4-0.1-0.8,0c-0.1,0-0.2,0.1-0.3,0.1&#xA;&#x9;&#x9;c-0.4,0.2-0.8,0.4-1.1,0.7c-0.3,0.3-0.7,0.7-1,1c-2,2.2-3.8,4.6-5.3,7.1c-1.5,2.6-2.8,5.3-3.8,8.1c-1.4,0.2-2.7,0.4-4.1,0.7&#xA;&#x9;&#x9;c-1.3,0.3-2.6,0.6-3.8,0.9c0,0.1-0.1,0.1-0.1,0.2c-0.1,0-0.1,0.1-0.2,0.1c-0.1,0.5,0,0.8,0.3,0.9c0.3,0.1,0.6,0.2,1.1,0.1&#xA;&#x9;&#x9;c0.5,0,1-0.1,1.5-0.3c0.5-0.1,1-0.3,1.4-0.4c0.7-0.2,1.3-0.3,1.9-0.4c0.5-0.1,1.1-0.2,1.6-0.3c0.1,0.1,0.1,0.2,0.2,0.3&#xA;&#x9;&#x9;c0.1,0.1,0.2,0.2,0.5,0.2c0.2,0,0.4-0.1,0.5-0.3c0.1-0.2,0.2-0.3,0.3-0.5c0.7-0.1,1.4-0.2,2.1-0.3c0.8-0.1,1.5-0.2,2.3-0.3&#xA;&#x9;&#x9;c0.8-0.1,1.6-0.2,2.4-0.2c0.8,0,1.6-0.1,2.3,0c0.2,0,0.4,0,0.6,0.1c0.2,0.1,0.4,0.1,0.7,0.1c0.2,0,0.4,0,0.6-0.1&#xA;&#x9;&#x9;c0.2-0.1,0.3-0.2,0.4-0.4C126.7,68.1,126.6,68,126.4,67.9L126.4,67.9z M114,51.5c0.1,0.1,0.3,0.1,0.5,0.1c0.2,0,0.3,0,0.5,0&#xA;&#x9;&#x9;c1.4-0.2,2.8-0.4,4.3-0.6c1.2-0.2,2.4-0.3,3.6-0.5c0.8-0.1,1.7-0.2,2.5-0.3c1.7-0.2,3.5-0.4,5.2-0.5c0.8,0,1.7,0,2.5,0&#xA;&#x9;&#x9;c0.4,0,0.8,0.1,1.2,0.2c0.4,0.1,0.8,0,1.1-0.2c0-0.3-0.2-0.5-0.6-0.6c-0.5-0.1-0.9-0.2-1.4-0.3c-0.5-0.1-1.1-0.1-1.6-0.1&#xA;&#x9;&#x9;c-0.5,0-1,0-1.3,0.1c-2.3,0.1-4.5,0.2-6.8,0.4c-2.3,0.2-4.5,0.4-6.5,0.7c-0.3,0-0.7,0.1-1.1,0.1c-0.4,0-0.7,0.1-1.1,0.1&#xA;&#x9;&#x9;c-0.3,0.1-0.6,0.2-0.9,0.3c-0.2,0.1-0.4,0.4-0.5,0.6C113.8,51.3,113.8,51.4,114,51.5L114,51.5z M114,51.5">
  </path>
  <path class="st0" d="M136.1,64.9L136.1,64.9c-0.2-0.1-0.3-0.1-0.5-0.1c-0.1,0-0.2,0.1-0.3,0.2c-0.1,0.1-0.2,0.1-0.3,0.2&#xA;&#x9;&#x9;c-0.1,0.1-0.2,0.1-0.3,0.1c-0.2,0.1-0.4,0.2-0.7,0.3c-0.2,0.1-0.5,0.1-0.8,0.1c-0.2,0-0.4-0.1-0.6-0.3c-0.1-0.2-0.3-0.4-0.3-0.7&#xA;&#x9;&#x9;c-0.1-0.3-0.1-0.6-0.1-0.8c0-0.3,0-0.6,0-0.9c0-0.7,0.1-1.4,0.3-2c0.2-0.6,0.3-1.2,0.3-1.8c0-0.3-0.2-0.6-0.4-0.8&#xA;&#x9;&#x9;c-0.2-0.2-0.6-0.3-1.1-0.2c-0.4,0.1-0.8,0.3-1.2,0.6c-0.4,0.3-0.7,0.6-1.1,1c-0.3,0.3-0.6,0.7-0.9,1c-0.2,0.2-0.3,0.3-0.5,0.5&#xA;&#x9;&#x9;c0.1-0.1,0.2-0.3,0.3-0.4c0.2-0.3,0.4-0.6,0.6-0.9c0.2-0.3,0.2-0.6,0.2-0.9c0-0.3-0.3-0.5-0.9-0.6h-0.1c-0.2,0.1-0.4,0.2-0.6,0.3&#xA;&#x9;&#x9;c-0.1,0.1-0.3,0.3-0.4,0.4c-0.1,0.2-0.2,0.3-0.2,0.5c-0.1,0.2-0.1,0.3-0.2,0.4c-0.2,0.3-0.4,0.6-0.6,0.9c-0.2,0.3-0.3,0.6-0.5,0.9&#xA;&#x9;&#x9;c-0.3,0.6-0.7,1.2-1.1,1.7c-0.4,0.6-0.7,1.2-0.9,1.9l0,0l0,0c0.1,0.1,0.2,0.2,0.3,0.3c0.1,0.1,0.3,0.2,0.6,0.2&#xA;&#x9;&#x9;c0.3,0,0.5-0.1,0.7-0.2c0.2-0.1,0.4-0.2,0.5-0.4c0.1-0.2,0.3-0.3,0.4-0.5c0.1-0.1,0.3-0.3,0.4-0.4c0.3-0.3,0.6-0.6,0.8-0.9&#xA;&#x9;&#x9;c0.3-0.3,0.5-0.6,0.8-0.9c0.2-0.3,0.5-0.6,0.8-0.9c0.3-0.3,0.6-0.6,0.8-0.9c0.2-0.1,0.3-0.3,0.5-0.4c0.2-0.2,0.3-0.3,0.5-0.5&#xA;&#x9;&#x9;c0.1-0.1,0.3-0.3,0.4-0.4c0.1-0.1,0.2-0.1,0.3-0.2l-0.2,1.5c-0.1,0.6-0.1,1.2-0.2,1.8c0,0.5,0,1.1,0.1,1.6c0.1,0.5,0.3,0.9,0.6,1.3&#xA;&#x9;&#x9;c0.2,0.2,0.4,0.4,0.7,0.5c0.3,0.1,0.6,0.2,0.9,0.2c0.1,0,0.2,0,0.3,0c0.6-0.1,1.1-0.3,1.5-0.6c0.2-0.1,0.4-0.2,0.6-0.4&#xA;&#x9;&#x9;C136.1,65.4,136.1,65.1,136.1,64.9L136.1,64.9L136.1,64.9z M136.1,64.9">
  </path>
  <path class="st0" d="M166.4,57.6L166.4,57.6c-0.1-0.2-0.1-0.3-0.2-0.4c-0.1-0.1-0.3-0.1-0.5-0.1l0,0c-1.1,0.4-2.2,1-3.2,1.7&#xA;&#x9;&#x9;c-0.9,0.7-1.9,1.3-2.8,2c-0.5,0.3-0.9,0.6-1.4,0.9c-0.5,0.3-0.9,0.6-1.5,0.9c-0.2,0.2-0.5,0.3-0.8,0.4c-0.3,0.1-0.5,0.3-0.8,0.4&#xA;&#x9;&#x9;c-0.3,0.1-0.6,0.2-0.9,0.2c-0.3,0-0.6,0.1-1,0c-0.1-0.1-0.2-0.3-0.2-0.5c0-0.2,0-0.5,0.1-0.7c0.1-0.3,0.1-0.5,0.3-0.8&#xA;&#x9;&#x9;c0.1-0.3,0.2-0.5,0.3-0.8c0-0.1,0.1-0.3,0.1-0.5c0.1-0.2,0.1-0.4,0.1-0.6c0-0.2,0-0.4-0.2-0.5c-0.1-0.1-0.3-0.2-0.6-0.2&#xA;&#x9;&#x9;c-0.2,0-0.4,0.1-0.5,0.1c-0.2,0.1-0.3,0.2-0.5,0.3c-0.2,0.1-0.3,0.3-0.4,0.4c-0.1,0.1-0.2,0.2-0.3,0.3c-0.7,0.7-1.4,1.4-2.1,2.1&#xA;&#x9;&#x9;c-0.6,0.6-1.2,1.1-1.9,1.5c0.4-0.9,0.9-1.7,1.5-2.5c0.6-0.9,1.2-1.9,1.7-2.8l0,0l0-0.1c-0.2-0.3-0.4-0.5-0.7-0.5&#xA;&#x9;&#x9;c-0.3,0-0.6,0-0.8,0.2c-0.3,0.2-0.5,0.4-0.7,0.6c-0.2,0.2-0.3,0.5-0.4,0.7c-0.3,0.4-0.6,0.8-0.9,1.3c-0.9,0.3-1.9,0.6-3,0.8&#xA;&#x9;&#x9;c-1.1,0.2-2.2,0.4-3.3,0.6l-0.2,0l0.1-0.2c0.4-0.9,0.9-1.8,1.4-2.6c0.5-0.8,1-1.6,1.6-2.3c0.5-0.7,1.1-1.4,1.6-1.9&#xA;&#x9;&#x9;c0.5-0.5,1-1,1.6-1.4l0.5-0.3l-0.4,0.5c-0.1,0.1-0.1,0.2-0.1,0.4c0,0.2,0,0.2,0.1,0.3c0.1,0,0.2,0,0.2,0.1c0.2,0,0.4-0.1,0.7-0.2&#xA;&#x9;&#x9;c0.2-0.1,0.5-0.3,0.6-0.6c0.2-0.2,0.3-0.5,0.4-0.7c0.1-0.2,0.2-0.5,0.2-0.7c-0.1-0.1-0.2-0.2-0.3-0.3c-0.1,0-0.2-0.1-0.6-0.1&#xA;&#x9;&#x9;c-0.4,0-0.7,0.1-1,0.2c-0.4,0.2-0.7,0.4-1,0.6c-0.3,0.2-0.6,0.5-0.9,0.8l-0.7,0.7c-1.1,1.1-2.2,2.3-3,3.7c-0.9,1.4-1.8,2.9-2.5,4.4&#xA;&#x9;&#x9;l0,0.1h-0.1c-0.3,0-0.5,0-0.7,0.1c-0.2,0-0.5,0.1-0.8,0.1h0l0,0c-0.2-0.1-0.4-0.2-0.6-0.3c-0.2-0.1-0.5-0.2-0.8-0.2&#xA;&#x9;&#x9;c-0.2,0-0.5,0-0.7,0c-0.2,0.1-0.4,0.2-0.5,0.4c0,0.2,0.1,0.3,0.2,0.4c0.2,0.1,0.4,0.2,0.6,0.3c0.3,0.1,0.5,0.1,0.9,0.1&#xA;&#x9;&#x9;c0.3,0,0.6,0,0.9,0h0.1l0,0c0.1,0.2,0.3,0.3,0.4,0.5c0.1,0.2,0.3,0.3,0.4,0.5l0,0l0,0c-0.2,0.6-0.5,1.2-0.6,1.8&#xA;&#x9;&#x9;c-0.2,0.7-0.3,1.3-0.3,2c0,0.3,0,0.6,0,0.9c0,0.3,0.1,0.5,0.2,0.8c0.1,0.2,0.2,0.4,0.4,0.6c0.2,0.1,0.5,0.2,0.8,0.3&#xA;&#x9;&#x9;c0.4-0.1,0.8-0.3,0.9-0.6c0.2-0.3,0.3-0.6,0.3-0.9c0-0.3,0-0.7-0.1-1c-0.1-0.3-0.1-0.7-0.2-1c-0.1-0.3-0.2-0.6-0.3-0.9&#xA;&#x9;&#x9;c-0.2-0.3-0.2-0.7-0.2-0.9c0-0.5,0.2-0.9,0.5-1.3c0.3-0.3,0.5-0.7,0.6-1.1l0-0.1l0.1,0c1.2-0.2,2.4-0.5,3.6-0.7&#xA;&#x9;&#x9;c1-0.2,1.9-0.5,2.8-0.8l-0.5,0.8c-0.2,0.2-0.3,0.5-0.5,0.9c-0.2,0.3-0.4,0.7-0.5,1c-0.1,0.3-0.2,0.7-0.3,1c0,0.3,0.1,0.6,0.3,0.8&#xA;&#x9;&#x9;c0.3,0.2,0.5,0.3,0.8,0.2c0.3,0,0.5-0.1,0.8-0.3c0.2-0.1,0.5-0.3,0.7-0.5c0.2-0.2,0.3-0.3,0.5-0.4c0.3-0.2,0.5-0.5,0.8-0.7&#xA;&#x9;&#x9;c0.3-0.2,0.5-0.4,0.7-0.6c0.5-0.4,0.9-0.9,1.4-1.4c0.3-0.4,0.7-0.7,1.1-1c-0.1,0.2-0.2,0.5-0.2,0.8c-0.1,0.4-0.1,0.8-0.1,1.2&#xA;&#x9;&#x9;c0,0.4,0.1,0.7,0.3,1c0.2,0.3,0.5,0.5,1,0.6c0.9,0,1.6-0.2,2.3-0.4c0.6-0.2,1.2-0.5,1.7-0.9c0.5-0.3,1-0.7,1.5-1.1&#xA;&#x9;&#x9;c0.4-0.3,0.8-0.6,1.2-0.8c0,0.1,0,0.1,0,0.2L160,62c-0.4,0.2-0.7,0.5-1.1,0.8c-0.4,0.3-0.7,0.7-1.1,1c-0.3,0.4-0.7,0.7-1,1.2&#xA;&#x9;&#x9;c-0.3,0.4-0.5,0.9-0.6,1.4c0,0.5,0.1,0.8,0.5,1.1c0.4,0.3,0.8,0.4,1.4,0.5h0.2c0.3,0,0.6,0,0.9-0.1c0.7-0.2,1.4-0.4,2-0.7&#xA;&#x9;&#x9;c0.3-0.2,0.6-0.3,0.9-0.5c0.7-0.4,1.3-0.8,1.9-1.3c0.6-0.5,0.9-1.1,1-1.9v0l0,0c0-0.1-0.1-0.1-0.1-0.2c0-0.1-0.1-0.2-0.1-0.3l0,0&#xA;&#x9;&#x9;l0,0c-0.1-0.1-0.3-0.2-0.4-0.4c-0.1-0.1-0.3-0.3-0.5-0.3c-0.2-0.1-0.4-0.2-0.7-0.2c-0.5-0.1-0.9-0.2-1.4-0.3&#xA;&#x9;&#x9;c-0.2,0-0.3-0.1-0.4-0.2c0.3-0.4,0.6-0.7,1-1c0.5-0.3,0.9-0.6,1.3-0.9c0.5-0.3,0.9-0.6,1.4-0.9C165.6,58.5,166,58.1,166.4,57.6&#xA;&#x9;&#x9;L166.4,57.6L166.4,57.6z M161.6,62.7c0.3,0.1,0.5,0.1,0.8,0.2s0.5,0.1,0.6,0.2c0.1,0.1,0.3,0.2,0.3,0.3c-0.2,0.4-0.5,0.8-0.9,1.1&#xA;&#x9;&#x9;c-0.4,0.3-0.9,0.7-1.3,0.9c-0.5,0.3-1,0.5-1.5,0.8c-0.5,0.2-1.1,0.4-1.7,0.4c-0.1-0.4-0.1-0.8,0.2-1.1c0.2-0.4,0.5-0.7,0.8-1.1&#xA;&#x9;&#x9;c0.3-0.3,0.6-0.7,1-1c0.3-0.3,0.6-0.6,0.9-0.9h0.1C161.1,62.6,161.3,62.7,161.6,62.7L161.6,62.7z M172.8,54.2&#xA;&#x9;&#x9;c0.3,0.1,0.7,0.1,1,0.1c0.3-0.1,0.6-0.2,0.8-0.5c0.2-0.3,0.1-0.6-0.3-0.9l-0.1,0c-0.4-0.1-0.7-0.1-1.1,0c-0.4,0.1-0.7,0.3-0.8,0.5&#xA;&#x9;&#x9;l0,0v0C172.2,53.8,172.4,54.1,172.8,54.2L172.8,54.2z M206.3,60.1c-0.3-0.1-0.7,0-1,0.1c-0.3,0.1-0.6,0.2-0.9,0.3&#xA;&#x9;&#x9;c-0.3,0.1-0.7,0.2-1,0.4c-0.3,0.1-0.6,0.2-0.9,0.3c-0.6,0.3-1.2,0.5-1.8,0.8l-1.7,0.8c-0.2-0.2-0.4-0.4-0.6-0.6&#xA;&#x9;&#x9;c-0.2-0.2-0.5-0.4-0.7-0.6c-0.2-0.2-0.5-0.4-0.7-0.6c-0.2-0.2-0.3-0.4-0.4-0.7c0.4-0.5,1-0.8,1.7-1.1c0.8-0.3,1.6-0.5,2.4-0.6&#xA;&#x9;&#x9;c0,0,0.1,0,0.1,0.1c0,0.1,0.1,0.1,0.1,0.2c0.1,0.1,0.3,0.2,0.5,0.2c0.3,0,0.5,0,0.7-0.2c0.2-0.1,0.3-0.3,0.3-0.5&#xA;&#x9;&#x9;c0.1-0.4-0.1-0.5-0.2-0.6c-0.2-0.1-0.3-0.2-0.5-0.3l0,0c-0.5-0.1-1.1-0.1-1.6-0.1c-0.5,0-1.1,0.1-1.6,0.3c-0.5,0.1-1,0.3-1.5,0.5&#xA;&#x9;&#x9;c-0.4,0.2-0.8,0.4-1.2,0.6c-0.7,0.5-1,0.9-1,1.4c0,0.4,0.2,0.9,0.5,1.3c0.3,0.4,0.7,0.7,1.2,1.1c0.4,0.3,0.7,0.6,1,0.8&#xA;&#x9;&#x9;c-0.5,0.2-1,0.5-1.4,0.7c-0.4,0.3-0.9,0.5-1.3,0.8l-0.2,0.1l0,0c-0.1,0.1-0.3,0.3-0.6,0.4c-0.3,0.2-0.5,0.3-0.8,0.5&#xA;&#x9;&#x9;c-0.3,0.2-0.5,0.4-0.7,0.6c-0.2,0.2-0.3,0.5-0.3,0.8c0,0,0,0.1,0,0.1c0,0,0,0,0,0c-0.1,0-0.3,0.1-0.4,0c-0.2-0.1-0.4-0.2-0.5-0.4&#xA;&#x9;&#x9;c-0.1-0.2-0.3-0.3-0.3-0.6c-0.1-0.2-0.1-0.5-0.2-0.7c0-0.2-0.1-0.5-0.1-0.7c0-0.5-0.1-1,0-1.6c0-0.6,0.1-1.1,0.2-1.7&#xA;&#x9;&#x9;c0-0.2,0.1-0.5,0.2-0.9c0.1-0.4,0.2-0.8,0.2-1.2c0-0.4,0-0.8-0.1-1c-0.1-0.3-0.4-0.5-0.8-0.5c-0.4,0-0.7,0.1-1,0.4&#xA;&#x9;&#x9;c-0.3,0.2-0.5,0.5-0.7,0.7c-0.6,0.6-1.2,1.3-1.8,2l-1.1,1.4c0.3-0.6,0.5-1.1,0.8-1.7c0.4-0.8,0.7-1.5,1.1-2.3&#xA;&#x9;&#x9;c0.1-0.1,0.1-0.2,0.2-0.4c0.1-0.1,0.1-0.3,0.2-0.4c0-0.1,0.1-0.3,0-0.4c0-0.2-0.1-0.3-0.2-0.4l0,0h0c-0.2,0-0.4,0.1-0.6,0.2&#xA;&#x9;&#x9;c-0.1,0.1-0.3,0.2-0.4,0.3l-0.3,0.3c-0.1,0.1-0.2,0.2-0.3,0.3c-0.4,0.3-0.8,0.5-1.2,0.8c-0.4,0.2-0.8,0.5-1.3,0.7&#xA;&#x9;&#x9;c-0.5,0.2-1,0.4-1.5,0.5c-0.6,0.1-1.2,0.2-1.8,0.2c-0.1-0.1-0.2-0.2-0.2-0.4l0,0c0-0.2-0.1-0.3-0.1-0.5c0-0.2-0.1-0.4-0.2-0.5&#xA;&#x9;&#x9;c-0.1-0.2-0.3-0.2-0.7-0.3c-0.3,0-0.7,0.1-1,0.2c-0.3,0.2-0.6,0.4-0.8,0.6c-0.2,0.2-0.4,0.5-0.6,0.7c-0.1,0.2-0.3,0.4-0.4,0.6&#xA;&#x9;&#x9;c0,0.1-0.1,0.1-0.1,0.2c0,0-0.1,0.1-0.1,0.1c-0.3,0.3-0.6,0.6-0.9,0.9c-1,0.9-2.1,1.7-3.3,2.3c-0.3,0.2-0.6,0.4-0.9,0.5&#xA;&#x9;&#x9;c-0.3,0.2-0.6,0.4-0.9,0.5c-0.3,0.2-0.7,0.3-1.1,0.4c-0.4,0.1-0.8,0.2-1.2,0.2c-0.3-0.2-0.4-0.4-0.4-0.7c0-0.4,0.1-0.9,0.2-1.3&#xA;&#x9;&#x9;c0.2-0.4,0.3-0.8,0.6-1.3c0.2-0.4,0.4-0.8,0.7-1.2c0.2-0.4,0.4-0.7,0.6-1c0.1,0,0.1,0,0.2,0c0.2,0.1,0.4,0.1,0.5,0l0,0&#xA;&#x9;&#x9;c0.2-0.3,0.4-0.6,0.5-0.9c0.1-0.4,0.1-0.7,0.1-0.9l0,0l0,0c-0.1-0.1-0.2-0.1-0.4-0.2c-0.1-0.1-0.3-0.1-0.6,0&#xA;&#x9;&#x9;c-0.1,0-0.2,0.1-0.2,0.1c-0.5,0.2-0.9,0.6-1.3,1.2c-0.4,0.5-0.8,1.1-1.1,1.7c-0.2,0.4-0.4,0.9-0.6,1.3c-0.2,0.4-0.3,0.9-0.5,1.3&#xA;&#x9;&#x9;c-0.1,0.4-0.2,0.8-0.2,1.3c0,0.4,0.1,0.8,0.3,1.2l0.4,0.3c0.1,0.1,0.3,0.2,0.4,0.3c0.3,0.1,0.5,0.1,0.8,0.1c0.2,0,0.4,0,0.6-0.1&#xA;&#x9;&#x9;c1-0.3,2-0.8,2.8-1.2c0.8-0.5,1.6-1,2.3-1.6c0.6-0.4,1.1-0.8,1.6-1.3l0.2-0.2c-0.1,0.4-0.2,0.7-0.3,1.1c-0.1,0.6-0.1,1.1,0.1,1.5&#xA;&#x9;&#x9;c0.2,0.5,0.5,0.8,1.1,1c0.3,0.1,0.6,0.1,1,0.1c0.4,0,0.7-0.1,1-0.2c0.5-0.2,0.9-0.5,1.2-0.9c0.3-0.4,0.6-0.8,0.7-1.3&#xA;&#x9;&#x9;c0.2-0.5,0.3-1,0.3-1.5c0-0.5,0-1,0-1.4c0.6,0,1.2-0.1,1.7-0.3c0.6-0.2,1.1-0.3,1.6-0.5c0.5-0.2,0.9-0.4,1.4-0.7l0.9-0.5&#xA;&#x9;&#x9;c-0.4,0.8-0.9,1.7-1.3,2.5c-0.5,1-1,2-1.4,3c-0.1,0.1-0.1,0.3-0.2,0.5c-0.1,0.2-0.2,0.4-0.2,0.6c0,0.2,0,0.4,0.1,0.6&#xA;&#x9;&#x9;c0.1,0.2,0.3,0.3,0.5,0.4h0c0.2,0,0.5-0.1,0.7-0.3c0.2-0.1,0.3-0.3,0.5-0.4c0.1-0.2,0.3-0.3,0.4-0.5c0.1-0.2,0.2-0.3,0.3-0.5&#xA;&#x9;&#x9;c0.7-0.9,1.4-1.9,2.1-2.9c0.7-0.9,1.4-1.7,2.2-2.4c0,0.3-0.1,0.6-0.1,0.9c-0.1,0.4-0.1,0.9-0.2,1.3c-0.1,0.4-0.1,0.9-0.2,1.4&#xA;&#x9;&#x9;c0,0.5-0.1,0.9,0,1.4c0,0.4,0.1,0.8,0.1,1.2c0.1,0.4,0.2,0.8,0.3,1.1c0.1,0.4,0.3,0.7,0.5,0.9c0.2,0.3,0.5,0.5,0.9,0.6&#xA;&#x9;&#x9;c0.2,0.1,0.4,0.1,0.6,0.1h0.1c0.3,0,0.5-0.1,0.7-0.1c0.2-0.1,0.3-0.1,0.4-0.2c0.1,0,0.3,0,0.4,0c0.1,0,0.2,0,0.2,0&#xA;&#x9;&#x9;c0.5,0,0.9-0.1,1.4-0.2s0.9-0.3,1.3-0.5c0.4-0.2,0.8-0.4,1.2-0.6l1-0.6l0,0c0.2-0.2,0.4-0.5,0.6-0.7c0.2-0.3,0.3-0.6,0.4-0.9v0&#xA;&#x9;&#x9;c0-0.2-0.1-0.4-0.1-0.6c0-0.2-0.1-0.3-0.1-0.5c0.5-0.3,1-0.6,1.6-0.8c0.6-0.3,1.2-0.5,1.8-0.8c0.3-0.1,0.6-0.2,0.9-0.4&#xA;&#x9;&#x9;c0.3-0.1,0.6-0.2,0.9-0.4c0.2-0.1,0.3-0.1,0.5-0.2c0.2,0,0.3-0.1,0.5-0.1c0.2-0.1,0.3-0.1,0.5-0.2c0.1-0.1,0.3-0.2,0.3-0.3l0.1-0.1&#xA;&#x9;&#x9;L206.3,60.1L206.3,60.1z M179.6,62.8c-0.1,0.4-0.2,0.7-0.4,1.1c-0.1,0.3-0.3,0.6-0.6,0.8c-0.1,0.1-0.1,0.1-0.2,0.1&#xA;&#x9;&#x9;c-0.1,0.1-0.2,0.1-0.3,0.2c-0.1,0.1-0.2,0.1-0.4,0.2c-0.1,0-0.2,0.1-0.3,0c-0.2,0-0.3-0.1-0.3-0.3c-0.1-0.2-0.1-0.4-0.1-0.6&#xA;&#x9;&#x9;c0-0.4,0.1-0.7,0.2-1.1c0.1-0.4,0.2-0.7,0.4-1c0.2-0.3,0.4-0.7,0.6-1c0.1-0.2,0.3-0.4,0.4-0.6c0,0.1,0,0.2,0,0.3&#xA;&#x9;&#x9;c0,0.1,0,0.2,0.1,0.3c0.1,0.1,0.2,0.1,0.4,0.1c0.4,0,0.4-0.2,0.4-0.3c0,0,0-0.1,0.1-0.2c0.1,0.2,0.1,0.5,0.1,0.8&#xA;&#x9;&#x9;C179.8,62.1,179.7,62.5,179.6,62.8L179.6,62.8z M197.9,65.1c-0.3,0.3-0.6,0.6-1.1,0.9c-0.5,0.3-1,0.5-1.6,0.6&#xA;&#x9;&#x9;c-0.5,0.1-0.9,0.2-1.4,0.3c0.5-0.6,1.2-1.1,1.9-1.5c0.8-0.4,1.6-0.9,2.4-1.3C198.2,64.4,198.1,64.8,197.9,65.1L197.9,65.1z&#xA;&#x9;&#x9; M197.9,65.1">
  </path>
 </g>
</svg>