<svg xmlns="http://www.w3.org/2000/svg" width="138.63" height="79.7" viewBox="0 0 138.63 79.7">
  <g id="Group_1" data-name="Group 1" transform="translate(-8.053 768.153)">
    <path id="Path_1" data-name="Path 1" d="M18.6-697.976a4.434,4.434,0,0,0,2.41,4c2.486,1.1,10.528-.837,13.679-1.083s3.762,2.109,3.762,2.109a4.527,4.527,0,0,0-3.4-4.532c-3.688-1.189-10.125,1.63-13.427,1.107-2.535-.4-3.021-1.6-3.021-1.6" transform="translate(0.676 4.499)" fill="#461e18"/>
    <path id="Path_2" data-name="Path 2" d="M109.173-693.022a4.434,4.434,0,0,1,2.41-4c2.486-1.1,10.528.838,13.679,1.083s3.762-2.109,3.762-2.109a4.527,4.527,0,0,1-3.4,4.532c-3.688,1.189-10.125-1.63-13.427-1.107-2.535.4-3.021,1.6-3.021,1.6" transform="translate(6.483 4.494)" fill="#461e18"/>
    <path id="Path_3" data-name="Path 3" d="M17.363-696.34a5.687,5.687,0,0,1-4.943-1.23,6.764,6.764,0,0,1-1.017-3.939c-.093-6.062.082-18.552,0-21.3a3.553,3.553,0,0,0-3.35-3.716,5.312,5.312,0,0,1,5.783,2.048,4.065,4.065,0,0,1,.59,2.317c0,3.366-.028,14.344-.028,20.187a9.74,9.74,0,0,0,.434,3.133c1.114,2.358,2.53,2.5,2.53,2.5" transform="translate(0 2.656)" fill="#461e18"/>
    <path id="Path_4" data-name="Path 4" d="M129.582-696.413a5.687,5.687,0,0,0,4.943-1.23,6.768,6.768,0,0,0,1.017-3.94c.093-6.062-.082-18.553,0-21.3a3.553,3.553,0,0,1,3.35-3.716,5.313,5.313,0,0,0-5.783,2.047,4.08,4.08,0,0,0-.59,2.318c0,3.366.028,14.344.028,20.187a9.739,9.739,0,0,1-.434,3.133c-1.114,2.358-2.53,2.5-2.53,2.5" transform="translate(7.791 2.652)" fill="#461e18"/>
    <path id="Path_5" data-name="Path 5" d="M26.939-742.355l-.043.029c-.2.41-1.135,2.321-1.956,3.837a4.208,4.208,0,0,1-2.527,2.269,3.341,3.341,0,0,1-1.97-.1,3.7,3.7,0,0,0,2.77,1.932c1.628.3,3.317-.609,4.635-2.479a19.84,19.84,0,0,0,1.38-2.663A43.649,43.649,0,0,1,33.5-747.1,41.042,41.042,0,0,1,45.908-757.4c8.737-4.873,19.736-7.557,30.971-7.557,11.276,0,22.307,2.7,31.06,7.607a41.533,41.533,0,0,1,11.835,9.64,40.637,40.637,0,0,1,4.716,8.186,19.528,19.528,0,0,0,1.367,2.657c1.319,1.871,3.014,2.774,4.636,2.479a3.725,3.725,0,0,0,2.765-1.93,3.346,3.346,0,0,1-1.964.1,4.2,4.2,0,0,1-2.526-2.269c-.743-1.37-1.541-2.984-1.767-3.445-6.768-15.687-26.908-26.219-50.122-26.219-22.889,0-42.946,10.34-49.909,25.73Z" transform="translate(0.794)" fill="#461e18"/>
    <path id="Path_6" data-name="Path 6" d="M46.223-698.013c1.274,0,2,.631,2,1.741a1.755,1.755,0,0,1-2,1.84h-1V-693H44.1v-5.013Zm-1,2.636h.939c.63,0,.989-.287.989-.86s-.359-.837-.989-.837h-.939Z" transform="translate(2.311 4.497)" fill="#461e18"/>
    <rect id="Rectangle_1" data-name="Rectangle 1" width="1.131" height="5.012" transform="translate(52.333 -693.516)" fill="#461e18"/>
    <path id="Path_7" data-name="Path 7" d="M53.911-697.075v1.088h2.42v.939h-2.42v1.11h2.763V-693H52.78v-5.012H56.6v.938Z" transform="translate(2.867 4.497)" fill="#461e18"/>
    <path id="Path_8" data-name="Path 8" d="M60.565-694.432H59.412V-693H58.281v-5.013h2.176c1.31,0,2.055.631,2.055,1.741a1.655,1.655,0,0,1-.937,1.619L62.642-693H61.359Zm-.107-.945c.622,0,.981-.287.981-.86s-.359-.837-.981-.837H59.412v1.7Z" transform="translate(3.22 4.497)" fill="#461e18"/>
    <path id="Path_9" data-name="Path 9" d="M69.207-695.5a2.577,2.577,0,0,1-2.692,2.556,2.573,2.573,0,0,1-2.692-2.556,2.557,2.557,0,0,1,2.692-2.542,2.562,2.562,0,0,1,2.692,2.542m-4.225,0a1.558,1.558,0,0,0,1.546,1.568,1.535,1.535,0,0,0,1.518-1.568,1.522,1.522,0,0,0-1.518-1.554,1.541,1.541,0,0,0-1.546,1.554" transform="translate(3.575 4.494)" fill="#461e18"/>
    <path id="Path_10" data-name="Path 10" d="M74.835-695.525v1.926a3.713,3.713,0,0,1-2.034.651,2.563,2.563,0,0,1-2.671-2.556,2.587,2.587,0,0,1,2.735-2.542,3.156,3.156,0,0,1,2.012.73l-.637.81a2.1,2.1,0,0,0-1.375-.559,1.545,1.545,0,0,0-1.575,1.561,1.554,1.554,0,0,0,1.582,1.568,2.28,2.28,0,0,0,.981-.272v-1.317Z" transform="translate(3.98 4.494)" fill="#461e18"/>
    <path id="Path_11" data-name="Path 11" d="M77.51-693.974l-.394.974H75.949l2.176-5.012h1.167L81.433-693h-1.21l-.394-.974Zm1.167-2.857-.795,1.948h1.582Z" transform="translate(4.353 4.497)" fill="#461e18"/>
    <path id="Path_12" data-name="Path 12" d="M84.885-694.432H83.732V-693H82.6v-5.013h2.177c1.311,0,2.055.631,2.055,1.741a1.655,1.655,0,0,1-.937,1.619L86.962-693H85.68Zm-.107-.945c.624,0,.981-.287.981-.86s-.358-.837-.981-.837H83.732v1.7Z" transform="translate(4.779 4.497)" fill="#461e18"/>
    <path id="Path_13" data-name="Path 13" d="M91.988-693l-2.428-3.215V-693H88.479v-5.012H89.51l2.435,3.222v-3.222h1.075V-693Z" transform="translate(5.156 4.497)" fill="#461e18"/>
    <rect id="Rectangle_2" data-name="Rectangle 2" width="1.132" height="5.012" transform="translate(100.348 -693.516)" fill="#461e18"/>
    <path id="Path_14" data-name="Path 14" d="M98.924-693.974,98.53-693H97.363l2.177-5.012h1.167L102.848-693h-1.21l-.394-.974Zm1.167-2.857-.795,1.948h1.582Z" transform="translate(5.725 4.497)" fill="#461e18"/>
    <path id="Path_15" data-name="Path 15" d="M31.974-709.466a3.645,3.645,0,0,1-.277,1.333,3.726,3.726,0,0,1-.889,1.3,4.676,4.676,0,0,1-1.575.977,5.679,5.679,0,0,1-2.1.379,5.418,5.418,0,0,1-2.04-.364,3.537,3.537,0,0,1-2.2-2.346,3.019,3.019,0,0,1-.132-.846,4.075,4.075,0,0,1,.773-2.375l.131.1a3.409,3.409,0,0,0-.481,1.662,3.124,3.124,0,0,0,.5,1.748,3.4,3.4,0,0,0,1.326,1.181,3.708,3.708,0,0,0,1.7.422,3.486,3.486,0,0,0,1.465-.277,1.913,1.913,0,0,0,.874-.744,1.889,1.889,0,0,0,.277-.977,1.841,1.841,0,0,0-.364-1.042,3.055,3.055,0,0,0-1.079-.925l-2.375-1.4a3.137,3.137,0,0,1-1.807-2.74,2.764,2.764,0,0,1,1.049-2.318,3.753,3.753,0,0,1,2.375-.685q.962,0,2.45.147h1.136l-.306,2.375h-.146a1.575,1.575,0,0,0-.627-1.3,2.51,2.51,0,0,0-1.6-.5,2.8,2.8,0,0,0-1.5.335,1.128,1.128,0,0,0-.568.89.755.755,0,0,0,.2.641,1.848,1.848,0,0,0,.436.358l.394.226a2.306,2.306,0,0,0,.248.132l2.725,1.559a4.048,4.048,0,0,1,1.428,1.268,3.148,3.148,0,0,1,.583,1.792" transform="translate(0.943 3.254)" fill="#461e18"/>
    <path id="Path_16" data-name="Path 16" d="M39.012-716.472v8.438a.91.91,0,0,0,.284.641.894.894,0,0,0,.648.263h.189v.146H34.9v-.146h.189a.9.9,0,0,0,.649-.263.894.894,0,0,0,.284-.627v-8.452H34.581a1.884,1.884,0,0,0-1.371.517,1.877,1.877,0,0,0-.495,1.377v.1l-.146.015v-3a3.527,3.527,0,0,0,.736.176,6.058,6.058,0,0,0,.983.087h6.457a5.931,5.931,0,0,0,.976-.087,3.934,3.934,0,0,0,.744-.176v3l-.147-.015v-.1a1.736,1.736,0,0,0-.874-1.661,2.288,2.288,0,0,0-1.006-.233Z" transform="translate(1.572 3.249)" fill="#461e18"/>
    <path id="Path_17" data-name="Path 17" d="M52.863-707.126h.117v.146H47.457v-.146h.131a.588.588,0,0,0,.482-.2.6.6,0,0,0,.16-.365,1.02,1.02,0,0,0-.072-.358l-.569-1.354H44.47l-.583,1.354a.911.911,0,0,0-.073.307.744.744,0,0,0,.051.255.519.519,0,0,0,.219.248.643.643,0,0,0,.356.109h.131v.146H41.322v-.146h.13a1.275,1.275,0,0,0,.663-.2,1.536,1.536,0,0,0,.547-.591l3.4-7.448a9.045,9.045,0,0,0,.831-2.172h.132l4.619,9.6a1.387,1.387,0,0,0,1.224.8m-8.073-3h2.492l-1.225-2.915Z" transform="translate(2.133 3.245)" fill="#461e18"/>
    <path id="Path_18" data-name="Path 18" d="M62.211-714.347a2.618,2.618,0,0,1-.43,1.45,2.407,2.407,0,0,1-1.042.932,2.986,2.986,0,0,1-1.21.27c-.116,0-.229-.005-.335-.015a2.935,2.935,0,0,1,1.676,1.136,12.6,12.6,0,0,1,.786,1.085c.293.443.5.747.613.911a11.86,11.86,0,0,0,1.748,2.041,7.577,7.577,0,0,0,4.795,1.865v.146a5.267,5.267,0,0,1-2.011.816,7.117,7.117,0,0,1-1.421.146,5.952,5.952,0,0,1-1.494-.2,6.9,6.9,0,0,1-1.544-.612,6.8,6.8,0,0,1-1.538-1.181,8.439,8.439,0,0,1-1.276-1.581q-.5-.807-.86-1.544t-.693-1.45q-.327-.713-.4-.875-.423-.875-.758-.976v-.146h.233a1.931,1.931,0,0,0,1.559-.744,1.712,1.712,0,0,0,.408-.881c.039-.307.06-.5.06-.591a1.9,1.9,0,0,0-.642-1.6,2.3,2.3,0,0,0-1.458-.5h-.642v8.38a.868.868,0,0,0,.278.648.9.9,0,0,0,.655.27h.175V-707H52.214v-.146H52.4a.894.894,0,0,0,.648-.263.915.915,0,0,0,.285-.641v-8.089a.9.9,0,0,0-.467-.8.978.978,0,0,0-.466-.116h-.176v-.147h5.684a5.9,5.9,0,0,1,3.293.759,2.365,2.365,0,0,1,1.006,2.1" transform="translate(2.831 3.266)" fill="#461e18"/>
    <path id="Path_19" data-name="Path 19" d="M62.982-717.2a7.665,7.665,0,0,1,3.774.912,6.012,6.012,0,0,1,2.74,3.109,7.414,7.414,0,0,1,1.852-2.8,4.808,4.808,0,0,1,1.3-.891,3.223,3.223,0,0,1,1.334-.315,1.66,1.66,0,0,1,.2.013v.134a2.381,2.381,0,0,0-1.407.65,6.668,6.668,0,0,0-1.3,1.515,12.916,12.916,0,0,0-.983,1.857,6.736,6.736,0,0,0-.518,1.7v3.337a.777.777,0,0,0,.452.725.986.986,0,0,0,.481.12h.175L71.1-707H65.868v-.134h.189a.919.919,0,0,0,.648-.248.83.83,0,0,0,.284-.6v-3.337a10.453,10.453,0,0,0-1.107-2.8,9.255,9.255,0,0,0-.962-1.38,5,5,0,0,0-1.254-1.052,3.36,3.36,0,0,0-1.5-.489v-.134c.282-.018.553-.027.816-.027" transform="translate(3.469 3.266)" fill="#461e18"/>
    <path id="Path_20" data-name="Path 20" d="M76.136-717.8a4.289,4.289,0,0,1,2.033-.554,3.983,3.983,0,0,1,1.828.422,7.3,7.3,0,0,1,2.842,2.813l2.608,4.241,4.329-6.457h.131l1.647,8.527a7.322,7.322,0,0,0,1.472,3.644,2.62,2.62,0,0,0,1.968.8h.219v.146a4.826,4.826,0,0,1-1.88.379,4.478,4.478,0,0,1-3.367-1.517A7.136,7.136,0,0,1,88.29-708.9l-.67-3.074-2.492,3.7a3.843,3.843,0,0,0-.437.845,2.185,2.185,0,0,0-.175.846h-.131l-3.542-6.063-.728,4.9v.059a.648.648,0,0,0,.167.43.512.512,0,0,0,.4.2H80.9v.131H77.71v-.146h.233a1.074,1.074,0,0,0,.693-.241,1.035,1.035,0,0,0,.371-.648l1.006-6.253a13.444,13.444,0,0,0-1.647-2.3,2.887,2.887,0,0,0-2.07-1.136H76.18Z" transform="translate(4.365 3.192)" fill="#461e18"/>
    <path id="Path_21" data-name="Path 21" d="M93.824-707.147a.883.883,0,0,0,.648-.269.933.933,0,0,0,.284-.649v-2.784l-.917.525-.379-.67,1.3-.743v-4.4a.9.9,0,0,0-.466-.8.991.991,0,0,0-.466-.116h-.189v-.146h5.232v.146h-.189a.91.91,0,0,0-.657.269.874.874,0,0,0-.276.649v2.667l1.122-.655.379.671-1.5.875v4.837h1.792a2.8,2.8,0,0,0,1.879-.7,3.769,3.769,0,0,0,1.152-1.938h.145L102.16-707H93.635v-.146Z" transform="translate(5.475 3.266)" fill="#461e18"/>
    <path id="Path_22" data-name="Path 22" d="M101.8-717.21a7.822,7.822,0,0,1,3.816.912,6.037,6.037,0,0,1,2.769,3.112,7.427,7.427,0,0,1,1.872-2.8,4.844,4.844,0,0,1,1.318-.892,3.266,3.266,0,0,1,1.348-.315,1.657,1.657,0,0,1,.205.013v.134a2.418,2.418,0,0,0-1.422.651,6.641,6.641,0,0,0-1.318,1.516,12.94,12.94,0,0,0-.994,1.858,6.723,6.723,0,0,0-.524,1.7v3.34a.775.775,0,0,0,.458.724.989.989,0,0,0,.485.121h.177L110-707h-5.289v-.134h.192a.935.935,0,0,0,.656-.248.826.826,0,0,0,.287-.6v-3.34a10.365,10.365,0,0,0-1.119-2.8,9.141,9.141,0,0,0-.973-1.381,5.058,5.058,0,0,0-1.267-1.054,3.415,3.415,0,0,0-1.516-.49v-.134q.428-.027.825-.027" transform="translate(5.957 3.266)" fill="#461e18"/>
    <path id="Path_23" data-name="Path 23" d="M124.328-717.044a.865.865,0,0,0-.627.255.883.883,0,0,0-.277.619v7.52a7.206,7.206,0,0,0,.146,1.661l.044.2h-.131l-6.982-6.208v4.969a.824.824,0,0,0,.452.773.861.861,0,0,0,.436.116h.278v.146h-5.334v-.146h.277a.87.87,0,0,0,.627-.254.848.848,0,0,0,.263-.634v-7.563a7.142,7.142,0,0,0-.146-1.619l-.044-.2h.146l6.981,6.208v-4.955a.9.9,0,0,0-.277-.633.869.869,0,0,0-.627-.255h-.278v-.146h5.334v.146Z" transform="translate(6.685 3.253)" fill="#461e18"/>
    <path id="Path_24" data-name="Path 24" d="M68.551-741.531a.923.923,0,0,1,.7,1.005,1.711,1.711,0,0,0,.135.748c.046.107.092.216.145.319a1.407,1.407,0,0,0,.084.151c.068.077.05.076-.052,0l-.451-.047a4.484,4.484,0,0,1,.765.046,1.223,1.223,0,0,1,.272.04c.084.007.03.022-.162.047a.424.424,0,0,0,.139-.167c.189-.294.88-.293,1.149-.13a1.55,1.55,0,0,1,.208.131c.213.181-.209,0-.005.048a1.955,1.955,0,0,1,.481.174c.392.2-.412.411-.521.414-.827.023-1.657.028-2.482.1l.616-.292c0,.054.005.11.008.164L69.1-739l.864.088c.11.012.477.034.477.216,0,.03,0,.058,0,.087,0,.231-.476.283-.616.291l-.761.047.615-.291a8.714,8.714,0,0,0-.043,1.141c.023.276.061.55.089.826a11.578,11.578,0,0,1,.134,1.313,13.814,13.814,0,0,1-1.051,4.694,11.719,11.719,0,0,1-1.93,3.274.95.95,0,0,1-.766.225c-.08-.005-.621-.092-.459-.285a12.709,12.709,0,0,0,2.529-5.194,15.3,15.3,0,0,0,.408-2.522,6.613,6.613,0,0,0-.1-1.193l-.105-.974a7.769,7.769,0,0,1,.032-1.228c.014-.234.464-.282.616-.292l.762-.047-.616.292v-.086l.478.216-.864-.088c-.119-.012-.466-.031-.478-.216l-.01-.165c-.014-.231.487-.28.615-.291.825-.074,1.655-.079,2.483-.1l-.522.415-.173-.088.384.094a1.889,1.889,0,0,1-.894-.357l1.149-.13a1.516,1.516,0,0,1-1.392.572,5.9,5.9,0,0,1-.644-.07,2.74,2.74,0,0,1-.661-.081c-.337-.136-.5-.64-.607-.959-.131-.382.121-1.078-.364-1.25-.235-.084-.227-.245-.021-.359a1.229,1.229,0,0,1,.892-.054" transform="translate(3.691 1.703)" fill="#461e18"/>
    <path id="Path_25" data-name="Path 25" d="M59.776-746.231h2.686a.339.339,0,0,1,.3.132c.048.094-.042.159-.131.159H59.946a.338.338,0,0,1-.3-.132c-.048-.094.041-.159.131-.159" transform="translate(3.307 1.405)" fill="#461e18"/>
    <path id="Path_26" data-name="Path 26" d="M54.905-726.884a8.788,8.788,0,0,1-2.429-3.639,13.385,13.385,0,0,1-1.006-4.541,15.036,15.036,0,0,1,.8-5.417,8.375,8.375,0,0,1,2.49-3.974,8.605,8.605,0,0,1,5.465-1.785c.149,0,.544.056.46.285s-.595.226-.765.223a6.54,6.54,0,0,0-4.143,1.536,8.2,8.2,0,0,0-2.283,3.776,14.009,14.009,0,0,0,.044,9.3,8.9,8.9,0,0,0,2.44,3.913c.378.3-.809.535-1.074.321" transform="translate(2.783 1.405)" fill="#461e18"/>
    <path id="Path_27" data-name="Path 27" d="M54.018-730.9c-.037.242-.127.491.435-.358.06.027.509-.786.569-.76l2.624-2.956-.712-.579c-.082.089-.163.177-.244.266" transform="translate(2.945 2.09)" fill="#461e18"/>
    <path id="Path_28" data-name="Path 28" d="M54.039-741.316a.8.8,0,0,0,.03,1.212c.426.461.829.944,1.242,1.417.559.637,1.116,1.274,1.693,1.934l.547-.431c-1.173-1.379-2.314-2.722-3.512-4.132" transform="translate(2.931 1.72)" fill="#461e18"/>
    <path id="Path_29" data-name="Path 29" d="M57.543-745.4a8.042,8.042,0,0,0,1.042.046,5.354,5.354,0,0,1,3,1.146l1.557,1.7.157-.162-1.677-1.577a3.863,3.863,0,0,0-4.08-1.152" transform="translate(3.173 1.45)" fill="#461e18"/>
    <path id="Path_30" data-name="Path 30" d="M57.81-742.1c0,1.481.017,2.961.033,4.443,0,.3-.036.667.424.552v-8.036L58-745.176a4.31,4.31,0,0,0-.146.722q-.046,1.176-.044,2.355" transform="translate(3.19 1.473)" fill="#461e18"/>
    <path id="Path_31" data-name="Path 31" d="M58.517-739.541c-.048.7.333,1.006.944,1.311a2.5,2.5,0,0,0,.325-.792c.03-1.563.015-3.127.015-4.8-.736.513-1.357.964-1.308,1.924a19.78,19.78,0,0,1,.024,2.356" transform="translate(3.233 1.56)" fill="#461e18"/>
    <path id="Path_32" data-name="Path 32" d="M63.47-730.373a14.113,14.113,0,0,0,.746-8.659,21.794,21.794,0,0,1-.746,8.659" transform="translate(3.553 1.867)" fill="#461e18"/>
    <path id="Path_33" data-name="Path 33" d="M63.952-736.04c.154,0,.305-.218.458-.334-.16-.107-.32-.307-.478-.305-1.339.023-2.679.067-4.016.149-.186.01-.358.262-.535.4l.166.1c1.468,0,2.938.01,4.405-.016" transform="translate(3.29 2.018)" fill="#461e18"/>
    <path id="Path_34" data-name="Path 34" d="M63.186-730.86c-1.293-1.424-2.574-2.86-3.863-4.288-.039-.043-.116-.05-.271-.113l-.372.378,4.33,4.925c.28-.318.505-.539.177-.9" transform="translate(3.246 2.109)" fill="#461e18"/>
    <path id="Path_35" data-name="Path 35" d="M58.954-737.054a1.72,1.72,0,0,0,.484-.242c1.188-1.186,2.344-2.4,3.548-3.573.435-.423.552-.771.024-1.263l-4.219,4.84.163.238" transform="translate(3.253 1.668)" fill="#461e18"/>
    <path id="Path_36" data-name="Path 36" d="M58.927-744.153a5.42,5.42,0,0,0,.882-.519,5.2,5.2,0,0,0-1.015-.064c-.119.018-.205.255-.306.393.149.069.329.23.439.19" transform="translate(3.233 1.5)" fill="#461e18"/>
    <path id="Path_37" data-name="Path 37" d="M62.154-744.61l2.669.147a2.429,2.429,0,0,0-2.669-.147" transform="translate(3.468 1.49)" fill="#461e18"/>
    <path id="Path_38" data-name="Path 38" d="M62.342-744.85l2.669.147c-.251.121-.5.245-.752.367-.024-.029-.052-.055-.078-.084s-.028-.026,0,0c-.016-.012-.032-.025-.048-.035a1.093,1.093,0,0,0-.1-.066c-.02-.012-.148-.067-.044-.025-.042-.016-.084-.033-.127-.046l-.068-.02c-.054-.014-.046-.012.026.005a.487.487,0,0,0-.147-.026l-.078-.01c.081.007.1.01.054.006s-.095,0-.143-.006c-.069,0-.054,0,.043,0l-.085,0a.594.594,0,0,0-.176.015q.139-.019.032,0l-.09.015a1.289,1.289,0,0,0-.184.037c.139-.046-.062.018-.087.026-.064.019-.128.039-.19.062-.032.012-.065.022-.1.035l-.02.009a1.282,1.282,0,0,1-.891.064c-.076-.028-.192-.068-.2-.165s.1-.165.171-.193a4.979,4.979,0,0,1,2.214-.41,2.11,2.11,0,0,1,1.516.592c.094.112-.063.216-.145.259a1.242,1.242,0,0,1-.608.109l-2.67-.146c-.12-.006-.578-.055-.462-.28s.566-.244.762-.233" transform="translate(3.43 1.474)" fill="#461e18"/>
    <path id="Path_39" data-name="Path 39" d="M64.03-742.31h2.8a2.711,2.711,0,0,0-2.8,0" transform="translate(3.589 1.632)" fill="#461e18"/>
    <path id="Path_40" data-name="Path 40" d="M63.933-742.559h2.8l-.477.253c.072.092-.028-.009-.046-.03s.1.053.021.017a.276.276,0,0,1-.069-.038c.021.026.127.051.033.017l-.071-.027c-.084-.031-.04.021.045.013a.364.364,0,0,1-.081-.021L66-742.394c-.112-.026.157.025.049.009-.067-.01-.133-.02-.2-.026-.026,0-.149-.014-.027,0s-.021,0-.046,0q-.1,0-.195,0c-.032,0-.066,0-.1,0,.171.01.068,0,.023,0-.064,0-.128.011-.192.017l-.109.015c-.116.014.06-.015.012,0s-.123.024-.185.04a.528.528,0,0,0-.156.049c.066-.051.055-.023.01,0l-.066.031c-.039.02-.077.045-.115.068.084-.053-.022.027-.046.053-.162.19-.585.132-.794.078-.11-.03-.561-.174-.4-.367a1.438,1.438,0,0,1,.752-.386,4.575,4.575,0,0,1,1.155-.122,4.632,4.632,0,0,1,1.185.152,1.681,1.681,0,0,1,.917.513c.059.073-.036.158-.087.186a.828.828,0,0,1-.389.067H64.2a1.416,1.416,0,0,1-.48-.087c-.082-.032-.229-.1-.269-.188-.1-.232.371-.253.478-.253" transform="translate(3.551 1.616)" fill="#461e18"/>
    <path id="Path_41" data-name="Path 41" d="M67.328-740.607c-.754.015-1.509.068-2.262.128-.094.006-.177.144-.264.22.02.061.039.122.059.183h2.951c.107-.367-.131-.537-.483-.531" transform="translate(3.638 1.766)" fill="#461e18"/>
    <path id="Path_42" data-name="Path 42" d="M67-740.276c-.285.005-.695.026-1.028.046-.179.011-.358.022-.536.036l-.267.019-.119.01c-.024,0-.207.031-.057,0l.318-.106a.237.237,0,0,1-.03.015l.245-.15a.321.321,0,0,0-.059.048c.024-.025.026-.026.005,0-.049.052-.1.1-.15.154.039-.077.08-.153.12-.23l.057.184c-.077-.038-.154-.075-.231-.112h2.95c-.322.147-.645.293-.967.441a.32.32,0,0,0-.027-.278.347.347,0,0,0-.059-.046c-.026-.017.036.008-.02-.008-.019-.006-.118-.019-.029-.012-.039,0-.078,0-.117,0-.069,0-.2-.029-.232-.112s.065-.184.12-.229a1.346,1.346,0,0,1,.847-.283.9.9,0,0,1,.6.18.512.512,0,0,1,.112.533c-.039.15-.239.251-.364.309a1.413,1.413,0,0,1-.6.133H64.529c-.069,0-.205-.03-.232-.112-.019-.062-.038-.122-.059-.183-.029-.089.066-.179.12-.23-.062.059.068-.072.076-.081a1.093,1.093,0,0,1,.127-.117,1.5,1.5,0,0,1,.624-.279,6.8,6.8,0,0,1,.895-.079q.825-.057,1.653-.075c.069,0,.205.03.232.112s-.064.183-.119.229a1.377,1.377,0,0,1-.848.283" transform="translate(3.602 1.747)" fill="#461e18"/>
    <path id="Path_43" data-name="Path 43" d="M68.41-737.556c-.256-.229-.41-.484-.56-.482a6.349,6.349,0,0,0-2.5.111l.016.2,3.04.167" transform="translate(3.673 1.926)" fill="#461e18"/>
    <path id="Path_44" data-name="Path 44" d="M67.878-737.31c-.1-.088-.184-.184-.273-.28-.034-.035-.067-.072-.1-.1-.018-.017-.036-.032-.054-.047-.035-.023-.035-.023,0,0,.148.014.185.02.112.018h-.082c-.1,0-.2-.005-.3-.01-.128-.006-.255-.016-.384-.025s-.256-.02-.385-.028a2.606,2.606,0,0,0-.3-.009c-.072,0-.145.005-.217.01.117-.009-.038.005-.064.009s-.071.012-.106.019c.076-.017.077-.017,0,0s-.07.02,0,0c-.035.012-.07.027-.105.041.129-.12.255-.24.383-.361.005.068.01.136.015.2L65.79-738l3.04.167c.069,0,.2.039.226.123s-.073.18-.13.223a1.349,1.349,0,0,1-.862.24l-3.04-.168c-.051,0-.22-.04-.227-.123,0-.067-.01-.135-.015-.2-.014-.186.245-.3.382-.361a4.89,4.89,0,0,1,2.285-.253c.156.011.312.025.467.032l.07,0h.1a1.058,1.058,0,0,1,.322.03c.259.083.42.344.612.521s-.23.376-.342.419a1.422,1.422,0,0,1-.477.105.479.479,0,0,1-.32-.068" transform="translate(3.637 1.908)" fill="#461e18"/>
    <path id="Path_45" data-name="Path 45" d="M68.1-734.848c.205-.443.181-.73-.417-.722-.58.006-1.159-.04-1.738-.021a2.491,2.491,0,0,0-.655.207l.074.185.664-.054c.017.07.034.135.041.164l2.03.242" transform="translate(3.669 2.087)" fill="#461e18"/>
    <path id="Path_46" data-name="Path 46" d="M67.527-734.859c.023-.052.046-.1.066-.159a.293.293,0,0,0,.023-.086.525.525,0,0,0,.007-.122c0-.034-.034-.094,0-.047a.253.253,0,0,1-.03-.043c-.01-.026.059.033.01.006-.065-.035.074.027.021.006-.031-.013-.106-.025.029,0-.077-.017.023.007.046,0a.546.546,0,0,1-.1,0c-.088,0-.177,0-.266,0-.344,0-.687-.02-1.032-.025-.081,0-.163,0-.244,0,.137-.005.006,0-.022,0-.084-.005.08-.021.1-.022-.012,0-.131.043-.078.023s-.081.033-.078.032c-.1.041-.208.083-.312.12l.3-.241c.026.063.05.125.076.186l-.647-.211.663-.055c.176-.014.591-.016.648.211l.041.166-.327-.2,2.03.24c.16.019.458.157.249.331a1.2,1.2,0,0,1-.857.149l-2.031-.242c-.119-.014-.293-.063-.326-.2-.014-.054-.029-.11-.041-.164l.647.211-.664.055c-.2.017-.557.012-.647-.212-.026-.062-.05-.123-.076-.186-.049-.121.238-.219.3-.239.111-.038-.037.019.063-.023l.139-.056a2.717,2.717,0,0,1,.462-.144,4.265,4.265,0,0,1,.856-.046c.426,0,.851.028,1.277.026.316,0,.817.006,1.024.3.147.212.03.494-.064.7-.15.329-1.379.285-1.225-.054" transform="translate(3.631 2.072)" fill="#461e18"/>
    <path id="Path_47" data-name="Path 47" d="M67.309-732.339c.136,0,.269-.214.4-.331-.123-.116-.235-.318-.371-.335a8.9,8.9,0,0,0-1.531-.08,3.532,3.532,0,0,0-.858.263l.048.172c.45.054.9.1,1.351.166a6.53,6.53,0,0,0,.957.145" transform="translate(3.648 2.248)" fill="#461e18"/>
    <path id="Path_48" data-name="Path 48" d="M67.442-732.6l-.106.024-.3.12c-.147.073.012-.018-.05.039.026-.023.049-.05.072-.075.067-.073.137-.141.211-.209-.03.094-.061.188-.09.281-.065-.064-.119-.136-.181-.2-.009-.011-.092-.1-.105-.1s.154.023,0,.017c-.246-.011-.492-.052-.74-.065l-.159-.006c.077,0-.113,0-.131,0l-.159,0-.105,0c.072-.01.074-.01.008,0,.165-.034,0,0-.027.014.08-.028.085-.029.017,0l-.1.038q-.219.085-.444.16l.541-.416c.016.057.031.115.048.172l-.227-.123c.387.047.775.089,1.162.142.182.023.362.053.543.091.083.017.167.035.251.049.05.007.1.016.151.021.019,0,.16.006.067.005.144,0,.5.055.312.274a1.169,1.169,0,0,1-.808.322,9.327,9.327,0,0,1-1.226-.167c-.4-.054-.811-.1-1.216-.148-.071-.008-.2-.035-.227-.122l-.048-.171c-.062-.226.418-.375.541-.416-.049.016-.087.031-.017,0l.095-.037.189-.073a3.651,3.651,0,0,1,.634-.179,4.932,4.932,0,0,1,1.041-.027c.281.012.565.034.844.073a.647.647,0,0,1,.391.159c.079.076.142.168.22.246.1.1-.013.21-.09.281.034-.031.016-.015-.005.01l-.071.078a1.752,1.752,0,0,1-.182.175,1.469,1.469,0,0,1-.719.3c-.119.014-.579.065-.51-.182.065-.228.509-.358.7-.381" transform="translate(3.611 2.229)" fill="#461e18"/>
    <path id="Path_49" data-name="Path 49" d="M66.434-729.945a.351.351,0,0,0,.282-.181c.029-.1-.06-.328-.1-.329-.765-.017-1.532-.018-2.3.005-.08,0-.153.185-.265.329.842.065,1.61.132,2.38.176" transform="translate(3.59 2.416)" fill="#461e18"/>
    <path id="Path_50" data-name="Path 50" d="M66.475-730.184H66.5l-.319.032c-.017,0-.095.021-.1.043.005-.012.047-.032.059-.04-.032.024,0,.006,0-.011,0,.044,0,0-.007-.018s-.012-.084-.018-.1a.162.162,0,0,1-.016-.035c-.016-.071-.153-.049.113.053l.446.079c-.766-.018-1.531-.018-2.3.005l.319-.032-.019,0,.227-.088c-.048.027.02-.037-.005,0s-.035.051-.052.078c-.04.061-.079.124-.123.184l-.438-.317,1.193.095.561.042c.1.006.193.014.289.019-.081,0-.078-.005,0,0l.168.009a1.324,1.324,0,0,1,.446.079c.066.029.184.091.184.182,0,.223-.5.254-.634.248-.851-.049-1.7-.12-2.549-.186-.1-.009-.588-.115-.438-.317.112-.152.184-.32.36-.41a2.119,2.119,0,0,1,.908-.109q.64-.013,1.28-.005c.209,0,.418,0,.626.01.256.01.585.046.684.321a.375.375,0,0,1-.024.405,1.159,1.159,0,0,1-.846.292,1.113,1.113,0,0,1-.447-.08c-.065-.028-.184-.089-.183-.181,0-.233.5-.243.634-.248" transform="translate(3.552 2.401)" fill="#461e18"/>
    <path id="Path_51" data-name="Path 51" d="M65.169-728.179l.034-.289-2.056-.1-.006.206Z" transform="translate(3.532 2.538)" fill="#461e18"/>
    <path id="Path_52" data-name="Path 52" d="M64.576-728.134l.034-.29.475.224-2.056-.1.788-.28-.006.206-.475-.224,2.028.185a.842.842,0,0,1,.382.1c.062.041.122.115.072.193a.493.493,0,0,1-.284.165,1.378,1.378,0,0,1-.485.046l-2.027-.183a.993.993,0,0,1-.332-.077c-.054-.026-.145-.075-.143-.148l.006-.206c0-.121.146-.177.24-.211a1.384,1.384,0,0,1,.548-.069l2.056.1a.91.91,0,0,1,.332.077c.049.023.151.077.143.148-.012.1-.023.193-.034.289-.029.234-.444.278-.62.282a1.147,1.147,0,0,1-.45-.054c-.065-.027-.2-.08-.193-.171" transform="translate(3.494 2.522)" fill="#461e18"/>
    <path id="Path_53" data-name="Path 53" d="M61.2-725.876a1.207,1.207,0,0,0,.6-.311q.82-.73,1.6-1.509a3.112,3.112,0,0,0,.652-.833,7.841,7.841,0,0,0,.627-1.76c.35-1.836.64-3.683.934-5.528a2.9,2.9,0,0,0-.029-.808,7,7,0,0,0-.624-3.116.313.313,0,0,1,0-.262c.347-.684-.094-1.136-.455-1.616a4.225,4.225,0,0,1-.369-.551,10.08,10.08,0,0,0-.544-1.07,3.139,3.139,0,0,0-.734-.67c-.819-.6-1.643-1.2-2.489-1.771-.161-.106-.428-.052-.768-.083.5.263.865.419,1.19.64a8.809,8.809,0,0,1,3.988,6.358,16.225,16.225,0,0,1-.773,8.656,6.213,6.213,0,0,1-3.634,3.734,3.248,3.248,0,0,0-.673.514,14.611,14.611,0,0,0,1.5-.014" transform="translate(3.305 1.435)" fill="#461e18"/>
    <path id="Path_54" data-name="Path 54" d="M60.827-726.113a2.046,2.046,0,0,0,.86-.62q.458-.421.9-.859a6.348,6.348,0,0,0,.708-.755,4.8,4.8,0,0,0,.537-1.136,13.671,13.671,0,0,0,.538-2.428q.214-1.227.41-2.458a8.7,8.7,0,0,0,.209-2.411,13.981,13.981,0,0,0-.249-2.172,3.1,3.1,0,0,0-.187-.5,1.594,1.594,0,0,1-.2-.419.642.642,0,0,1,.08-.343.924.924,0,0,0,.03-.592,2.361,2.361,0,0,0-.444-.714,5.1,5.1,0,0,1-.576-.906,3.208,3.208,0,0,0-.615-1.036,9.773,9.773,0,0,0-1.017-.778q-.586-.428-1.181-.845c-.027-.018-.569-.381-.566-.388-.005.011.42.009.095.013-.132,0-.263,0-.395-.013l.347-.37a11.709,11.709,0,0,1,2.059,1.289,9.251,9.251,0,0,1,1.509,1.551,9.031,9.031,0,0,1,1.7,3.945c.593,3.374.5,7.248-1.3,10.267a6.241,6.241,0,0,1-1.627,1.837,5.943,5.943,0,0,1-1.072.636c-.17.078-.364.125-.527.217a4.193,4.193,0,0,0-.522.431l-.713-.44a12.319,12.319,0,0,0,1.343-.015,1.1,1.1,0,0,1,.836.237c.178.215-.111.286-.282.3a15.533,15.533,0,0,1-1.649.013c-.088,0-.986-.217-.713-.439a3.706,3.706,0,0,1,.745-.563,9.291,9.291,0,0,0,1.07-.514,5.678,5.678,0,0,0,1.526-1.435,10.488,10.488,0,0,0,1.737-4.508,18.409,18.409,0,0,0,.027-5.379,9.66,9.66,0,0,0-1.368-4.054,8.533,8.533,0,0,0-1.564-1.8,10.529,10.529,0,0,0-2.153-1.381c-.428-.224.14-.384.347-.371a3.583,3.583,0,0,1,1.168.154,5.961,5.961,0,0,1,1.075.7,21.55,21.55,0,0,1,2.141,1.583c.587.536.764,1.359,1.238,1.985a3.7,3.7,0,0,1,.512.757,1.229,1.229,0,0,1,.1.428,2.644,2.644,0,0,1-.137.571c-.029.185.121.348.2.514a3.15,3.15,0,0,1,.176.505,6.724,6.724,0,0,1,.175,1.253c.027.377.05.753.095,1.129a4.716,4.716,0,0,1-.078,1.356c-.147.923-.295,1.845-.451,2.767a20.523,20.523,0,0,1-.527,2.7,7.609,7.609,0,0,1-.544,1.322,4.427,4.427,0,0,1-.834.987q-.546.541-1.116,1.058a2.211,2.211,0,0,1-1.056.637,1.243,1.243,0,0,1-.881-.151c-.19-.132-.194-.3.061-.354" transform="translate(3.267 1.419)" fill="#461e18"/>
    <path id="Path_55" data-name="Path 55" d="M58.679-732.533q.01,1.346.053,2.69c.04,1.175.282,1.438,1.43,1.644,0-1.215-.051-2.439.018-3.655a2.094,2.094,0,0,0-.872-1.968c-.626.542-.635.542-.63,1.289" transform="translate(3.245 2.201)" fill="#461e18"/>
    <path id="Path_56" data-name="Path 56" d="M57.915-730.126c.012.214.055,2.128.011,2.346h0a2.49,2.49,0,0,1,.7.742c0-1.807-.136-5.366-.133-7.231,0-.529-.3-.582-.861-.449.095,1.516.2,3.053.279,4.592" transform="translate(3.179 2.14)" fill="#461e18"/>
    <path id="Path_57" data-name="Path 57" d="M57.554-734.5c-.869.674-2.685,2.444-2.363,3.134.427-.363,2.659-2.468,2.363-3.134" transform="translate(3.019 2.157)" fill="#461e18"/>
    <path id="Path_58" data-name="Path 58" d="M58.3-735.216a1.275,1.275,0,0,0,.451-1.54c-.305-.655-.7-.724-1.409-.3.3.191.864.369.884.6.068.762-.658.553-1.106.66.226.634.638.828,1.179.583" transform="translate(3.146 1.976)" fill="#461e18"/>
    <path id="Path_59" data-name="Path 59" d="M56.7-736.34c.627.36,1.114.272,1.322-.365l-1.328.146.006.219" transform="translate(3.118 2.016)" fill="#461e18"/>
    <path id="Path_60" data-name="Path 60" d="M52.83-735.846h4.079c-.107-.251-.231-.54-.362-.843-1.043,0-2.093.03-3.141-.012-.632-.025-.727.246-.576.854" transform="translate(2.866 2.016)" fill="#461e18"/>
    <path id="Path_61" data-name="Path 61" d="M68.877-755.292l23.17,2.888,9.218,10.918-4.8-.849-2.91-3.751-5.541-.008-2.321,2.914,2.881,1.9-9.922-.374Z" transform="translate(3.899 0.825)" fill="#461e18"/>
    <path id="Path_62" data-name="Path 62" d="M87.014-742.261H84.89c-1.807,0-8.222-.409-8.222-.409l.227.635h1.039l.169,8.921.227-.727.011-8.058,6.46.546.09,1.179.994-1.134,1.762.181v2.089l1.853-.091v-2.134l.587.318v8.035s.316-.318.452.545.6-.817.434-1.181-.389-9.713-.389-9.713h-.543l.046-.863-4.653.227.542.727.859.273Z" transform="translate(4.399 1.541)" fill="#461e18"/>
    <path id="Path_63" data-name="Path 63" d="M90.143-743.961l2.287-2.678,2.078,2.678s-.143.647-.777,0c-.317-.324-3.588,0-3.588,0" transform="translate(5.263 1.379)" fill="#461e18"/>
    <path id="Path_64" data-name="Path 64" d="M69.106-754.792l22.889,3.032,3.862,4.184-3.582-4.514c-7.438-1.019-21.123-2.631-22.314-3.057s-.569.237-.854.355" transform="translate(3.914 0.825)" fill="#461e18"/>
    <path id="Path_65" data-name="Path 65" d="M69.326-754.516l2.266.3,5.475.725,6.6.875,5.733.759c.922.122,1.852.294,2.778.368l.04.005-.652-.311,3.371,3.652c.164.178.328.354.491.532a1.035,1.035,0,0,0,.652.311c.116.011.424-.019.273-.21L93.423-751.2l-.571-.719a1.514,1.514,0,0,0-1.093-.465q-1.911-.259-3.823-.505c-5.2-.674-10.409-1.28-15.6-2.047-.428-.064-.856-.129-1.282-.2-.046-.007-.3-.052-.192-.032l-.246-.045c-.125-.023-.249-.047-.371-.075-.082-.017-.347-.109-.137-.028a2.722,2.722,0,0,0-.972-.222c-.176,0-.368.033-.415.228-.031.125.047.262-.047.312-.189.1.2.335.26.367a.785.785,0,0,0,.658.075c.164-.086.116-.3.123-.429,0-.036-.056-.055.047,0a2.137,2.137,0,0,0,.371.118c.314.086.637.138.958.195,1.26.218,2.528.391,3.8.564,3.8.52,7.609.993,11.416,1.482,2.063.265,4.128.531,6.189.813l-.651-.311,3.124,3.938.457.576.926.1L94.419-749.6c-.642-.695-1.261-1.425-1.93-2.092a2.465,2.465,0,0,0-1.443-.415l-2.37-.314-7.571-1-7.89-1.045c-1.4-.185-2.8-.4-4.206-.557l-.061-.007c-.15-.02-.379.016-.273.208s.458.285.652.311" transform="translate(3.883 0.809)" fill="#461e18"/>
    <path id="Path_66" data-name="Path 66" d="M90.649-743.375a18.676,18.676,0,0,1,2.489.177c-.07.105,0,8.522,0,8.522H91.315v-.775h1.4l-.21-7.22Z" transform="translate(5.295 1.588)" fill="#461e18"/>
    <path id="Path_67" data-name="Path 67" d="M93.515-742.547l6.414.246v.424h-.806l.035,1.972-5.644-.528Z" transform="translate(5.479 1.642)" fill="#461e18"/>
    <path id="Path_68" data-name="Path 68" d="M65.83-749.761s3.05-4.543,3.12-4.437,8.658,11.3,8.763,11.3h.631s-8.588-12.609-8.974-12.4a63.666,63.666,0,0,0-4.382,5.671c.035.105.842-.142.842-.142" transform="translate(3.65 0.824)" fill="#461e18"/>
    <path id="Path_69" data-name="Path 69" d="M84.961-745.652l1.788-.863H92.4Z" transform="translate(4.93 1.387)" fill="#461e18"/>
    <path id="Path_70" data-name="Path 70" d="M85.378-745.532l1.788-.863-.5.111h5.655l.093-.427-6.511.754-.93.108c-.122.014-.519.077-.5.268s.437.164.545.151l6.512-.754.929-.108c.126-.015.471-.067.492-.239s-.293-.189-.4-.189H87.443a2.482,2.482,0,0,0-1.131.151c-.57.269-1.136.548-1.7.822-.192.093-.142.236.033.3a1.058,1.058,0,0,0,.737-.082" transform="translate(4.899 1.374)" fill="#461e18"/>
    <path id="Path_71" data-name="Path 71" d="M72.232-749.672c.255.332.049,14.413.049,14.413l.816.121-.049-13.506Z" transform="translate(4.114 1.185)" fill="#461e18"/>
    <path id="Path_72" data-name="Path 72" d="M66.5-751.621l.066,7.342-.819.637-.128-6.986Z" transform="translate(3.691 1.06)" fill="#461e18"/>
    <path id="Path_73" data-name="Path 73" d="M74.393-747.792s-5.412,5.834-5.771,5.8.63.275.63.275l5.411-5.233Z" transform="translate(3.878 1.305)" fill="#461e18"/>
    <path id="Path_74" data-name="Path 74" d="M85.376-733.973s16.559.635,16.954.389,1.358,1.579.77,1.533a54.821,54.821,0,0,1-6.238-.269c-1.264-.31-1.038-.279-4.026-.294s-4.629-.384-6.523,0-3.39-.838-.939-1.36" transform="translate(4.875 2.191)" fill="#461e18"/>
    <path id="Path_75" data-name="Path 75" d="M69.952-728.8c3.141-1.121,3.63-.332,6.065.016a17.933,17.933,0,0,0,5.368,0c1.711-.184.61,1.148-2.023,1.282s-2.64-.922-5.953-.528-6.92.464-3.458-.77" transform="translate(3.878 2.486)" fill="#461e18"/>
    <path id="Path_76" data-name="Path 76" d="M45.336-732.782c1.9.761,2.2.226,3.671-.011a9.669,9.669,0,0,1,3.249,0c1.035.125.369-.78-1.225-.87s-1.6.626-3.6.358-4.187-.315-2.092.523" transform="translate(2.336 2.21)" fill="#461e18"/>
    <path id="Path_77" data-name="Path 77" d="M63.873-747.792c.074.205,4.209,4.352,5.715,5.813.429.417-.415.442-.415.442l-5.3-5.035Z" transform="translate(3.578 1.305)" fill="#461e18"/>
    <path id="Path_78" data-name="Path 78" d="M82.54-741.483c-.061,0,.05,7.033-.005,7.914s-.6-.24-.72.21,0-8.123,0-8.123.119-.333.428-1.406.3,1.406.3,1.406" transform="translate(4.725 1.602)" fill="#461e18"/>
    <path id="Path_79" data-name="Path 79" d="M79.205-733.6c1.328-.067,2.357-.106,2.357-.106s1.773-.315,1.284.374-.2.447-1.882.48-8.9-.018-9.648-.03.831.084.754-.476,7.135-.242,7.135-.242" transform="translate(4.043 2.203)" fill="#461e18"/>
    <path id="Path_80" data-name="Path 80" d="M79.3-736.448l5.328-5.066s1.5-.516.09,1.18a62.31,62.31,0,0,1-5.418,5.059Z" transform="translate(4.568 1.703)" fill="#461e18"/>
    <path id="Path_81" data-name="Path 81" d="M98.039-733.257q.035-2.217.271-4.421c-.043.043.032.1.085.132.2.1.243.388.255.628q.1,1.923.2,3.846l-.559.01a.37.37,0,0,1-.209-.038c-.16-.1-.1-.364-.013-.543" transform="translate(5.765 1.953)" fill="#461e18"/>
    <path id="Path_82" data-name="Path 82" d="M91.8-746.133a3.742,3.742,0,0,1-.373.428,1.478,1.478,0,0,1-.115.1c-.038.031.024-.018-.014.012l-.06.046a2.241,2.241,0,0,0-.249.213,4.546,4.546,0,0,0-.375.482c-.125.173-.251.347-.377.52a.284.284,0,0,0,.1.385.286.286,0,0,0,.383-.1l.358-.493a3.06,3.06,0,0,1,.328-.417c.134-.134.267-.207.416-.348a3.739,3.739,0,0,0,.374-.427.291.291,0,0,0,0-.4.283.283,0,0,0-.4,0" transform="translate(5.266 1.406)" fill="#461e18"/>
    <path id="Path_83" data-name="Path 83" d="M85.619-745.591a11.14,11.14,0,0,1-1.326,1.113.288.288,0,0,0-.115.352.276.276,0,0,0,.331.163c.95-.4,2-1,2.192-2.123a.281.281,0,0,0-.542-.15,3.438,3.438,0,0,1-2.278,2.124c.072.171.144.343.216.515a7.272,7.272,0,0,0,1.8-1.153.286.286,0,0,0,0-.4.286.286,0,0,0-.4,0,6.774,6.774,0,0,1-1.687,1.065.279.279,0,0,0-.115.351.28.28,0,0,0,.331.163,4.024,4.024,0,0,0,2.671-2.517l-.542-.15c-.155.913-1.02,1.4-1.8,1.73q.109.257.216.514a12.152,12.152,0,0,0,1.44-1.2c.259-.254-.137-.652-.4-.4" transform="translate(4.848 1.392)" fill="#461e18"/>
    <path id="Path_84" data-name="Path 84" d="M91.909-736.41l.548-.143a.282.282,0,0,0,.2-.309.286.286,0,0,0-.276-.245,1.923,1.923,0,0,0-.854.1.288.288,0,0,0-.205.271.286.286,0,0,0,.205.272,2.712,2.712,0,0,0,.869.048.293.293,0,0,0,.2-.083.274.274,0,0,0,.082-.2,3.812,3.812,0,0,1-.013-.633c0-.054.009-.107.015-.161,0-.026.005-.05.009-.074-.006.051,0,0,0-.024.017-.106.038-.212.064-.317a.285.285,0,0,0-.2-.346.284.284,0,0,0-.345.2,4,4,0,0,0-.1,1.358c.094-.094.187-.187.28-.282a2.458,2.458,0,0,1-.386.015,1.274,1.274,0,0,1-.193-.016c.068.013-.034-.006-.046-.007l-.1-.019v.544a1.617,1.617,0,0,1,.184-.055l.094-.02.048-.007c-.035,0-.036.005,0,0a1.931,1.931,0,0,1,.383,0c-.026-.184-.05-.369-.074-.555l-.548.144a.285.285,0,0,0-.2.346.284.284,0,0,0,.345.2" transform="translate(5.338 1.916)" fill="#461e18"/>
    <path id="Path_85" data-name="Path 85" d="M92.661-735.886a1.934,1.934,0,0,1,.052-.891l.156-1a.29.29,0,0,0-.2-.347.283.283,0,0,0-.345.2,12.165,12.165,0,0,1-.568,1.878.293.293,0,0,0,.1.386.283.283,0,0,0,.383-.1,6.92,6.92,0,0,0,.727-2.585c.024-.313-.5-.391-.551-.076a15.276,15.276,0,0,1-.611,2.519.282.282,0,0,0,.468.274c.112-.116.222-.232.333-.349l-.469-.124a.69.69,0,0,0,.467.516.282.282,0,0,0,.354-.271q.053-.952.024-1.9a.281.281,0,0,0-.562,0q.029.953-.023,1.9l.355-.272c-.044-.016-.063-.059-.075-.125a.282.282,0,0,0-.469-.123l-.332.349.468.274a15.163,15.163,0,0,0,.611-2.518l-.55-.074a6.207,6.207,0,0,1-.65,2.3l.484.284a13,13,0,0,0,.625-2.012l-.541-.15-.172,1.1a2.311,2.311,0,0,0-.036,1.091.287.287,0,0,0,.345.2.285.285,0,0,0,.2-.347" transform="translate(5.364 1.892)" fill="#461e18"/>
  </g>
</svg>