<svg xmlns="http://www.w3.org/2000/svg" fill-rule="evenodd" stroke-linejoin="round" stroke-miterlimit="2" clip-rule="evenodd" viewBox="0 0 146 56">
  <path fill="#f36b27" d="M119.391 22.999a5.061 5.061 0 015.052 5.051 5.061 5.061 0 01-5.052 5.052 5.061 5.061 0 01-5.051-5.052A5.061 5.061 0 01119.391 23zm-82.673 0a5.061 5.061 0 015.051 5.051 5.061 5.061 0 01-5.051 5.052 5.061 5.061 0 01-5.051-5.052A5.061 5.061 0 0136.717 23zM0 12.345h3.566V0h12.3v12.345h8.963c-4.929 3.487-8.157 9.23-8.157 15.705 0 6.127 2.89 11.6 7.378 15.125l-9.62.036c-5.996 0-10.885-4.89-10.885-10.885 0-.232.007-.462.021-.69v-8.453H0V12.345zm36.718-.527c8.94 0 16.232 7.292 16.232 16.232s-7.292 16.232-16.232 16.232-16.232-7.291-16.232-16.232c0-8.94 7.292-16.232 16.232-16.232zm34.393 0c2.55-.075 4.876.158 6.96.654a19.453 19.453 0 00-7.233 10.604c-4.103.724-3.95 4.289-4.043 7.573l-.007 12.73-11.661.002-.012-15.33c0-8.94 7.06-15.968 15.996-16.232zm18.663-.04c8.94 0 16.232 7.292 16.232 16.232s-7.292 16.232-16.232 16.232c-.616 0-1.225-.035-1.823-.103V32.152a4.522 4.522 0 001.614.298 4.56 4.56 0 004.551-4.551 4.56 4.56 0 00-4.55-4.55 4.56 4.56 0 00-4.545 4.788V45.31h.012l-.003 10.566-11.935.003-.012-27.869c0-8.94 7.333-15.967 16.27-16.232.106-.003.21-.002.312.002l.109-.002zm29.617.04c8.94 0 16.232 7.292 16.232 16.232s-7.292 16.232-16.232 16.232c-5.09 0-9.644-2.365-12.624-6.05a19.863 19.863 0 002.797-10.182c0-3.713-1.022-7.196-2.797-10.182 2.98-3.685 7.534-6.05 12.624-6.05zM131.876.284h13.973v43.06h-13.502c4.341-3.685 7.105-9.176 7.105-15.294 0-6.336-2.964-12-7.576-15.682V.284z"/>
</svg>
